<svg width="128" height="128" viewBox="0 0 128 128" fill="none" xmlns="http://www.w3.org/2000/svg">
<circle cx="64" cy="64" r="64" fill="#7B5D45"/>
<path d="M60.2532 94C58.2978 88.9167 56.2813 83.922 54.2037 79.016C52.1872 74.0509 50.1402 69.204 48.0626 64.4753C45.985 59.6875 43.8768 55.0179 41.7381 50.4666C40.3938 47.6885 39.2939 45.5901 38.4384 44.1715C37.644 42.6938 36.8802 41.6594 36.1469 41.0683C35.4748 40.4772 34.6804 40.093 33.7638 39.9157C33.5194 39.1473 33.3055 38.172 33.1222 36.9898C33 35.8077 32.9694 34.4777 33.0306 33C33.8249 33.0591 34.8943 33.1182 36.2386 33.1773C37.5829 33.1773 39.0189 33.2069 40.5466 33.266C42.0742 33.266 43.5102 33.266 44.8545 33.266C46.1988 33.266 47.2376 33.266 47.9709 33.266C49.4374 33.266 51.6678 33.266 54.662 33.266C57.6562 33.2069 60.6198 33.1182 63.5529 33C63.4918 34.655 63.4001 36.0441 63.2779 37.1672C63.1557 38.2902 63.0029 39.2064 62.8196 39.9157C61.2919 40.1521 60.2226 40.5659 59.6115 41.157C59.0005 41.7481 58.7866 42.6347 58.9699 43.8169C59.2144 44.999 59.7949 46.6245 60.7114 48.6933C62.0558 51.8261 63.2779 54.8406 64.3778 57.7369C65.5388 60.6332 66.6387 63.6478 67.6775 66.7805C68.7774 69.9133 69.8468 73.4598 70.8855 77.4201H67.8608C69.6329 73.5189 71.1911 70.0019 72.5354 66.8692C73.9408 63.7364 75.2546 60.5741 76.4767 57.3823C77.7599 54.1904 79.1043 50.6143 80.5097 46.6541C81.1208 44.9399 81.2124 43.4622 80.7847 42.2209C80.3569 40.9205 79.1654 40.1521 77.21 39.9157C76.9656 39.1473 76.7517 38.2311 76.5684 37.1672C76.4462 36.0441 76.4156 34.655 76.4767 33C77.21 33.0591 78.1877 33.1182 79.4098 33.1773C80.693 33.1773 82.0068 33.2069 83.3511 33.266C84.7565 33.266 85.9481 33.266 86.9258 33.266C88.4534 33.266 90.1033 33.2364 91.8754 33.1773C93.7085 33.1182 95.0834 33.0591 96 33C96 34.3595 95.9083 35.6303 95.725 36.8125C95.5417 37.9356 95.3278 38.97 95.0834 39.9157C93.4947 40.2112 92.1809 40.9797 91.1421 42.2209C90.1033 43.4031 88.9117 45.6197 87.5674 48.8706C84.5732 56.2001 81.5485 63.5 78.4932 70.7703C75.4379 77.9816 72.1688 85.4588 68.6857 93.202C67.6469 93.6158 66.3332 93.8522 64.7444 93.9113C63.1557 93.9704 61.6586 94 60.2532 94Z" fill="#DFD3C7"/>
</svg>
