<svg width="1560" height="968" viewBox="0 0 1560 968" fill="none" xmlns="http://www.w3.org/2000/svg">
<path d="M778.44 879.696H721.36L712.163 934.333H789.097L778.44 879.696Z" fill="#BC9E86"/>
<path d="M778.878 875.837H721.36L706.323 766.716H822.528L789.973 805.765L778.878 875.837Z" fill="#BC9E86"/>
<path d="M712.017 795.338L707.609 766.725C707.609 766.725 697.912 766.398 693.161 769.791C686.767 774.357 685.047 781.156 684.345 789.206C681.896 817.308 682.631 857.161 682.631 857.161H697.324C697.324 857.161 693.161 794.06 701.977 787.163C706.284 783.793 712.017 795.338 712.017 795.338Z" fill="#BC9E86"/>
<path d="M772.809 755.92C759.962 752.713 750.84 752.522 750.84 752.522V762.716L789.827 762.716C789.827 762.716 783.02 758.469 772.809 755.92Z" fill="#BC9E86"/>
<path d="M729.181 755.92C742.028 752.713 751.15 752.522 751.15 752.522V762.716L712.163 762.716C712.163 762.716 718.97 758.469 729.181 755.92Z" fill="#BC9E86"/>
<rect width="4.95071" height="7.64606" transform="matrix(-1 0 0 1 753.625 749.973)" fill="#BC9E86"/>
<ellipse cx="4.33187" cy="4.6726" rx="4.33187" ry="4.6726" transform="matrix(-1 0 0 1 755.482 742.327)" fill="#BC9E86"/>
<path d="M501.528 777.327H566.482V904.287V934.327H530.272C530.272 934.327 514.484 907.499 506.754 847.42C502.446 813.934 501.528 777.327 501.528 777.327Z" fill="#F2EDE7"/>
<path d="M617.811 777.327H552.857V904.287V934.327H589.067C589.067 934.327 604.855 907.499 612.585 847.42C616.893 813.934 617.811 777.327 617.811 777.327Z" fill="#F2EDE7"/>
<path d="M613.06 814.479L611.725 801.53C611.725 801.53 626.515 799.247 633.917 801.53C649.935 806.471 658.967 831.363 647.099 858.097C636.126 882.814 595.039 896.943 595.039 896.943L600.045 880.587C600.045 880.587 629.576 869.759 636.587 852.304C642.368 837.911 641.675 826.055 635.252 819.591C623.739 808.005 613.06 814.479 613.06 814.479Z" fill="#F2EDE7"/>
<path d="M1080.53 806.327H1140.75V913.071V938.327H1107.18C1107.18 938.327 1092.54 915.771 1085.37 865.258C1081.38 837.105 1080.53 806.327 1080.53 806.327Z" fill="#F2EDE7"/>
<path d="M1188.34 806.327H1128.12V913.071V938.327H1161.69C1161.69 938.327 1176.33 915.771 1183.49 865.258C1187.49 837.105 1188.34 806.327 1188.34 806.327Z" fill="#F2EDE7"/>
<path d="M1183.94 837.563L1182.7 826.676C1182.7 826.676 1196.41 824.757 1203.27 826.676C1218.12 830.83 1226.5 851.758 1215.49 874.235C1205.32 895.016 1167.23 906.896 1167.23 906.896L1171.87 893.144C1171.87 893.144 1199.25 884.04 1205.75 869.365C1211.11 857.263 1210.47 847.295 1204.51 841.861C1193.84 832.12 1183.94 837.563 1183.94 837.563Z" fill="#F2EDE7"/>
<path d="M1004.32 904.657H1053.24L1061.13 951.327H995.183L1004.32 904.657Z" fill="#BC9E86"/>
<path d="M1003.94 901.362H1053.24L1066.13 808.155H966.528L994.432 841.509L1003.94 901.362Z" fill="#BC9E86"/>
<path d="M1061.25 832.602L1065.03 808.162C1065.03 808.162 1073.34 807.882 1077.41 810.781C1082.89 814.681 1084.37 820.488 1084.97 827.365C1087.07 851.368 1086.44 885.41 1086.44 885.41H1073.85C1073.85 885.41 1077.41 831.511 1069.86 825.619C1066.17 822.741 1061.25 832.602 1061.25 832.602Z" fill="#BC9E86"/>
<path d="M1009.14 798.938C1020.16 796.199 1027.97 796.035 1027.97 796.035V804.743L994.557 804.743C994.557 804.743 1000.39 801.115 1009.14 798.938Z" fill="#BC9E86"/>
<path d="M1046.54 798.938C1035.53 796.199 1027.71 796.035 1027.71 796.035V804.743L1061.13 804.743C1061.13 804.743 1055.29 801.115 1046.54 798.938Z" fill="#BC9E86"/>
<rect x="1025.59" y="793.858" width="4.24346" height="6.53101" fill="#BC9E86"/>
<ellipse cx="1027.71" cy="791.318" rx="3.71303" ry="3.99117" fill="#BC9E86"/>
<path d="M879.528 811.327H831.35V902.706V924.327H858.208C858.208 924.327 869.918 905.018 875.651 861.776C878.847 837.675 879.528 811.327 879.528 811.327Z" fill="#F2EDE7"/>
<path d="M793.278 811.327H841.456V902.706V924.327H814.598C814.598 924.327 802.888 905.018 797.154 861.776C793.959 837.675 793.278 811.327 793.278 811.327Z" fill="#F2EDE7"/>
<path d="M796.802 838.067L797.792 828.747C797.792 828.747 786.822 827.104 781.332 828.747C769.451 832.303 762.752 850.219 771.555 869.461C779.693 887.251 810.168 897.42 810.168 897.42L806.455 885.648C806.455 885.648 784.552 877.854 779.352 865.291C775.064 854.932 775.578 846.398 780.342 841.746C788.881 833.407 796.802 838.067 796.802 838.067Z" fill="#F2EDE7"/>
<path d="M936.068 792.852H897.26V931.327H940.014C940.014 931.327 958.76 919.917 955.471 903.061C952.183 886.206 951.988 888.461 945.276 871.943C930.779 836.266 936.068 792.852 936.068 792.852Z" fill="#785A42"/>
<path d="M1000.53 823.97V811.523C1000.53 811.523 974.349 811.523 960.076 840.826C954.495 852.283 955.086 860.742 949.223 868.313C944.576 874.314 925.544 869.869 925.544 869.869C925.544 869.869 899.33 909.265 949.223 906.951C988.359 905.136 972.018 870.33 976.191 852.495C982.439 825.785 1000.53 823.97 1000.53 823.97Z" fill="#785A42"/>
<path d="M868.319 792.852H907.126V931.327H864.372C864.372 931.327 845.626 919.917 848.915 903.061C852.204 886.206 852.398 888.461 859.11 871.943C873.608 836.266 868.319 792.852 868.319 792.852Z" fill="#785A42"/>
<path d="M922.453 780.578C911.182 776.744 903.18 776.515 903.18 776.515V788.703L937.383 788.703C937.383 788.703 931.411 783.625 922.453 780.578Z" fill="#785A42"/>
<path d="M884.179 780.578C895.45 776.744 903.452 776.515 903.452 776.515V788.703L869.249 788.703C869.249 788.703 875.221 783.625 884.179 780.578Z" fill="#785A42"/>
<rect width="4.34321" height="9.14099" transform="matrix(-1 0 0 1 905.623 773.468)" fill="#785A42"/>
<ellipse cx="7.23532" cy="5.70497" rx="7.23532" ry="5.70497" transform="matrix(-1 0 0 1 910.415 764.327)" fill="#785A42"/>
<path d="M889.528 821.327H944.158V916.75V939.327H913.703C913.703 939.327 900.425 919.163 893.923 874.008C890.3 848.841 889.528 821.327 889.528 821.327Z" fill="#F2EDE7"/>
<path d="M987.329 821.327H932.698V916.75V939.327H963.153C963.153 939.327 976.432 919.163 982.933 874.008C986.557 848.841 987.329 821.327 987.329 821.327Z" fill="#F2EDE7"/>
<path d="M983.333 849.25L982.21 839.518C982.21 839.518 994.649 837.802 1000.87 839.518C1014.35 843.232 1021.94 861.94 1011.96 882.033C1002.73 900.61 968.177 911.23 968.177 911.23L972.387 898.936C972.387 898.936 997.224 890.798 1003.12 877.679C1007.98 866.861 1007.4 857.95 1002 853.092C992.314 844.384 983.333 849.25 983.333 849.25Z" fill="#F2EDE7"/>
<path d="M697.068 815.852H658.26V954.327H701.014C701.014 954.327 719.76 942.917 716.471 926.061C713.183 909.206 712.988 911.461 706.276 894.943C691.779 859.266 697.068 815.852 697.068 815.852Z" fill="#785A42"/>
<path d="M761.528 846.97V834.523C761.528 834.523 735.349 834.523 721.076 863.826C715.495 875.283 716.086 883.742 710.223 891.313C705.576 897.314 686.544 892.869 686.544 892.869C686.544 892.869 660.33 932.265 710.223 929.951C749.359 928.136 733.018 893.33 737.191 875.495C743.439 848.785 761.528 846.97 761.528 846.97Z" fill="#785A42"/>
<path d="M629.319 815.852H668.126V954.327H625.372C625.372 954.327 606.626 942.917 609.915 926.061C613.204 909.206 613.398 911.461 620.11 894.943C634.608 859.266 629.319 815.852 629.319 815.852Z" fill="#785A42"/>
<path d="M683.453 803.578C672.182 799.744 664.18 799.515 664.18 799.515V811.703L698.383 811.703C698.383 811.703 692.411 806.625 683.453 803.578Z" fill="#785A42"/>
<path d="M645.179 803.578C656.45 799.744 664.452 799.515 664.452 799.515V811.703L630.249 811.703C630.249 811.703 636.221 806.625 645.179 803.578Z" fill="#785A42"/>
<rect width="4.34321" height="9.14099" transform="matrix(-1 0 0 1 666.623 796.468)" fill="#785A42"/>
<ellipse cx="7.23532" cy="5.70497" rx="7.23532" ry="5.70497" transform="matrix(-1 0 0 1 671.415 787.327)" fill="#785A42"/>
<path d="M1279.07 787.852H1240.26V926.327H1283.01C1283.01 926.327 1301.76 914.917 1298.47 898.061C1295.18 881.206 1294.99 883.461 1288.28 866.943C1273.78 831.266 1279.07 787.852 1279.07 787.852Z" fill="#785A42"/>
<path d="M1343.53 818.97V806.523C1343.53 806.523 1317.35 806.523 1303.08 835.826C1297.49 847.283 1298.09 855.742 1292.22 863.313C1287.58 869.314 1268.54 864.869 1268.54 864.869C1268.54 864.869 1242.33 904.265 1292.22 901.951C1331.36 900.136 1315.02 865.33 1319.19 847.495C1325.44 820.785 1343.53 818.97 1343.53 818.97Z" fill="#785A42"/>
<path d="M1211.32 787.852H1250.13V926.327H1207.37C1207.37 926.327 1188.63 914.917 1191.91 898.061C1195.2 881.206 1195.4 883.461 1202.11 866.943C1216.61 831.266 1211.32 787.852 1211.32 787.852Z" fill="#785A42"/>
<path d="M1265.45 775.578C1254.18 771.744 1246.18 771.515 1246.18 771.515V783.703L1280.38 783.703C1280.38 783.703 1274.41 778.625 1265.45 775.578Z" fill="#785A42"/>
<path d="M1227.18 775.578C1238.45 771.744 1246.45 771.515 1246.45 771.515V783.703L1212.25 783.703C1212.25 783.703 1218.22 778.625 1227.18 775.578Z" fill="#785A42"/>
<rect width="4.34321" height="9.14099" transform="matrix(-1 0 0 1 1248.62 768.468)" fill="#785A42"/>
<ellipse cx="7.23532" cy="5.70497" rx="7.23532" ry="5.70497" transform="matrix(-1 0 0 1 1253.42 759.327)" fill="#785A42"/>
<path d="M1335.62 904.69H1392.7L1401.89 959.327H1324.96L1335.62 904.69Z" fill="#BC9E86"/>
<path d="M1335.18 900.831H1392.7L1407.73 791.711H1291.53L1324.08 830.759L1335.18 900.831Z" fill="#BC9E86"/>
<path d="M1402.04 820.332L1406.45 791.719C1406.45 791.719 1416.14 791.392 1420.89 794.785C1427.29 799.351 1429.01 806.15 1429.71 814.2C1432.16 842.302 1431.42 882.156 1431.42 882.156H1416.73C1416.73 882.156 1420.89 819.054 1412.08 812.157C1407.77 808.787 1402.04 820.332 1402.04 820.332Z" fill="#BC9E86"/>
<path d="M1341.25 780.92C1354.09 777.713 1363.22 777.522 1363.22 777.522V787.716L1324.23 787.716C1324.23 787.716 1331.04 783.469 1341.25 780.92Z" fill="#BC9E86"/>
<path d="M1384.87 780.92C1372.03 777.713 1362.91 777.522 1362.91 777.522V787.716L1401.89 787.716C1401.89 787.716 1395.09 783.469 1384.87 780.92Z" fill="#BC9E86"/>
<rect x="1360.43" y="774.973" width="4.95071" height="7.64606" fill="#BC9E86"/>
<ellipse cx="1362.91" cy="772" rx="4.33187" ry="4.6726" fill="#BC9E86"/>
<path d="M774.838 917.204L773.21 912.04C773.21 912.04 791.244 911.129 800.27 912.04C819.802 914.01 822.595 925.722 813.698 933.68C801.277 944.791 752.864 950.096 752.864 950.096L758.968 943.572C758.968 943.572 788.545 937.364 798.838 933.68C820.46 925.941 807.942 919.139 803.163 918.436C788.573 916.288 774.838 917.204 774.838 917.204Z" fill="#A1785A"/>
<path d="M704.789 899.327H758.792V959.327H735.281C735.281 959.327 720.698 951.643 711.208 933.27C702.546 916.5 704.789 899.327 704.789 899.327Z" fill="#A1785A"/>
<path d="M795.002 899.327H739.184V959.327H763.485C763.485 959.327 778.558 951.643 788.367 933.27C797.32 916.5 795.002 899.327 795.002 899.327Z" fill="#A1785A"/>
<path d="M902.464 909.057L904.734 901.913C904.734 901.913 879.581 900.653 866.992 901.913C839.75 904.639 835.856 920.84 848.264 931.848C865.588 947.218 933.112 954.558 933.112 954.558L924.599 945.533C924.599 945.533 883.346 936.945 868.989 931.848C838.833 921.142 856.292 911.734 862.958 910.761C883.307 907.79 902.464 909.057 902.464 909.057Z" fill="#A1785A"/>
<path d="M1000.16 884.327H924.844V967.327H957.635C957.635 967.327 977.974 956.697 991.21 931.281C1003.29 908.082 1000.16 884.327 1000.16 884.327Z" fill="#A1785A"/>
<path d="M874.34 884.327H952.192V967.327H918.298C918.298 967.327 897.275 956.697 883.595 931.281C871.107 908.082 874.34 884.327 874.34 884.327Z" fill="#A1785A"/>
<path d="M1263.8 897.78L1265.78 891.582C1265.78 891.582 1243.79 890.489 1232.79 891.582C1208.97 893.947 1205.57 908.001 1216.42 917.55C1231.56 930.884 1290.59 937.25 1290.59 937.25L1283.15 929.421C1283.15 929.421 1247.09 921.972 1234.53 917.55C1208.17 908.263 1223.43 900.102 1229.26 899.258C1247.05 896.681 1263.8 897.78 1263.8 897.78Z" fill="#A1785A"/>
<path d="M1349.21 876.327H1283.36V948.327H1312.03C1312.03 948.327 1329.81 939.106 1341.38 917.059C1351.94 896.934 1349.21 876.327 1349.21 876.327Z" fill="#A1785A"/>
<path d="M1239.21 876.327H1307.27V948.327H1277.64C1277.64 948.327 1259.26 939.106 1247.3 917.059C1236.39 896.934 1239.21 876.327 1239.21 876.327Z" fill="#A1785A"/>
<path d="M115.801 279.771H583.589L509.672 924.327H185.494L115.801 279.771Z" fill="#53402F"/>
<rect x="92.5278" y="240.037" width="516.662" height="110.369" fill="#53402F"/>
<path d="M162.405 147.327H535.903L567.298 240.037H132.092L162.405 147.327Z" fill="#53402F"/>
<path d="M1418.2 485.338L1348.37 366.33C1347.42 364.31 1346.2 362.963 1344.72 362.289C1343.35 361.481 1341.07 360.875 1337.9 360.471C1337.47 358.45 1337.16 356.228 1336.95 353.803C1336.73 351.378 1336.63 348.954 1336.63 346.529C1338 346.664 1339.85 346.799 1342.18 346.933C1344.51 346.933 1346.89 347.001 1349.32 347.135C1351.76 347.135 1353.77 347.135 1355.35 347.135C1357.89 347.135 1360.7 347.135 1363.77 347.135C1366.94 347.001 1369.53 346.799 1371.54 346.529L1422.17 434.219L1418.2 485.338ZM1336.63 484.328C1336.63 481.499 1336.68 478.94 1336.79 476.65C1337 474.36 1337.37 472.272 1337.9 470.387C1341.07 469.983 1343.5 468.972 1345.2 467.356C1347 465.739 1348.27 462.911 1349.01 458.87C1349.85 454.829 1350.28 448.969 1350.28 441.291V359.663L1361.23 360.875V441.291C1361.23 448.969 1361.54 454.829 1362.18 458.87C1362.81 462.911 1363.98 465.739 1365.67 467.356C1367.47 468.972 1370.01 469.983 1373.29 470.387C1373.71 472.272 1373.98 474.495 1374.08 477.054C1374.19 479.479 1374.24 481.904 1374.24 484.328C1372.76 484.193 1370.91 484.059 1368.69 483.924C1366.46 483.924 1364.24 483.857 1362.02 483.722C1359.8 483.722 1357.79 483.722 1355.99 483.722C1354.3 483.722 1352.13 483.722 1349.48 483.722C1346.94 483.857 1344.51 483.924 1342.18 483.924C1339.85 484.059 1338 484.193 1336.63 484.328ZM1418.2 485.338L1419.79 451.798V389.364C1419.79 381.686 1419.47 375.894 1418.83 371.988C1418.2 367.947 1416.93 365.118 1415.03 363.501C1413.23 361.885 1410.53 360.875 1406.93 360.471C1406.51 358.181 1406.19 355.824 1405.98 353.399C1405.87 350.84 1405.82 348.55 1405.82 346.529C1407.41 346.664 1409.36 346.799 1411.69 346.933C1414.02 346.933 1416.4 347.001 1418.83 347.135C1421.37 347.135 1423.49 347.135 1425.18 347.135C1427.83 347.135 1430.74 347.068 1433.91 346.933C1437.08 346.799 1439.62 346.664 1441.53 346.529C1441.53 348.819 1441.47 351.109 1441.37 353.399C1441.26 355.689 1441 358.046 1440.58 360.471C1437.93 360.74 1435.87 361.683 1434.39 363.299C1433.01 364.916 1432.06 367.745 1431.53 371.786C1431 375.692 1430.74 381.551 1430.74 389.364V483.722C1428.94 484.396 1427.03 484.8 1425.02 484.934C1423.01 485.204 1420.74 485.338 1418.2 485.338Z" fill="#53402F"/>
<path d="M1296.16 485.54C1294.89 482.038 1293.68 478.671 1292.51 475.438C1291.35 472.07 1290.24 468.77 1289.18 465.537C1288.12 462.17 1287.01 458.735 1285.85 455.233C1284.26 450.383 1282.78 446.342 1281.4 443.11C1280.03 439.742 1278.49 436.846 1276.8 434.421C1275.11 431.862 1272.99 429.37 1270.45 426.945L1277.59 428.562C1274.74 428.697 1272.2 428.831 1269.98 428.966C1267.86 428.966 1265.43 428.899 1262.68 428.764L1263.95 414.014C1265.53 414.284 1266.8 414.486 1267.76 414.62C1268.71 414.755 1269.61 414.822 1270.45 414.822C1274.26 414.822 1277.75 413.879 1280.93 411.994C1284.21 409.973 1286.85 406.942 1288.86 402.901C1290.98 398.726 1292.04 393.54 1292.04 387.343C1292.04 378.857 1290.4 372.19 1287.12 367.34C1283.94 362.491 1279.29 360.067 1273.15 360.067C1271.46 360.067 1269.87 360.201 1268.39 360.471C1267.01 360.74 1265.53 361.211 1263.95 361.885L1265.22 355.217V447.555C1265.22 454.155 1265.48 459.072 1266.01 462.304C1266.54 465.537 1267.38 467.692 1268.55 468.77C1269.82 469.713 1271.51 470.252 1273.63 470.387C1274.05 471.734 1274.31 473.754 1274.42 476.448C1274.53 479.142 1274.58 481.769 1274.58 484.328C1272.57 484.193 1269.98 484.059 1266.8 483.924C1263.63 483.924 1260.45 483.857 1257.28 483.722C1254.11 483.722 1251.41 483.722 1249.19 483.722C1245.27 483.722 1241.25 483.722 1237.13 483.722C1233.11 483.857 1229.4 484.059 1226.02 484.328C1226.02 481.365 1226.07 478.738 1226.18 476.448C1226.39 474.158 1226.71 472.138 1227.13 470.387C1229.98 470.117 1232.15 469.444 1233.63 468.366C1235.22 467.154 1236.28 465.066 1236.81 462.102C1237.44 459.139 1237.76 454.761 1237.76 448.969V381.282C1237.76 375.624 1237.44 371.381 1236.81 368.553C1236.28 365.589 1235.22 363.569 1233.63 362.491C1232.15 361.414 1229.93 360.673 1226.97 360.269C1226.55 358.383 1226.28 355.958 1226.18 352.995C1226.07 350.031 1226.02 347.876 1226.02 346.529C1228.77 346.664 1232.37 346.798 1236.81 346.933C1241.36 347.068 1246.12 347.135 1251.09 347.135C1254.48 347.135 1258.97 347.001 1264.58 346.731C1270.29 346.462 1276.22 346.327 1282.36 346.327C1291.24 346.327 1298.49 348.011 1304.1 351.378C1309.81 354.611 1313.99 359.056 1316.63 364.714C1319.28 370.236 1320.6 376.433 1320.6 383.302C1320.6 391.519 1319.33 398.658 1316.79 404.72C1314.36 410.647 1310.97 415.294 1306.64 418.661C1302.3 422.029 1297.38 424.184 1291.88 425.127L1294.89 422.5C1298.07 424.386 1300.61 426.474 1302.51 428.764C1304.52 430.919 1306.48 434.017 1308.38 438.058C1310.39 441.965 1312.88 447.555 1315.84 454.829C1317.43 458.6 1318.86 461.564 1320.13 463.719C1321.4 465.739 1322.82 467.221 1324.41 468.164C1326 468.972 1328.01 469.511 1330.44 469.78C1330.44 472.34 1330.34 474.764 1330.12 477.054C1329.91 479.344 1329.54 481.567 1329.01 483.722C1321.82 483.722 1315.36 483.857 1309.65 484.126C1304.04 484.395 1299.55 484.867 1296.16 485.54Z" fill="#53402F"/>
<path d="M1066.38 485.338C1064.15 479.816 1061.67 474.024 1058.92 467.962C1056.17 461.766 1053.15 455.637 1049.87 449.575C1046.7 443.379 1043.31 437.385 1039.72 431.593C1036.12 425.666 1032.42 420.143 1028.61 415.025L1056.85 378.655C1061.62 372.594 1064 368.081 1064 365.118C1064.1 362.154 1062.62 360.605 1059.55 360.471C1059.13 358.45 1058.81 356.16 1058.6 353.601C1058.39 351.042 1058.28 348.684 1058.28 346.529C1060.29 346.664 1062.94 346.799 1066.22 346.933C1069.5 347.068 1072.67 347.135 1075.74 347.135C1077.86 347.135 1080.4 347.135 1083.36 347.135C1086.43 347.001 1089.28 346.933 1091.93 346.933C1094.68 346.799 1096.74 346.664 1098.12 346.529C1098.12 348.55 1097.96 350.974 1097.64 353.803C1097.43 356.497 1097.06 358.72 1096.53 360.471C1093.99 360.605 1091.5 361.279 1089.07 362.491C1086.64 363.569 1084.2 365.253 1081.77 367.543C1079.44 369.698 1076.9 372.594 1074.15 376.231L1048.6 410.175L1052.89 398.86C1058.39 406.943 1063.52 415.227 1068.28 423.713C1073.15 432.064 1077.96 440.82 1082.72 449.979C1085.16 454.559 1087.43 458.331 1089.55 461.294C1091.66 464.123 1093.88 466.211 1096.21 467.558C1098.65 468.905 1101.34 469.78 1104.31 470.185C1104.31 472.744 1104.2 475.168 1103.99 477.458C1103.88 479.748 1103.46 481.836 1102.72 483.722C1100.71 483.722 1098.06 483.722 1094.78 483.722C1091.61 483.857 1088.17 483.991 1084.47 484.126C1080.87 484.261 1077.43 484.395 1074.15 484.53C1070.98 484.665 1068.39 484.934 1066.38 485.338ZM994.169 484.328C994.169 482.038 994.275 479.546 994.486 476.852C994.804 474.158 995.121 472.003 995.438 470.387C998.295 470.117 1000.46 469.444 1001.94 468.366C1003.53 467.154 1004.59 465.066 1005.12 462.103C1005.65 459.139 1005.91 454.761 1005.91 448.969V381.484C1005.91 375.827 1005.65 371.584 1005.12 368.755C1004.59 365.926 1003.53 363.973 1001.94 362.895C1000.46 361.683 998.295 360.875 995.438 360.471C995.015 358.72 994.698 356.564 994.486 354.005C994.275 351.311 994.169 348.819 994.169 346.529C995.967 346.664 998.401 346.799 1001.47 346.933C1004.64 346.933 1007.92 347.001 1011.31 347.135C1014.8 347.135 1017.76 347.135 1020.2 347.135C1022.63 347.135 1025.38 347.135 1028.45 347.135C1031.52 347.001 1034.53 346.933 1037.49 346.933C1040.46 346.799 1043 346.664 1045.11 346.529C1045.11 348.954 1045.06 351.311 1044.95 353.601C1044.85 355.891 1044.48 358.181 1043.84 360.471C1040.98 360.875 1038.76 361.616 1037.18 362.693C1035.69 363.771 1034.69 365.791 1034.16 368.755C1033.63 371.584 1033.37 375.827 1033.37 381.484V448.969C1033.37 454.761 1033.63 459.139 1034.16 462.103C1034.69 465.066 1035.75 467.154 1037.33 468.366C1038.92 469.444 1041.09 470.117 1043.84 470.387C1044.26 472.003 1044.58 474.158 1044.79 476.852C1045.01 479.412 1045.11 481.904 1045.11 484.328C1042.57 484.059 1039.19 483.857 1034.95 483.722C1030.72 483.722 1026.17 483.722 1021.31 483.722C1016.44 483.722 1011.52 483.722 1006.55 483.722C1001.68 483.857 997.554 484.059 994.169 484.328Z" fill="#53402F"/>
<path d="M950.032 470.185C954.264 470.185 957.755 469.309 960.506 467.558C963.363 465.672 965.69 462.776 967.489 458.87C969.393 454.829 971.086 449.575 972.567 443.11C975.53 443.514 978.227 444.322 980.661 445.534C983.2 446.612 985.104 447.959 986.374 449.575C985.21 454.155 984.205 459.543 983.359 465.739C982.512 471.936 981.877 478.065 981.454 484.126C978.598 483.991 974.948 483.924 970.504 483.924C966.061 483.924 961.405 483.857 956.539 483.722C951.672 483.722 947.07 483.722 942.732 483.722C939.875 483.722 936.172 483.722 931.623 483.722C927.179 483.857 922.524 483.924 917.657 483.924C912.896 484.059 908.506 484.126 904.485 484.126C900.465 484.261 897.556 484.328 895.757 484.328C895.757 481.634 895.81 479.075 895.916 476.65C896.127 474.091 896.445 472.003 896.868 470.387C899.724 470.117 901.893 469.444 903.375 468.366C904.962 467.154 906.02 465.066 906.549 462.103C907.183 459.004 907.501 454.492 907.501 448.565V381.484C907.501 375.827 907.183 371.584 906.549 368.755C906.02 365.926 904.962 363.973 903.375 362.895C901.893 361.683 899.672 360.875 896.709 360.471C896.392 358.72 896.127 356.497 895.916 353.803C895.81 350.974 895.757 348.55 895.757 346.529C898.825 346.664 901.629 346.799 904.168 346.933C906.813 346.933 909.458 347.001 912.103 347.135C914.854 347.135 917.869 347.135 921.149 347.135C923.688 347.135 926.492 347.135 929.56 347.135C932.734 347.001 935.855 346.933 938.923 346.933C941.991 346.799 944.583 346.664 946.699 346.529C946.699 348.954 946.646 351.446 946.541 354.005C946.435 356.43 946.064 358.585 945.43 360.471C942.573 360.875 940.351 361.616 938.764 362.693C937.283 363.771 936.278 365.791 935.749 368.755C935.22 371.718 934.956 376.029 934.956 381.686V447.757C934.956 453.549 935.326 458.129 936.066 461.496C936.807 464.729 938.077 467.019 939.875 468.366C941.78 469.578 944.425 470.185 947.81 470.185H950.032Z" fill="#53402F"/>
<path d="M851.62 470.185C855.852 470.185 859.344 469.309 862.094 467.558C864.951 465.672 867.278 462.776 869.077 458.87C870.981 454.829 872.674 449.575 874.155 443.11C877.118 443.514 879.816 444.322 882.249 445.534C884.788 446.612 886.693 447.959 887.962 449.575C886.798 454.155 885.793 459.543 884.947 465.739C884.101 471.936 883.466 478.065 883.043 484.126C880.186 483.991 876.536 483.924 872.092 483.924C867.649 483.924 862.994 483.857 858.127 483.722C853.26 483.722 848.658 483.722 844.32 483.722C841.464 483.722 837.761 483.722 833.211 483.722C828.768 483.857 824.112 483.924 819.246 483.924C814.485 484.059 810.094 484.126 806.074 484.126C802.053 484.261 799.144 484.328 797.345 484.328C797.345 481.634 797.398 479.075 797.504 476.65C797.716 474.091 798.033 472.003 798.456 470.387C801.313 470.117 803.482 469.444 804.963 468.366C806.55 467.154 807.608 465.066 808.137 462.103C808.772 459.004 809.089 454.492 809.089 448.565V381.484C809.089 375.827 808.772 371.584 808.137 368.755C807.608 365.926 806.55 363.973 804.963 362.895C803.482 361.683 801.26 360.875 798.297 360.471C797.98 358.72 797.716 356.497 797.504 353.803C797.398 350.974 797.345 348.55 797.345 346.529C800.413 346.664 803.217 346.799 805.756 346.933C808.401 346.933 811.046 347.001 813.691 347.135C816.442 347.135 819.457 347.135 822.737 347.135C825.276 347.135 828.08 347.135 831.148 347.135C834.322 347.001 837.443 346.933 840.511 346.933C843.579 346.799 846.172 346.664 848.288 346.529C848.288 348.954 848.235 351.446 848.129 354.005C848.023 356.43 847.653 358.585 847.018 360.471C844.161 360.875 841.94 361.616 840.353 362.693C838.871 363.771 837.866 365.791 837.337 368.755C836.808 371.718 836.544 376.029 836.544 381.686V447.757C836.544 453.549 836.914 458.129 837.655 461.496C838.395 464.729 839.665 467.019 841.464 468.366C843.368 469.578 846.013 470.185 849.398 470.185H851.62Z" fill="#53402F"/>
<path d="M614.714 485.338C611.223 473.35 607.626 461.564 603.923 449.979C600.325 438.395 596.728 427.08 593.131 416.035C589.534 404.989 585.99 394.415 582.498 384.313C580.171 377.982 578.319 373.2 576.944 369.967C575.569 366.6 574.246 364.31 572.976 363.097C571.813 361.75 570.384 360.875 568.692 360.471C568.268 358.72 567.951 356.699 567.739 354.409C567.528 351.985 567.475 349.358 567.581 346.529C568.85 346.664 570.543 346.799 572.659 346.933C574.775 346.933 577.05 347.001 579.483 347.135C581.916 347.135 584.191 347.135 586.307 347.135C588.529 347.135 590.327 347.135 591.703 347.135C594.454 347.135 598.157 347.135 602.812 347.135C607.573 347.001 612.228 346.799 616.777 346.529C616.671 349.627 616.513 352.321 616.301 354.611C616.09 356.901 615.825 358.854 615.508 360.471C612.651 361.01 610.588 361.952 609.318 363.299C608.155 364.512 607.731 366.532 608.049 369.361C608.472 372.055 609.53 375.961 611.223 381.08C613.656 388.623 615.931 395.964 618.047 403.104C620.269 410.243 622.385 417.651 624.395 425.329C626.511 433.007 628.627 441.426 630.743 450.586H626.14C629.209 441.695 631.959 433.546 634.393 426.137C636.932 418.594 639.365 410.984 641.693 403.306C644.021 395.628 646.401 387.276 648.834 378.251C650.104 373.402 650.368 369.361 649.628 366.128C648.887 362.895 646.665 361.01 642.963 360.471C642.539 358.854 642.222 356.901 642.01 354.611C641.799 352.321 641.693 349.627 641.693 346.529C643.068 346.664 644.761 346.799 646.771 346.933C648.781 346.933 650.845 347.001 652.961 347.135C655.077 347.135 656.981 347.135 658.674 347.135C661.319 347.135 664.175 347.068 667.243 346.933C670.312 346.799 672.745 346.664 674.544 346.529C674.544 349.223 674.385 351.715 674.067 354.005C673.856 356.295 673.538 358.45 673.115 360.471C670.259 361.279 667.878 363.232 665.974 366.33C664.175 369.428 662.165 374.547 659.943 381.686C654.759 398.658 649.469 415.563 644.073 432.401C638.783 449.104 633.123 466.278 627.093 483.924C625.506 484.598 623.548 485.002 621.221 485.136C618.999 485.271 616.83 485.338 614.714 485.338Z" fill="#53402F"/>
<path d="M136.747 482.85H1442.03V797.327H171.528L136.747 482.85Z" fill="#AE8B6F"/>
<path d="M124.528 676.827C124.528 676.827 91.5298 694.813 66.0278 665.327C2.02775 591.327 -8.69631 419.827 26.5277 306.827C80.4087 133.974 215.028 77.1702 319.028 58.327C413.484 41.2131 526.028 71.327 598.528 127.327C664.527 178.306 742.028 333.827 742.028 333.827C742.028 333.827 824.705 217.79 1024.53 201.327C1200.53 186.827 1310.03 322.827 1310.03 322.827C1310.03 322.827 1363.88 176.859 1412.03 127.327C1465.11 72.7172 1565.03 43.327 1565.03 43.327" stroke="#35271E" stroke-width="5" stroke-linecap="round" stroke-dasharray="15 15"/>
<path d="M132.288 675.527C132.917 672.184 135.871 673.295 141.919 669.856C144.05 668.644 148.773 661.384 151.768 662.15C152.891 662.438 153.126 665.258 151.029 669.067C147.742 675.033 142.257 681.588 136.446 680.296C133.679 679.68 132.008 677.013 132.288 675.527Z" fill="#35271E"/>
<path d="M153.796 658.042C153.167 661.385 150.213 660.274 144.165 663.713C142.034 664.925 137.311 672.185 134.316 671.419C133.193 671.131 132.958 668.311 135.055 664.502C138.341 658.536 143.827 651.981 149.637 653.273C152.404 653.889 154.075 656.557 153.796 658.042Z" fill="#35271E"/>
</svg>
