<svg width="464" height="763" viewBox="0 0 464 763" fill="none" xmlns="http://www.w3.org/2000/svg">
<path d="M50.4823 127.233L436.177 147.353L343.938 758.503L76.6511 744.56L50.4823 127.233Z" fill="#53402F"/>
<rect width="426.3" height="108.392" transform="matrix(0.998642 0.0520954 -0.0508734 0.998705 33.3948 84.9824)" fill="#53402F"/>
<path d="M95.338 3.00546L403.289 19.0701L424.674 108.783L65.8437 90.0641L95.338 3.00546Z" fill="#53402F"/>
<path d="M58.7311 321.733L407.128 339.907L379.949 519.903L66.4335 503.548L58.7311 321.733Z" fill="#AE8B6F"/>
<path d="M232.493 335.752C281.365 338.301 318.935 379.143 316.502 426.89C314.07 474.637 272.549 511.353 223.678 508.804C174.807 506.254 137.237 465.413 139.669 417.666C142.101 369.918 183.622 333.202 232.493 335.752Z" fill="#53402F" stroke="#3F3328" stroke-width="4"/>
<path d="M291.3 411.984C290.442 411.595 289.665 410.946 288.971 410.035C288.307 409.14 287.773 408.057 287.37 406.785C286.837 405.105 286.667 403.527 286.858 402.051C287.057 400.598 287.643 399.327 288.616 398.238C289.596 397.171 291.013 396.36 292.864 395.802C294.253 395.384 295.681 395.29 297.149 395.52C298.616 395.75 299.946 396.345 301.138 397.305C302.337 398.287 303.224 399.687 303.8 401.504C304.211 402.798 304.436 403.95 304.477 404.957C304.548 405.981 304.47 406.937 304.245 407.826C303.554 407.885 302.85 407.985 302.134 408.126C301.425 408.289 300.619 408.507 299.717 408.779C299.395 408.403 299.097 407.945 298.825 407.405C298.583 406.881 298.382 406.369 298.224 405.869C299.552 405.42 300.483 404.878 301.018 404.245C301.575 403.604 301.746 402.943 301.53 402.262C301.249 401.376 300.513 400.852 299.32 400.688C298.157 400.54 296.754 400.714 295.111 401.209C294.162 401.494 293.283 401.921 292.474 402.488C291.695 403.07 291.12 403.778 290.751 404.611C290.404 405.437 290.4 406.383 290.738 407.451C290.969 408.178 291.27 408.808 291.642 409.343C292.038 409.871 292.478 410.298 292.962 410.625C292.825 410.915 292.605 411.18 292.301 411.421C292.027 411.678 291.694 411.865 291.3 411.984Z" fill="#E6D5C5"/>
<path d="M256.248 478.755C258.228 477.855 259.993 477.459 261.543 477.566C263.071 477.683 264.393 478.182 265.508 479.062C266.624 479.942 267.52 481.093 268.196 482.513C268.955 484.105 269.292 485.627 269.208 487.078C269.123 488.53 268.63 489.853 267.727 491.049C266.825 492.244 265.559 493.212 263.931 493.951C262.303 494.691 260.817 495 259.474 494.877C258.141 494.776 256.97 494.314 255.962 493.489C254.942 492.697 254.081 491.622 253.381 490.265C253.219 489.475 253.266 488.76 253.523 488.119C254.161 487.83 254.888 487.5 255.702 487.13C256.516 486.76 257.369 486.359 258.261 485.928C259.141 485.528 260.033 485.096 260.936 484.634C261.818 484.181 262.661 483.732 263.467 483.288L264.574 485.611L258.501 488.37C259.198 489.833 259.924 490.851 260.679 491.424C261.412 492.007 262.164 492.124 262.934 491.774C263.44 491.544 263.804 491.156 264.025 490.611C264.235 490.096 264.27 489.439 264.13 488.639C264 487.861 263.689 486.955 263.197 485.923C262.664 484.804 262.044 483.869 261.337 483.116C260.631 482.364 259.83 481.891 258.934 481.696C258.038 481.501 257.029 481.658 255.907 482.168C255.137 482.518 254.428 482.997 253.781 483.605C253.134 484.213 252.655 484.837 252.344 485.475C252.062 485.446 251.741 485.278 251.381 484.971C251.03 484.685 250.763 484.349 250.578 483.961C251.098 482.861 251.821 481.879 252.747 481.013C253.651 480.158 254.818 479.405 256.248 478.755Z" fill="#E6D5C5"/>
<path d="M291.74 468.618C291.326 468.376 290.914 468.107 290.504 467.812C290.115 467.529 289.834 467.253 289.66 466.985C290.022 466.389 290.317 465.811 290.546 465.249C290.796 464.7 291.002 464.083 291.165 463.4L293.929 465.016L291.74 468.618ZM297.916 460.671C299.572 461.64 300.739 462.768 301.416 464.054C302.114 465.353 302.385 466.708 302.229 468.119C302.094 469.542 301.602 470.951 300.754 472.347C300.242 473.188 299.663 473.934 299.015 474.585C298.355 475.256 297.759 475.728 297.228 476.002C296.69 475.548 296.034 475.081 295.26 474.6C294.486 474.119 293.807 473.736 293.223 473.45C293.302 472.996 293.504 472.433 293.829 471.76C294.141 471.108 294.457 470.542 294.777 470.061C295.771 470.642 296.651 470.949 297.418 470.98C298.205 471.023 298.761 470.778 299.085 470.244C299.298 469.895 299.348 469.535 299.237 469.164C299.126 468.793 298.801 468.381 298.263 467.927C297.746 467.485 296.949 466.95 295.872 466.32L284.756 459.818L287.825 454.768L297.916 460.671ZM296.492 460.798L293.729 459.182C294.331 458.699 294.835 458.215 295.242 457.73C295.65 457.245 295.965 456.818 296.19 456.448C296.583 456.678 296.958 456.939 297.314 457.231C297.657 457.543 297.92 457.849 298.102 458.151L296.492 460.798ZM285.657 460.344C284.767 459.824 284 459.515 283.358 459.417C282.736 459.332 282.164 459.442 281.641 459.748C281.127 460.087 280.595 460.639 280.047 461.403C279.694 461.336 279.315 461.198 278.91 460.988C278.512 460.811 278.127 460.614 277.754 460.396C278 460.039 278.307 459.579 278.677 459.016C279.027 458.441 279.405 457.842 279.812 457.218C280.199 456.581 280.579 455.955 280.954 455.34C281.565 454.334 282.195 453.297 282.843 452.23C283.471 451.151 283.958 450.281 284.303 449.62C284.8 449.911 285.208 450.163 285.527 450.378C285.866 450.604 286.135 450.831 286.334 451.058C286.038 451.637 285.886 452.118 285.877 452.502C285.876 452.919 286.066 453.322 286.447 453.712C286.827 454.101 287.462 454.556 288.353 455.077L290.06 456.076L286.992 461.125L285.657 460.344Z" fill="#E6D5C5"/>
<path d="M290.609 423.709C290.763 421.709 291.229 420.046 292.009 418.717C292.811 417.414 293.864 416.466 295.168 415.872C296.472 415.278 297.966 415.046 299.649 415.176C301.598 415.326 303.19 415.856 304.427 416.765C305.686 417.7 306.585 418.907 307.125 420.385C307.688 421.865 307.901 423.497 307.764 425.282C307.607 427.329 307.115 429.003 306.289 430.304C305.461 431.629 304.395 432.588 303.091 433.182C301.787 433.776 300.318 434.01 298.682 433.884C296.878 433.745 295.344 433.244 294.079 432.38C292.815 431.516 291.877 430.343 291.265 428.859C290.677 427.377 290.459 425.66 290.609 423.709ZM293.091 424.475C293.015 425.45 293.464 426.227 294.436 426.805C295.407 427.383 296.639 427.729 298.13 427.844C299.694 427.964 301.006 427.886 302.068 427.609C303.13 427.331 303.935 426.927 304.485 426.394C305.058 425.864 305.37 425.265 305.421 424.599C305.5 423.576 305.052 422.787 304.079 422.233C303.105 421.679 301.885 421.346 300.417 421.233C299.094 421.131 297.881 421.181 296.776 421.383C295.696 421.587 294.821 421.95 294.152 422.473C293.507 422.998 293.153 423.665 293.091 424.475Z" fill="#E6D5C5"/>
<path d="M301.355 451.749C300.894 451.611 300.428 451.447 299.958 451.256C299.512 451.072 299.171 450.87 298.937 450.65C299.142 449.987 299.287 449.355 299.372 448.756C299.48 448.164 299.529 447.516 299.52 446.814L302.597 447.737L301.355 451.749ZM305.402 442.581C307.246 443.134 308.654 443.956 309.626 445.048C310.621 446.146 311.216 447.398 311.41 448.806C311.627 450.22 311.495 451.705 311.013 453.259C310.723 454.197 310.343 455.057 309.874 455.841C309.398 456.648 308.935 457.246 308.487 457.636C307.854 457.322 307.103 457.022 306.234 456.736C305.365 456.45 304.613 456.237 303.976 456.096C303.942 455.636 304 455.042 304.151 454.312C304.294 453.605 304.462 452.981 304.655 452.439C305.761 452.771 306.69 452.862 307.442 452.713C308.216 452.571 308.696 452.202 308.88 451.608C309 451.219 308.961 450.857 308.762 450.523C308.563 450.188 308.148 449.864 307.515 449.549C306.905 449.241 306 448.907 304.802 448.548L292.424 444.836L294.166 439.212L305.402 442.581ZM304.052 443.038L300.974 442.116C301.44 441.506 301.811 440.917 302.088 440.351C302.364 439.784 302.566 439.295 302.693 438.883C303.131 439.014 303.558 439.18 303.975 439.38C304.385 439.603 304.715 439.839 304.965 440.089L304.052 443.038ZM293.427 445.137C292.436 444.839 291.617 444.719 290.97 444.775C290.346 444.837 289.818 445.079 289.385 445.499C288.969 445.949 288.588 446.609 288.243 447.48C287.885 447.498 287.483 447.452 287.038 447.344C286.609 447.265 286.187 447.163 285.772 447.039C285.923 446.634 286.109 446.115 286.33 445.482C286.528 444.842 286.749 444.171 286.991 443.469C287.21 442.76 287.426 442.063 287.639 441.377C287.986 440.257 288.343 439.102 288.711 437.913C289.056 436.717 289.315 435.758 289.489 435.035C290.042 435.201 290.499 435.351 290.861 435.484C291.246 435.625 291.562 435.782 291.81 435.957C291.665 436.588 291.636 437.091 291.721 437.466C291.822 437.872 292.105 438.219 292.57 438.508C293.034 438.797 293.762 439.091 294.753 439.388L296.655 439.958L294.914 445.583L293.427 445.137Z" fill="#E6D5C5"/>
<path d="M270.29 469.015C271.807 467.465 273.307 466.462 274.791 466.005C276.258 465.565 277.673 465.555 279.035 465.974C280.397 466.394 281.653 467.143 282.804 468.223C284.094 469.434 284.965 470.731 285.418 472.114C285.871 473.497 285.895 474.907 285.491 476.345C285.087 477.783 284.262 479.14 283.015 480.414C281.768 481.688 280.496 482.51 279.199 482.878C277.92 483.263 276.659 483.252 275.418 482.847C274.176 482.474 272.981 481.782 271.832 480.769C271.391 480.092 271.174 479.408 271.179 478.719C271.667 478.22 272.223 477.652 272.847 477.015C273.47 476.377 274.119 475.698 274.792 474.975C275.466 474.286 276.14 473.564 276.812 472.808C277.468 472.069 278.09 471.348 278.678 470.645L280.561 472.412L275.911 477.165C277.096 478.277 278.145 478.965 279.059 479.228C279.956 479.508 280.699 479.346 281.288 478.744C281.676 478.348 281.873 477.855 281.88 477.267C281.888 476.713 281.68 476.088 281.256 475.393C280.85 474.714 280.228 473.982 279.392 473.197C278.485 472.346 277.565 471.697 276.631 471.25C275.697 470.803 274.777 470.65 273.871 470.79C272.964 470.93 272.081 471.44 271.222 472.318C270.632 472.921 270.147 473.622 269.767 474.421C269.386 475.22 269.168 475.973 269.111 476.68C268.838 476.754 268.477 476.712 268.029 476.556C267.598 476.415 267.225 476.198 266.911 475.903C266.993 474.692 267.307 473.516 267.853 472.377C268.383 471.255 269.195 470.134 270.29 469.015Z" fill="#E6D5C5"/>
<path d="M192.085 374.476C192.061 375.4 191.76 376.352 191.181 377.332C190.605 378.278 189.8 379.18 188.766 380.038C187.4 381.172 185.987 381.939 184.526 382.34C183.084 382.726 181.658 382.692 180.25 382.239C178.86 381.77 177.536 380.809 176.278 379.357C175.334 378.268 174.679 377.018 174.313 375.606C173.946 374.194 173.977 372.765 174.405 371.318C174.851 369.855 175.813 368.511 177.289 367.286C178.341 366.413 179.332 365.762 180.262 365.334C181.194 364.872 182.122 364.57 183.046 364.427C183.375 365.027 183.748 365.622 184.165 366.213C184.6 366.788 185.124 367.43 185.737 368.137C185.512 368.574 185.2 369.019 184.802 369.475C184.406 369.897 184.005 370.277 183.599 370.614C182.65 369.592 181.772 368.963 180.966 368.728C180.143 368.474 179.455 368.577 178.901 369.037C178.181 369.634 177.982 370.502 178.302 371.64C178.624 372.745 179.344 373.942 180.461 375.231C181.105 375.975 181.854 376.601 182.707 377.11C183.563 377.585 184.456 377.828 185.384 377.837C186.297 377.829 187.187 377.464 188.054 376.744C188.645 376.254 189.117 375.737 189.471 375.194C189.81 374.632 190.036 374.07 190.151 373.507C190.477 373.517 190.813 373.612 191.16 373.792C191.509 373.939 191.818 374.167 192.085 374.476Z" fill="#E6D5C5"/>
<path d="M269.483 379.663C267.86 378.236 266.795 376.804 266.287 375.368C265.798 373.947 265.748 372.562 266.138 371.213C266.528 369.863 267.258 368.605 268.328 367.438C269.527 366.129 270.826 365.227 272.224 364.732C273.622 364.238 275.06 364.161 276.538 364.503C278.016 364.844 279.422 365.602 280.756 366.776C282.091 367.949 282.964 369.164 283.376 370.421C283.804 371.659 283.828 372.894 283.449 374.125C283.104 375.355 282.43 376.551 281.429 377.715C280.75 378.171 280.059 378.41 279.357 378.431C278.834 377.971 278.239 377.447 277.571 376.861C276.904 376.274 276.193 375.664 275.437 375.032C274.716 374.397 273.96 373.765 273.171 373.134C272.399 372.519 271.646 371.937 270.912 371.387L272.662 369.477L277.639 373.855C278.741 372.652 279.414 371.599 279.656 370.694C279.917 369.806 279.732 369.084 279.101 368.529C278.686 368.164 278.178 367.989 277.578 368.005C277.013 368.018 276.381 368.245 275.684 368.686C275.003 369.109 274.274 369.745 273.496 370.594C272.653 371.513 272.017 372.439 271.587 373.37C271.157 374.301 271.026 375.208 271.194 376.09C271.362 376.973 271.906 377.818 272.826 378.627C273.457 379.182 274.186 379.631 275.011 379.974C275.837 380.317 276.611 380.503 277.334 380.532C277.417 380.796 277.384 381.151 277.237 381.596C277.106 382.024 276.894 382.397 276.603 382.715C275.365 382.68 274.157 382.416 272.98 381.924C271.821 381.448 270.655 380.694 269.483 379.663Z" fill="#E6D5C5"/>
<path d="M244.802 352.25C244.738 352.726 244.648 353.21 244.532 353.703C244.42 354.172 244.273 354.54 244.092 354.806C243.402 354.714 242.753 354.676 242.145 354.692C241.541 354.683 240.891 354.742 240.196 354.867L240.627 351.692L244.802 352.25ZM235.072 349.788C235.331 347.886 235.925 346.367 236.854 345.233C237.787 344.074 238.936 343.283 240.301 342.86C241.67 342.414 243.163 342.299 244.781 342.515C245.757 342.645 246.67 342.876 247.521 343.208C248.396 343.542 249.062 343.898 249.52 344.274C249.307 344.947 249.128 345.734 248.981 346.635C248.834 347.535 248.741 348.31 248.702 348.958C248.251 349.067 247.652 349.108 246.905 349.081C246.181 349.057 245.535 348.995 244.968 348.895C245.123 347.754 245.067 346.826 244.801 346.113C244.538 345.375 244.097 344.965 243.478 344.883C243.074 344.829 242.721 344.927 242.421 345.177C242.12 345.428 241.864 345.89 241.651 346.563C241.442 347.213 241.253 348.157 241.085 349.393L239.349 362.162L233.497 361.38L235.072 349.788ZM235.738 351.039L235.307 354.214C234.628 353.857 233.986 353.589 233.381 353.412C232.775 353.234 232.258 353.116 231.83 353.059C231.891 352.607 231.989 352.16 232.121 351.718C232.278 351.279 232.46 350.916 232.669 350.629L235.738 351.039ZM239.49 361.128C239.351 362.15 239.36 362.975 239.517 363.601C239.677 364.204 240 364.682 240.485 365.038C240.996 365.372 241.711 365.637 242.629 365.833C242.703 366.181 242.721 366.583 242.683 367.038C242.673 367.473 242.638 367.904 242.58 368.332C242.155 368.251 241.611 368.154 240.948 368.041C240.282 367.952 239.582 367.847 238.848 367.724C238.11 367.626 237.385 367.529 236.671 367.433C235.505 367.278 234.304 367.117 233.067 366.952C231.826 366.81 230.834 366.714 230.09 366.663C230.168 366.092 230.244 365.618 230.32 365.241C230.398 364.84 230.505 364.503 230.639 364.231C231.287 364.269 231.791 364.215 232.15 364.069C232.536 363.903 232.836 363.568 233.05 363.064C233.264 362.56 233.44 361.797 233.579 360.774L233.846 358.812L239.698 359.594L239.49 361.128Z" fill="#E6D5C5"/>
<path d="M203.377 370.955C201.464 371.587 199.736 371.804 198.194 371.606C196.667 371.377 195.368 370.783 194.298 369.822C193.227 368.861 192.416 367.586 191.864 365.999C191.225 364.162 191.08 362.503 191.429 361.022C191.792 359.512 192.551 358.224 193.705 357.16C194.851 356.074 196.278 355.248 197.986 354.683C199.945 354.036 201.692 353.838 203.227 354.089C204.785 354.333 206.099 354.935 207.17 355.896C208.24 356.857 209.044 358.109 209.58 359.651C210.171 361.352 210.319 362.947 210.024 364.435C209.729 365.923 209.016 367.233 207.886 368.365C206.748 369.474 205.245 370.338 203.377 370.955ZM203.096 368.393C204.03 368.084 204.57 367.375 204.717 366.264C204.865 365.154 204.694 363.895 204.205 362.489C203.692 361.015 203.096 359.847 202.415 358.985C201.734 358.122 201.038 357.544 200.325 357.248C199.605 356.93 198.926 356.876 198.289 357.087C197.309 357.41 196.757 358.124 196.633 359.227C196.508 360.33 196.687 361.573 197.168 362.957C197.601 364.204 198.132 365.293 198.76 366.223C199.381 367.13 200.067 367.789 200.818 368.198C201.562 368.584 202.321 368.649 203.096 368.393Z" fill="#E6D5C5"/>
<path d="M225.238 350.212C225.292 350.689 225.323 351.18 225.332 351.686C225.337 352.168 225.285 352.56 225.174 352.861C224.482 352.933 223.843 353.048 223.257 353.206C222.668 353.34 222.052 353.549 221.408 353.834L221.05 350.649L225.238 350.212ZM215.194 350.102C214.979 348.194 215.184 346.58 215.809 345.259C216.43 343.915 217.352 342.878 218.574 342.147C219.793 341.392 221.214 340.93 222.837 340.76C223.815 340.658 224.758 340.668 225.665 340.791C226.596 340.911 227.33 341.1 227.866 341.357C227.824 342.062 227.842 342.868 227.92 343.777C227.998 344.686 228.097 345.46 228.217 346.099C227.806 346.311 227.235 346.491 226.503 346.64C225.795 346.787 225.154 346.878 224.578 346.914C224.45 345.769 224.169 344.881 223.736 344.25C223.3 343.596 222.772 343.301 222.151 343.366C221.746 343.408 221.428 343.586 221.197 343.9C220.967 344.214 220.831 344.723 220.789 345.427C220.745 346.107 220.793 347.068 220.932 348.308L222.371 361.118L216.5 361.731L215.194 350.102ZM216.146 351.161L216.503 354.346C215.758 354.158 215.07 354.049 214.438 354.019C213.807 353.988 213.277 353.995 212.847 354.04C212.796 353.587 212.781 353.13 212.802 352.669C212.846 352.206 212.935 351.81 213.067 351.483L216.146 351.161ZM222.254 360.081C222.37 361.106 222.58 361.905 222.886 362.476C223.189 363.024 223.619 363.413 224.176 363.645C224.754 363.85 225.513 363.94 226.452 363.914C226.609 364.235 226.724 364.622 226.799 365.072C226.895 365.497 226.967 365.924 227.016 366.353C226.583 366.374 226.032 366.407 225.361 366.453C224.693 366.523 223.987 366.585 223.245 366.638C222.505 366.716 221.777 366.792 221.061 366.866C219.892 366.988 218.686 367.114 217.445 367.244C216.207 367.397 215.221 367.537 214.486 367.662C214.422 367.089 214.38 366.611 214.361 366.227C214.339 365.819 214.36 365.466 214.424 365.17C215.063 365.055 215.538 364.885 215.851 364.659C216.185 364.407 216.394 364.011 216.478 363.471C216.562 362.932 216.547 362.149 216.432 361.123L216.211 359.155L222.082 358.542L222.254 360.081Z" fill="#E6D5C5"/>
<path d="M253.633 371.547C251.607 370.796 250.096 369.84 249.102 368.678C248.13 367.525 247.579 366.246 247.449 364.842C247.318 363.438 247.537 361.997 248.104 360.518C248.739 358.861 249.615 357.548 250.732 356.58C251.849 355.612 253.155 355.022 254.651 354.809C256.147 354.595 257.728 354.797 259.393 355.415C261.059 356.032 262.312 356.854 263.153 357.882C264.001 358.887 264.474 360.034 264.571 361.324C264.699 362.599 264.511 363.962 264.006 365.413C263.543 366.085 262.989 366.558 262.344 366.831C261.691 366.589 260.948 366.314 260.115 366.005C259.282 365.696 258.4 365.382 257.468 365.063C256.568 364.729 255.636 364.409 254.674 364.104C253.733 363.807 252.823 363.533 251.941 363.283L252.869 360.864L259.083 363.166C259.667 361.643 259.906 360.414 259.802 359.48C259.72 358.554 259.285 357.945 258.497 357.653C257.979 357.462 257.444 357.481 256.893 357.712C256.373 357.928 255.87 358.369 255.384 359.033C254.906 359.675 254.461 360.533 254.049 361.608C253.603 362.773 253.35 363.869 253.29 364.896C253.231 365.923 253.44 366.819 253.918 367.585C254.395 368.35 255.208 368.945 256.357 369.371C257.145 369.663 257.984 369.82 258.875 369.843C259.766 369.867 260.552 369.761 261.233 369.527C261.407 369.745 261.506 370.089 261.532 370.559C261.566 371.007 261.506 371.432 261.351 371.835C260.19 372.249 258.973 372.438 257.701 372.402C256.452 372.374 255.096 372.089 253.633 371.547Z" fill="#E6D5C5"/>
<path d="M199.236 478.484C200.051 478.08 201.025 477.91 202.159 477.975C203.262 478.053 204.439 478.355 205.689 478.881C207.341 479.576 208.698 480.482 209.761 481.599C210.801 482.706 211.468 483.992 211.762 485.455C212.034 486.91 211.846 488.531 211.2 490.32C210.715 491.662 209.949 492.821 208.902 493.797C207.855 494.774 206.598 495.404 205.132 495.689C203.644 495.965 202.006 495.727 200.221 494.975C198.948 494.44 197.899 493.856 197.072 493.225C196.216 492.607 195.5 491.919 194.925 491.162C195.285 490.592 195.62 489.986 195.929 489.343C196.216 488.691 196.517 487.929 196.832 487.057C197.321 487.056 197.861 487.129 198.451 487.274C199.011 487.433 199.537 487.615 200.028 487.822C199.604 489.138 199.487 490.209 199.677 491.036C199.858 491.886 200.284 492.451 200.954 492.733C201.824 493.099 202.676 492.878 203.508 492.069C204.31 491.273 204.998 490.081 205.572 488.493C205.903 487.576 206.081 486.621 206.106 485.626C206.101 484.645 205.876 483.739 205.43 482.907C204.977 482.098 204.225 481.473 203.176 481.031C202.462 480.731 201.782 480.548 201.137 480.482C200.484 480.439 199.885 480.496 199.339 480.653C199.189 480.358 199.107 480.014 199.094 479.623C199.051 479.244 199.098 478.864 199.236 478.484Z" fill="#E6D5C5"/>
<path d="M170.174 410.514C169.73 412.608 169.007 414.209 168.006 415.316C167.01 416.4 165.828 417.076 164.461 417.346C163.094 417.615 161.639 417.541 160.097 417.123C158.367 416.655 156.943 415.912 155.824 414.895C154.705 413.879 153.931 412.635 153.501 411.165C153.071 409.696 153.039 408.1 153.405 406.378C153.77 404.656 154.399 403.325 155.29 402.385C156.158 401.439 157.222 400.853 158.481 400.628C159.721 400.374 161.094 400.426 162.6 400.784C163.332 401.179 163.879 401.685 164.243 402.3C164.1 402.975 163.937 403.743 163.754 404.604C163.572 405.465 163.391 406.375 163.212 407.336C163.014 408.267 162.835 409.227 162.674 410.217C162.519 411.184 162.382 412.119 162.264 413.022L159.74 412.339L161.103 405.916C159.514 405.485 158.266 405.369 157.359 405.566C156.457 405.74 155.919 406.234 155.746 407.049C155.633 407.584 155.73 408.115 156.039 408.641C156.329 409.138 156.837 409.596 157.564 410.014C158.267 410.426 159.18 410.784 160.302 411.088C161.517 411.417 162.636 411.56 163.659 411.518C164.681 411.475 165.535 411.177 166.221 410.624C166.907 410.072 167.376 409.202 167.627 408.015C167.8 407.201 167.833 406.348 167.725 405.458C167.618 404.567 167.399 403.794 167.068 403.139C167.258 402.944 167.583 402.811 168.043 402.738C168.48 402.66 168.908 402.678 169.329 402.792C169.908 403.908 170.272 405.102 170.423 406.373C170.578 407.621 170.495 409.001 170.174 410.514Z" fill="#E6D5C5"/>
<path d="M156.295 443.511C156.746 443.348 157.218 443.203 157.71 443.076C158.18 442.957 158.576 442.916 158.9 442.952C159.154 443.599 159.435 444.185 159.745 444.711C160.031 445.244 160.399 445.787 160.847 446.338L157.831 447.429L156.295 443.511ZM158.848 453.179C157.04 453.832 155.409 454.014 153.954 453.725C152.476 453.444 151.219 452.802 150.181 451.801C149.121 450.808 148.293 449.553 147.698 448.035C147.339 447.12 147.099 446.212 146.978 445.313C146.849 444.391 146.839 443.643 146.949 443.068C147.648 442.942 148.431 442.736 149.299 442.447C150.166 442.159 150.896 441.883 151.488 441.617C151.804 441.962 152.132 442.468 152.471 443.135C152.801 443.781 153.06 444.375 153.248 444.919C152.163 445.311 151.37 445.789 150.869 446.353C150.345 446.925 150.197 447.501 150.425 448.081C150.573 448.461 150.832 448.724 151.199 448.871C151.566 449.019 152.1 449.03 152.799 448.905C153.475 448.788 154.401 448.517 155.576 448.092L167.709 443.704L169.863 449.195L158.848 453.179ZM159.63 452.016L162.647 450.925C162.661 451.685 162.736 452.371 162.874 452.984C163.011 453.597 163.158 454.105 163.316 454.507C162.887 454.662 162.444 454.784 161.989 454.872C161.524 454.938 161.115 454.946 160.76 454.896L159.63 452.016ZM166.726 444.059C167.697 443.708 168.422 443.319 168.899 442.891C169.354 442.472 169.62 441.968 169.699 441.379C169.746 440.775 169.633 440.026 169.359 439.131C169.632 438.905 169.978 438.703 170.399 438.526C170.788 438.334 171.186 438.165 171.593 438.018C171.728 438.427 171.906 438.949 172.129 439.582C172.374 440.207 172.621 440.87 172.87 441.57C173.141 442.262 173.408 442.943 173.671 443.613C174.1 444.706 174.542 445.834 174.997 446.994C175.475 448.147 175.873 449.061 176.189 449.737C175.647 449.933 175.191 450.085 174.82 450.193C174.428 450.31 174.078 450.373 173.772 450.381C173.49 449.795 173.198 449.378 172.895 449.131C172.56 448.87 172.118 448.762 171.568 448.808C171.018 448.854 170.258 449.052 169.286 449.404L167.422 450.078L165.269 444.586L166.726 444.059Z" fill="#E6D5C5"/>
<path d="M191.823 470.243C193.293 471.641 194.311 473.07 194.877 474.53C195.41 475.99 195.513 477.421 195.187 478.821C194.861 480.221 194.137 481.538 193.015 482.773C191.717 484.202 190.338 485.109 188.877 485.496C187.383 485.883 185.895 485.816 184.412 485.293C182.913 484.788 181.507 483.911 180.195 482.663C178.69 481.231 177.679 479.776 177.162 478.298C176.628 476.803 176.524 475.356 176.85 473.955C177.176 472.555 177.884 471.256 178.974 470.056C180.176 468.733 181.498 467.853 182.939 467.416C184.381 466.978 185.867 466.994 187.398 467.464C188.913 467.951 190.388 468.878 191.823 470.243ZM189.72 471.695C189.002 471.013 188.123 470.867 187.082 471.258C186.042 471.65 185.024 472.392 184.031 473.486C182.989 474.632 182.255 475.71 181.828 476.718C181.401 477.726 181.23 478.615 181.313 479.385C181.38 480.173 181.659 480.8 182.149 481.266C182.902 481.982 183.79 482.136 184.813 481.728C185.836 481.32 186.836 480.578 187.814 479.502C188.696 478.532 189.392 477.55 189.903 476.556C190.399 475.581 190.645 474.663 190.641 473.805C190.622 472.965 190.315 472.261 189.72 471.695Z" fill="#E6D5C5"/>
<path d="M163.704 461.152C164.098 460.881 164.516 460.623 164.957 460.378C165.379 460.147 165.749 460.01 166.067 459.966C166.463 460.541 166.871 461.05 167.291 461.491C167.692 461.946 168.172 462.39 168.732 462.824L166.1 464.632L163.704 461.152ZM168.432 470.042C166.855 471.125 165.335 471.702 163.874 471.772C162.392 471.855 161.036 471.531 159.806 470.799C158.556 470.08 157.467 469.046 156.538 467.698C155.979 466.885 155.535 466.051 155.207 465.195C154.865 464.319 154.679 463.585 154.649 462.993C155.289 462.699 155.99 462.305 156.753 461.81C157.515 461.315 158.149 460.865 158.654 460.459C159.037 460.722 159.471 461.14 159.953 461.714C160.422 462.268 160.81 462.79 161.118 463.28C160.172 463.93 159.526 464.593 159.179 465.27C158.812 465.96 158.806 466.563 159.161 467.079C159.393 467.416 159.703 467.612 160.089 467.668C160.476 467.723 160.989 467.604 161.629 467.311C162.249 467.031 163.072 466.538 164.097 465.834L174.681 458.56L178.04 463.438L168.432 470.042ZM168.907 468.707L171.538 466.899C171.731 467.643 171.965 468.3 172.241 468.87C172.518 469.439 172.779 469.903 173.024 470.26C172.65 470.517 172.255 470.745 171.839 470.943C171.41 471.121 171.02 471.228 170.668 471.266L168.907 468.707ZM173.824 459.149C174.671 458.567 175.273 458.007 175.629 457.47C175.966 456.947 176.102 456.385 176.038 455.787C175.941 455.181 175.655 454.472 175.182 453.658C175.39 453.369 175.674 453.086 176.035 452.809C176.362 452.525 176.703 452.262 177.058 452.018C177.284 452.388 177.578 452.858 177.941 453.427C178.323 453.982 178.716 454.574 179.12 455.202C179.543 455.817 179.96 456.422 180.37 457.017C181.039 457.988 181.728 458.99 182.438 460.021C183.168 461.039 183.764 461.841 184.227 462.429C183.754 462.754 183.353 463.015 183.024 463.212C182.675 463.422 182.355 463.569 182.064 463.653C181.656 463.144 181.278 462.805 180.929 462.636C180.547 462.461 180.098 462.462 179.582 462.641C179.067 462.82 178.385 463.201 177.538 463.784L175.911 464.901L172.552 460.023L173.824 459.149Z" fill="#E6D5C5"/>
<path d="M169.116 427.428C169.451 429.551 169.352 431.315 168.817 432.719C168.279 434.1 167.423 435.168 166.249 435.923C165.075 436.678 163.697 437.144 162.115 437.321C160.341 437.519 158.752 437.348 157.35 436.808C155.947 436.268 154.784 435.389 153.859 434.172C152.935 432.954 152.335 431.473 152.06 429.727C151.784 427.981 151.892 426.504 152.385 425.296C152.853 424.092 153.632 423.152 154.721 422.478C155.782 421.784 157.076 421.327 158.603 421.109C159.424 421.209 160.114 421.481 160.671 421.923C160.779 422.607 160.902 423.386 161.04 424.259C161.178 425.132 161.335 426.051 161.512 427.015C161.661 427.959 161.838 428.924 162.042 429.909C162.243 430.872 162.45 431.797 162.664 432.685L160.075 432.974L159.046 426.462C157.416 426.644 156.215 426.994 155.443 427.512C154.667 428.007 154.344 428.667 154.475 429.493C154.56 430.036 154.84 430.497 155.315 430.876C155.762 431.234 156.398 431.476 157.223 431.6C158.023 431.726 158.999 431.726 160.15 431.597C161.396 431.458 162.487 431.18 163.422 430.764C164.356 430.348 165.043 429.755 165.483 428.985C165.922 428.216 166.047 427.23 165.857 426.026C165.727 425.2 165.452 424.391 165.034 423.597C164.616 422.803 164.137 422.16 163.595 421.669C163.702 421.417 163.956 421.172 164.358 420.935C164.736 420.701 165.14 420.56 165.572 420.512C166.508 421.344 167.273 422.327 167.867 423.461C168.457 424.572 168.874 425.894 169.116 427.428Z" fill="#E6D5C5"/>
<ellipse cx="62.0826" cy="60.7805" rx="62.0826" ry="60.7805" transform="matrix(0.998642 0.0520954 -0.0508734 0.998705 170.6 360.952)" fill="#F8F4F1"/>
<path d="M256.005 418.708L278.55 419.885C278.55 419.885 283.381 420.137 283.06 426.443C282.739 432.75 277.907 432.498 277.907 432.498L255.363 431.322L256.005 418.708Z" fill="#DBD0C7"/>
<path d="M230.226 390.423C249.097 391.408 263.597 407.177 262.659 425.603C261.72 444.029 245.695 458.206 226.823 457.221C207.952 456.237 193.453 440.467 194.391 422.042C195.33 403.616 211.354 389.439 230.226 390.423Z" fill="#F3EFEC" stroke="#DBD0C7" stroke-width="2"/>
<ellipse cx="28.9719" cy="28.3642" rx="28.9719" ry="28.3642" transform="matrix(0.998642 0.0520954 -0.0508734 0.998705 201.035 393.985)" fill="#AE8B6F"/>
</svg>
