<svg width="340" height="381" viewBox="0 0 340 381" fill="none" xmlns="http://www.w3.org/2000/svg">
<ellipse cx="119.5" cy="163.5" rx="111.5" ry="107.5" fill="#76B973"/>
<path d="M208.625 357.551C207.998 352.116 207.558 346.408 207.304 340.429C207.05 334.45 207.369 329.656 208.261 326.048C220.683 324.114 228.704 319.934 232.323 313.508C236.315 306.539 237.029 291.936 234.463 269.7L206.926 31.0344L211.475 47.7841C204.362 46.6019 197.334 46.161 190.392 46.4613C183.393 46.2674 176.881 46.518 170.857 47.2131C145.898 50.0928 128.939 58.058 119.98 71.1088C110.963 83.6654 107.624 100.073 109.961 120.333C112.812 145.039 122.322 163.219 138.493 174.873C155.036 185.982 176.218 190.048 202.037 187.069C206.34 186.572 209.969 185.903 212.924 185.061C216.31 184.17 220.126 183.229 224.372 182.239L227.194 206.698L172.328 213.028C150.641 214.028 130.52 211.593 111.965 205.723C93.4094 199.852 78.1697 190.595 66.2457 177.951C54.695 164.763 47.8364 148.781 45.6699 130.004C43.7885 113.697 46.0522 97.4136 52.4609 81.1522C59.2999 64.8411 72.0752 50.8494 90.7867 39.177C109.441 27.0105 135.336 19.0158 168.47 15.1927C177.077 14.1997 187.003 13.3048 198.248 12.5081C209.493 11.7113 222.001 10.5185 235.772 8.92974C245.669 7.78779 257.288 6.44725 270.627 4.90811C283.91 2.87484 293.751 1.23877 300.149 -9.92817e-05C300.434 2.47055 300.589 5.70721 300.615 9.7099C301.014 13.1688 301.226 16.8996 301.252 20.9024C301.651 24.3613 301.591 27.6228 301.073 30.6868C291.663 32.2733 284.547 34.8468 279.725 38.4074C274.903 41.9679 271.816 47.3313 270.462 54.4973C269.052 61.1693 269.116 71.176 270.656 84.5176L291.522 265.37C293.86 285.629 297.766 298.697 303.24 304.575C309.088 309.909 319.17 312.251 333.484 311.6C336.061 318.814 338.119 329.091 339.658 342.433C330.995 342.932 320.395 343.654 307.858 344.6C295.809 345.99 286.127 347.107 278.812 347.951C273.218 348.596 266.332 349.391 258.156 350.334C249.98 351.277 241.374 352.27 232.337 353.313C223.788 354.8 215.884 356.213 208.625 357.551ZM121.828 370.57C112.62 370.13 103.899 370.135 95.6662 370.584C87.4331 371.033 78.9849 371.507 70.3215 372.006C62.1454 372.95 53.1086 373.992 43.2113 375.134C42.0085 372.269 40.7488 368.909 39.4321 365.055C38.5457 361.152 37.6878 357.496 36.8584 354.086C36.4023 350.133 36.0887 347.416 35.9176 345.933C49.9472 342.812 60.0625 337.89 66.2634 331.166C72.8377 323.898 77.1749 316.137 79.2749 307.884C81.318 299.136 83.2314 291.154 85.0151 283.939C87.3175 273.659 91.3696 263.427 97.1715 253.245C103.347 242.518 111.873 233.272 122.751 225.508C134.001 217.2 148.448 212.028 166.091 209.993L226.767 202.992L228.306 216.334C202.917 219.263 184.382 224.906 172.701 233.264C160.963 241.128 153.167 251.04 149.315 263.001C145.893 274.912 143.474 287.959 142.058 302.142C140.237 320.378 138.334 334.116 136.348 343.358C134.305 352.106 129.465 361.177 121.828 370.57Z" fill="#8D6A4E"/>
<ellipse cx="119.5" cy="163.5" rx="111.5" ry="107.5" fill="#9AD097" fill-opacity="0.3"/>
</svg>
