<svg width="354" height="392" viewBox="0 0 354 392" fill="none" xmlns="http://www.w3.org/2000/svg">
<ellipse cx="75.5" cy="74.5" rx="75.5" ry="74.5" fill="#76B973"/>
<ellipse cx="252.5" cy="317.5" rx="75.5" ry="74.5" fill="#76B973"/>
<path d="M221.787 371.135C216.548 368.059 212.567 363.249 209.845 356.705C207.627 350.228 207.39 340.449 209.135 327.369C209.696 323.164 210.603 318.293 211.855 312.754C213.17 306.749 214.896 301.511 217.033 297.041L218.547 297.243C216.036 304.516 211.413 312.22 204.678 320.355C198.51 328.091 190.7 334.657 181.249 340.052C171.735 345.915 160.107 350.308 146.363 353.229C132.682 355.683 116.505 355.665 97.8339 353.174C66.0419 348.933 42.6918 339.162 27.7838 323.86C12.938 308.091 7.04191 288.761 10.0955 265.87C12.5258 247.651 19.124 232.841 29.89 221.439C41.223 209.638 54.7675 200.509 70.5236 194.052C86.8467 187.196 103.93 182.343 121.773 179.493C140.121 176.71 157.808 175.028 174.835 174.447C191.862 173.865 206.808 173.482 219.673 173.296C222.228 154.142 223.717 139.126 224.141 128.247C225.07 117.435 224.678 108.824 222.965 102.415C221.819 95.6051 219.286 89.5617 215.368 84.2843C210.247 76.4691 203.867 70.388 196.23 66.0408C189.159 61.2938 180.829 58.2808 171.241 57.0018C154.588 54.7803 140.813 57.9352 129.916 66.4665C119.082 74.5306 110.805 84.6 105.085 96.6747C99.3657 108.749 95.5992 119.658 93.786 129.401C88.235 128.661 81.2012 127.485 72.6848 125.873C64.7352 123.862 58.8666 121.652 55.0788 119.245C57.646 107.701 59.6432 94.6543 61.0704 80.1051C62.4976 65.556 62.6351 52.9744 61.4829 42.3604C83.4816 35.3101 106.209 30.4966 129.665 27.92C153.626 25.4107 175.195 25.4351 194.371 27.9931C213.043 30.4838 228.596 35.1737 241.031 42.0626C254.033 48.5518 264.041 56.3057 271.056 65.3244C282.619 78.7535 289.141 95.3141 290.623 115.006C292.167 134.231 290.852 159.493 286.677 190.792L276.394 267.873C274.649 280.954 274.257 291.599 275.216 299.81C276.742 307.621 280.536 313.833 286.597 318.445C292.721 322.591 302.534 326.039 316.034 328.791C315.411 333.463 314.442 338.801 313.127 344.807C311.875 350.346 309.897 355.55 307.193 360.419C294.514 359.203 280.073 359.654 263.869 361.772C248.231 363.489 234.204 366.611 221.787 371.135ZM124.17 317.461C135.272 318.942 147.062 317.186 159.541 312.195C172.083 306.735 183.104 297.27 192.605 283.798C202.611 270.393 209.172 252.012 212.288 228.654L215.84 202.026C203.037 201.745 189.384 202.063 174.88 202.981C160.439 203.432 146.82 205.419 134.023 208.942C121.227 212.465 110.42 218.393 101.604 226.727C92.8508 234.593 87.4458 246.234 85.3894 261.65C83.0836 278.935 85.9428 292.154 93.9668 301.308C101.991 310.461 112.058 315.845 124.17 317.461Z" fill="#8D6A4E"/>
<ellipse cx="75.5" cy="74.5" rx="75.5" ry="74.5" fill="#9AD097" fill-opacity="0.3"/>
<ellipse cx="252.5" cy="317.5" rx="75.5" ry="74.5" fill="#9AD097" fill-opacity="0.3"/>
</svg>
