<svg width="513" height="499" viewBox="0 0 513 499" fill="none" xmlns="http://www.w3.org/2000/svg">
<path d="M506.162 496.307C506.162 496.307 496.662 310.807 401.162 310.807C305.662 310.807 308.162 403.807 176.162 403.807C21.5983 403.807 -43.838 252.307 41.6623 117.807C63.9748 82.7069 125.162 39.307 125.162 39.307" stroke="#35271E" stroke-width="5" stroke-linecap="round" stroke-dasharray="15 15"/>
<path d="M131.317 36.5198C132.641 31.7547 136.855 33.1816 146.166 28.0102C149.446 26.1882 157.263 15.672 161.577 16.6089C163.196 16.9602 163.205 20.9433 159.663 26.4405C154.115 35.0533 145.26 44.6086 136.866 43.0668C132.868 42.3325 130.728 38.6376 131.317 36.5198Z" fill="#35271E"/>
<path d="M164.907 10.6948C163.582 15.4599 159.369 14.033 150.058 19.2044C146.777 21.0264 138.961 31.5426 134.646 30.6057C133.028 30.2544 133.019 26.2713 136.56 20.7741C142.108 12.1613 150.963 2.60595 159.358 4.14784C163.355 4.88207 165.495 8.57703 164.907 10.6948Z" fill="#35271E"/>
</svg>
