<svg width="164" height="178" viewBox="0 0 164 178" fill="none" xmlns="http://www.w3.org/2000/svg">
<path d="M119.406 166.504L116.456 177.185L127.825 175.164L121.375 166.154L119.406 166.504ZM109.163 103.174L108.179 103.349L119.581 167.488L120.565 167.313L121.55 167.138L110.148 102.999L109.163 103.174Z" fill="#34261D"/>
<path d="M55.5067 166.13L49.4413 175.404L60.885 176.945L57.4888 166.397L55.5067 166.13ZM64.1856 109.174L63.1945 109.041L55.3732 167.121L56.3642 167.255L57.3553 167.388L65.1766 109.308L64.1856 109.174Z" fill="#34261D"/>
<path d="M154.605 112.784L163.349 119.591L153.022 124.758L152.816 113.679L154.605 112.784ZM131.163 68.1743L132.057 67.7268L155.052 113.678L154.158 114.126L153.264 114.573L130.269 68.6219L131.163 68.1743Z" fill="#34261D"/>
<path d="M8.74395 120.784L-2.36055e-06 127.591L10.3262 132.758L10.5325 121.679L8.74395 120.784ZM32.1856 76.1743L31.2913 75.7268L8.29644 121.678L9.19072 122.126L10.085 122.573L33.0799 76.6219L32.1856 76.1743Z" fill="#34261D"/>
<path d="M84.0959 138.311C69.9522 139.052 58.0189 137.029 48.2959 132.242C38.5729 127.455 31.1564 120.372 26.0465 110.992C21.0889 101.415 18.3751 90.0183 17.9051 76.8014C17.3345 60.7522 19.8079 47.4756 25.3254 36.9716C30.8361 26.2787 38.5101 18.2153 48.3473 12.7815C58.1779 7.15881 69.2114 4.02684 81.4481 3.38555C96.0685 2.61932 108.247 4.81855 117.983 9.98324C127.72 15.1479 135.067 22.5187 140.025 32.0954C145.134 41.475 147.914 52.4901 148.364 65.1406C148.888 79.868 146.632 92.5657 141.598 103.234C136.723 113.893 129.377 122.223 119.56 128.223C109.743 134.224 97.9217 137.586 84.0959 138.311ZM87.8496 116.265C93.2528 115.982 97.2538 112.084 99.8525 104.57C102.603 96.8594 103.788 87.6228 103.405 76.8605C102.969 64.5876 101.497 54.5444 98.9901 46.7308C96.4766 38.7285 93.4047 32.9308 89.7742 29.3377C86.296 25.5475 82.5704 23.7566 78.5975 23.9648C72.7175 24.2729 68.4849 28.3726 65.8996 36.2639C63.4666 43.958 62.438 53.0918 62.8139 63.6654C63.1563 73.2949 64.2698 82.2218 66.1543 90.4463C68.1911 98.4737 71.0448 104.85 74.7155 109.576C78.3863 114.302 82.7643 116.532 87.8496 116.265Z" fill="#76B973"/>
<ellipse cx="63.7687" cy="56.3704" rx="14.5" ry="22.5" transform="rotate(-2.86251 63.7687 56.3704)" fill="#D9D9D9"/>
<ellipse cx="99.7687" cy="51.3704" rx="14.5" ry="22.5" transform="rotate(-2.86251 99.7687 51.3704)" fill="#D9D9D9"/>
<ellipse cx="104.269" cy="58.4924" rx="8.47134" ry="12.9111" transform="rotate(-2.86251 104.269 58.4924)" fill="black"/>
<ellipse cx="69.2687" cy="62.4924" rx="8.47134" ry="12.9111" transform="rotate(-2.86251 69.2687 62.4924)" fill="black"/>
</svg>
