<svg width="213" height="338" viewBox="0 0 213 338" fill="none" xmlns="http://www.w3.org/2000/svg">
<path d="M88.7857 337.057C91.7082 337.425 94.391 335.356 94.7779 332.436C95.1649 329.516 93.1094 326.85 90.1869 326.483C87.2645 326.115 84.5817 328.184 84.1947 331.104C83.8078 334.024 85.8633 336.689 88.7857 337.057ZM89.4863 331.77L90.4785 331.895L100.303 257.756L99.3104 257.631L98.3182 257.506L88.4942 331.645L89.4863 331.77Z" fill="#34261D"/>
<path d="M162.122 337.057C159.199 337.425 156.516 335.356 156.13 332.436C155.743 329.516 157.798 326.85 160.721 326.483C163.643 326.115 166.326 328.184 166.713 331.104C167.1 334.024 165.044 336.689 162.122 337.057ZM161.421 331.77L160.429 331.895L150.605 257.756L151.597 257.631L152.589 257.506L162.413 331.645L161.421 331.77Z" fill="#34261D"/>
<path d="M207.863 259.426C204.94 259.793 202.258 257.724 201.871 254.804C201.484 251.884 203.539 249.219 206.462 248.851C209.384 248.484 212.067 250.553 212.454 253.473C212.841 256.393 210.785 259.058 207.863 259.426ZM207.162 254.138L206.17 254.263L196.346 180.125L197.338 180L198.33 179.875L208.155 254.014L207.162 254.138Z" fill="#34261D"/>
<path d="M119.455 282C100.832 282 85.2432 276.471 72.6885 265.412C60.1338 254.353 50.7177 238.752 44.4403 218.609C38.3722 198.071 35.3381 173.979 35.3381 146.332C35.3381 112.761 39.2092 85.3109 46.9513 63.9832C54.6934 42.2605 65.1557 26.2647 78.3381 15.9958C91.5206 5.33192 106.168 0 122.28 0C141.53 0 157.433 5.92437 169.988 17.7731C182.543 29.6218 191.854 45.8151 197.922 66.3529C204.199 86.4958 207.338 109.798 207.338 136.26C207.338 167.067 203.781 193.332 196.667 215.055C189.762 236.777 179.718 253.366 166.535 264.819C153.353 276.273 137.659 282 119.455 282ZM125.418 236.382C132.533 236.382 137.973 228.681 141.74 213.277C145.715 197.479 147.703 178.324 147.703 155.811C147.703 130.139 146.238 109.008 143.309 92.4202C140.38 75.437 136.613 62.9958 132.01 55.0966C127.616 46.8025 122.803 42.6555 117.572 42.6555C109.83 42.6555 104.075 50.7521 100.309 66.9454C96.7518 82.7437 94.9732 101.702 94.9732 123.819C94.9732 143.962 96.0194 162.723 98.1119 180.101C100.414 197.084 103.866 210.71 108.47 220.979C113.073 231.248 118.723 236.382 125.418 236.382Z" fill="#76B973"/>
<ellipse cx="99.8381" cy="102.5" rx="19.5" ry="29.5" fill="#D9D9D9"/>
<ellipse cx="89.3381" cy="113.5" rx="12" ry="18.5" fill="#34261D"/>
<ellipse cx="146.338" cy="102.5" rx="20" ry="29.5" fill="#D9D9D9"/>
<ellipse cx="137.838" cy="113.5" rx="11.5" ry="18.5" fill="#34261D"/>
<path d="M39.7729 153.584C37.2781 155.149 36.525 158.441 38.0909 160.936C39.6568 163.431 42.9486 164.184 45.4434 162.618C47.9383 161.052 48.6913 157.76 47.1254 155.266C45.5595 152.771 42.2677 152.018 39.7729 153.584ZM10.9992 202.368L10.1854 201.787L9.41242 202.87L10.667 203.311L10.9992 202.368ZM42.6082 158.101L41.7943 157.52L10.1854 201.787L10.9992 202.368L11.813 202.949L43.422 158.682L42.6082 158.101ZM10.9992 202.368L10.667 203.311L42.276 214.443L42.6082 213.5L42.9403 212.557L11.3314 201.425L10.9992 202.368Z" fill="#34261D"/>
</svg>
