<svg width="295" height="208" viewBox="0 0 295 208" fill="none" xmlns="http://www.w3.org/2000/svg">
<path d="M32.5394 34.5813C32.5394 34.5813 88.4291 40.226 123.5 34.5813C160.566 28.6154 214.5 3.5813 214.5 3.5813C214.5 3.5813 227.958 65.3028 245 101.581C265.816 145.893 316.54 204.527 316.54 204.527" stroke="#35271E" stroke-width="5" stroke-linecap="round" stroke-dasharray="15 15"/>
<path d="M27.1204 35.6226C27.047 32.0672 23.843 32.3962 18.2539 27.2815C16.2847 25.4794 12.6987 16.8522 9.5115 16.8212C8.31625 16.8096 7.59641 19.6033 9.08985 24.0262C11.4297 30.9557 15.9143 39.0743 22.0649 39.3317C24.9938 39.4543 27.153 37.2027 27.1204 35.6226Z" fill="#35271E"/>
<path d="M8.24119 12.1396C8.31456 15.695 11.5186 15.366 17.1077 20.4807C19.0768 22.2828 22.6629 30.91 25.8501 30.941C27.0453 30.9527 27.7652 28.1589 26.2717 23.736C23.9319 16.8065 19.4473 8.68795 13.2967 8.43051C10.3678 8.30792 8.20858 10.5595 8.24119 12.1396Z" fill="#35271E"/>
</svg>
