<svg width="300" height="274" viewBox="0 0 300 274" fill="none" xmlns="http://www.w3.org/2000/svg">
<path d="M255 125.5C255 125.5 195.5 149.5 164.5 183C126.565 223.995 93 271 93 271C93 271 98.9073 231.477 81 168.5C62.6612 104.006 -4.00006 2.50024 -4.00006 2.50024" stroke="#35271E" stroke-width="5" stroke-linecap="round" stroke-dasharray="15 15"/>
<path d="M259.617 126.457C261.735 122.417 265.054 125.076 274.103 123.168C277.291 122.495 286.161 115.118 289.668 117.351C290.983 118.188 290.17 121.916 286.001 125.943C279.469 132.253 269.907 138.405 263.026 134.324C259.75 132.381 258.676 128.253 259.617 126.457Z" fill="#35271E"/>
<path d="M293.741 112.867C291.623 116.907 288.304 114.248 279.255 116.157C276.067 116.829 267.197 124.206 263.691 121.974C262.375 121.136 263.188 117.409 267.357 113.381C273.889 107.071 283.451 100.919 290.332 105C293.608 106.944 294.682 111.072 293.741 112.867Z" fill="#35271E"/>
</svg>
