<svg width="754" height="721" viewBox="0 0 754 721" fill="none" xmlns="http://www.w3.org/2000/svg">
<path d="M-58 2.50024C-58 2.50024 28.2129 65.1304 35 150C45.7449 284.359 11.632 328.5 24.132 463C35.4703 585 153.797 714.5 315.132 714.5C508.132 714.5 537.632 631.5 637.632 533.5C680.276 491.709 702.5 497 702.5 497" stroke="#35271E" stroke-width="5" stroke-linecap="round" stroke-dasharray="15 15"/>
<path d="M710.332 497.778C714.165 494.893 716.781 498.214 727.369 499.281C731.099 499.657 743.553 495.899 746.535 498.905C747.653 500.032 745.36 503.039 739.294 505.294C729.791 508.826 717.044 511.307 711.081 505.669C708.241 502.985 708.628 499.06 710.332 497.778Z" fill="#35271E"/>
<path d="M752.668 496.223C748.835 499.108 746.219 495.786 735.631 494.72C731.901 494.344 719.447 498.102 716.465 495.096C715.347 493.968 717.64 490.962 723.706 488.707C733.209 485.175 745.956 482.694 751.919 488.331C754.759 491.016 754.372 494.941 752.668 496.223Z" fill="#35271E"/>
</svg>
