<svg width="978" height="762" viewBox="0 0 978 762" fill="none" xmlns="http://www.w3.org/2000/svg">
<rect width="978" height="762" rx="5" fill="#CEB9A8"/>
<ellipse cx="45.5112" cy="681.851" rx="13.5112" ry="20.1769" fill="#4D3A2C"/>
<path d="M45.6741 662.544C45.6741 662.544 43.8359 668.964 44.1775 675.672C44.4604 681.226 46.585 686.621 47.1916 692.148C47.8269 697.937 45.6888 701.93 45.6888 701.93" stroke="#34261D" stroke-width="3" stroke-linecap="round"/>
<path d="M39.9108 662.88C39.9108 662.88 42.8945 661.095 46.132 661.201C49.3694 661.307 51.9107 663.38 51.9107 663.38" stroke="#CEB9A8"/>
<rect x="38.9108" y="701.88" width="14" height="3" fill="#CEB9A8"/>
<path d="M38.9108 700.38C38.9108 700.38 42.6733 702.486 45.9108 702.38C49.1482 702.274 52.4108 699.88 52.4108 699.88" stroke="#CEB9A8"/>
<ellipse cx="107.6" cy="681.851" rx="13.5112" ry="20.1769" fill="#4D3A2C"/>
<path d="M107.763 662.544C107.763 662.544 105.925 668.964 106.267 675.672C106.55 681.226 108.674 686.621 109.281 692.148C109.916 697.937 107.778 701.93 107.778 701.93" stroke="#34261D" stroke-width="3" stroke-linecap="round"/>
<path d="M102 662.88C102 662.88 104.984 661.095 108.221 661.201C111.459 661.307 114 663.38 114 663.38" stroke="#CEB9A8"/>
<rect x="101" y="701.88" width="14" height="3" fill="#CEB9A8"/>
<path d="M101 700.38C101 700.38 104.763 702.486 108 702.38C111.237 702.274 114.5 699.88 114.5 699.88" stroke="#CEB9A8"/>
<ellipse cx="76.6005" cy="681.851" rx="13.5112" ry="20.1769" fill="#4D3A2C"/>
<path d="M76.7633 662.544C76.7633 662.544 74.9251 668.964 75.2668 675.672C75.5497 681.226 77.6742 686.621 78.2808 692.148C78.9162 697.937 76.778 701.93 76.778 701.93" stroke="#34261D" stroke-width="3" stroke-linecap="round"/>
<path d="M71 662.88C71 662.88 73.9838 661.095 77.2212 661.201C80.4586 661.307 83 663.38 83 663.38" stroke="#CEB9A8"/>
<rect x="70" y="701.88" width="14" height="3" fill="#CEB9A8"/>
<path d="M70 700.38C70 700.38 73.7626 702.486 77 702.38C80.2374 702.274 83.5 699.88 83.5 699.88" stroke="#CEB9A8"/>
<ellipse cx="200.511" cy="681.851" rx="13.5112" ry="20.1769" fill="#4D3A2C"/>
<path d="M200.674 662.544C200.674 662.544 198.836 668.964 199.178 675.672C199.46 681.226 201.585 686.621 202.192 692.148C202.827 697.937 200.689 701.93 200.689 701.93" stroke="#34261D" stroke-width="3" stroke-linecap="round"/>
<path d="M194.911 662.88C194.911 662.88 197.895 661.095 201.132 661.201C204.369 661.307 206.911 663.38 206.911 663.38" stroke="#CEB9A8"/>
<rect x="193.911" y="701.88" width="14" height="3" fill="#CEB9A8"/>
<path d="M193.911 700.38C193.911 700.38 197.673 702.486 200.911 702.38C204.148 702.274 207.411 699.88 207.411 699.88" stroke="#CEB9A8"/>
<ellipse cx="169.511" cy="681.851" rx="13.5112" ry="20.1769" fill="#4D3A2C"/>
<path d="M169.674 662.544C169.674 662.544 167.836 668.964 168.178 675.672C168.46 681.226 170.585 686.621 171.192 692.148C171.827 697.937 169.689 701.93 169.689 701.93" stroke="#34261D" stroke-width="3" stroke-linecap="round"/>
<path d="M163.911 662.88C163.911 662.88 166.895 661.095 170.132 661.201C173.369 661.307 175.911 663.38 175.911 663.38" stroke="#CEB9A8"/>
<rect x="162.911" y="701.88" width="14" height="3" fill="#CEB9A8"/>
<path d="M162.911 700.38C162.911 700.38 166.673 702.486 169.911 702.38C173.148 702.274 176.411 699.88 176.411 699.88" stroke="#CEB9A8"/>
<ellipse cx="138.511" cy="681.851" rx="13.5112" ry="20.1769" fill="#4D3A2C"/>
<path d="M138.674 662.544C138.674 662.544 136.836 668.964 137.178 675.672C137.46 681.226 139.585 686.621 140.192 692.148C140.827 697.937 138.689 701.93 138.689 701.93" stroke="#34261D" stroke-width="3" stroke-linecap="round"/>
<path d="M132.911 662.88C132.911 662.88 135.895 661.095 139.132 661.201C142.369 661.307 144.911 663.38 144.911 663.38" stroke="#CEB9A8"/>
<rect x="131.911" y="701.88" width="14" height="3" fill="#CEB9A8"/>
<path d="M131.911 700.38C131.911 700.38 135.673 702.486 138.911 702.38C142.148 702.274 145.411 699.88 145.411 699.88" stroke="#CEB9A8"/>
<ellipse cx="45.5112" cy="578.851" rx="13.5112" ry="20.1769" fill="#4D3A2C"/>
<path d="M45.6741 559.544C45.6741 559.544 43.8359 565.964 44.1775 572.672C44.4604 578.226 46.585 583.621 47.1916 589.148C47.8269 594.937 45.6888 598.93 45.6888 598.93" stroke="#34261D" stroke-width="3" stroke-linecap="round"/>
<path d="M39.9108 559.88C39.9108 559.88 42.8945 558.095 46.132 558.201C49.3694 558.307 51.9107 560.38 51.9107 560.38" stroke="#CEB9A8"/>
<rect x="38.9108" y="598.88" width="14" height="3" fill="#CEB9A8"/>
<path d="M38.9108 597.38C38.9108 597.38 42.6733 599.486 45.9108 599.38C49.1482 599.274 52.4108 596.88 52.4108 596.88" stroke="#CEB9A8"/>
<ellipse cx="107.6" cy="578.851" rx="13.5112" ry="20.1769" fill="#4D3A2C"/>
<path d="M107.763 559.544C107.763 559.544 105.925 565.964 106.267 572.672C106.55 578.226 108.674 583.621 109.281 589.148C109.916 594.937 107.778 598.93 107.778 598.93" stroke="#34261D" stroke-width="3" stroke-linecap="round"/>
<path d="M102 559.88C102 559.88 104.984 558.095 108.221 558.201C111.459 558.307 114 560.38 114 560.38" stroke="#CEB9A8"/>
<rect x="101" y="598.88" width="14" height="3" fill="#CEB9A8"/>
<path d="M101 597.38C101 597.38 104.763 599.486 108 599.38C111.237 599.274 114.5 596.88 114.5 596.88" stroke="#CEB9A8"/>
<ellipse cx="76.6005" cy="578.851" rx="13.5112" ry="20.1769" fill="#4D3A2C"/>
<path d="M76.7633 559.544C76.7633 559.544 74.9251 565.964 75.2668 572.672C75.5497 578.226 77.6742 583.621 78.2808 589.148C78.9162 594.937 76.778 598.93 76.778 598.93" stroke="#34261D" stroke-width="3" stroke-linecap="round"/>
<path d="M71 559.88C71 559.88 73.9838 558.095 77.2212 558.201C80.4586 558.307 83 560.38 83 560.38" stroke="#CEB9A8"/>
<rect x="70" y="598.88" width="14" height="3" fill="#CEB9A8"/>
<path d="M70 597.38C70 597.38 73.7626 599.486 77 599.38C80.2374 599.274 83.5 596.88 83.5 596.88" stroke="#CEB9A8"/>
<ellipse cx="200.511" cy="578.851" rx="13.5112" ry="20.1769" fill="#DFD3C7"/>
<path d="M200.674 559.544C200.674 559.544 198.836 565.964 199.178 572.672C199.46 578.226 201.585 583.621 202.192 589.148C202.827 594.937 200.689 598.93 200.689 598.93" stroke="#B89981" stroke-width="3" stroke-linecap="round"/>
<path d="M194.911 559.88C194.911 559.88 197.895 558.095 201.132 558.201C204.369 558.307 206.911 560.38 206.911 560.38" stroke="#CEB9A8"/>
<rect x="193.911" y="598.88" width="14" height="3" fill="#CEB9A8"/>
<path d="M193.911 597.38C193.911 597.38 197.673 599.486 200.911 599.38C204.148 599.274 207.411 596.88 207.411 596.88" stroke="#CEB9A8"/>
<ellipse cx="169.511" cy="578.851" rx="13.5112" ry="20.1769" fill="#4D3A2C"/>
<path d="M169.674 559.544C169.674 559.544 167.836 565.964 168.178 572.672C168.46 578.226 170.585 583.621 171.192 589.148C171.827 594.937 169.689 598.93 169.689 598.93" stroke="#34261D" stroke-width="3" stroke-linecap="round"/>
<path d="M163.911 559.88C163.911 559.88 166.895 558.095 170.132 558.201C173.369 558.307 175.911 560.38 175.911 560.38" stroke="#CEB9A8"/>
<rect x="162.911" y="598.88" width="14" height="3" fill="#CEB9A8"/>
<path d="M162.911 597.38C162.911 597.38 166.673 599.486 169.911 599.38C173.148 599.274 176.411 596.88 176.411 596.88" stroke="#CEB9A8"/>
<ellipse cx="138.511" cy="578.851" rx="13.5112" ry="20.1769" fill="#4D3A2C"/>
<path d="M138.674 559.544C138.674 559.544 136.836 565.964 137.178 572.672C137.46 578.226 139.585 583.621 140.192 589.148C140.827 594.937 138.689 598.93 138.689 598.93" stroke="#34261D" stroke-width="3" stroke-linecap="round"/>
<path d="M132.911 559.88C132.911 559.88 135.895 558.095 139.132 558.201C142.369 558.307 144.911 560.38 144.911 560.38" stroke="#CEB9A8"/>
<rect x="131.911" y="598.88" width="14" height="3" fill="#CEB9A8"/>
<path d="M131.911 597.38C131.911 597.38 135.673 599.486 138.911 599.38C142.148 599.274 145.411 596.88 145.411 596.88" stroke="#CEB9A8"/>
<ellipse cx="46.5112" cy="471.851" rx="13.5112" ry="20.1769" fill="#4D3A2C"/>
<path d="M46.6741 452.544C46.6741 452.544 44.8359 458.964 45.1775 465.672C45.4604 471.226 47.585 476.621 48.1916 482.148C48.8269 487.937 46.6888 491.93 46.6888 491.93" stroke="#34261D" stroke-width="3" stroke-linecap="round"/>
<path d="M40.9108 452.88C40.9108 452.88 43.8945 451.095 47.132 451.201C50.3694 451.307 52.9107 453.38 52.9107 453.38" stroke="#CEB9A8"/>
<rect x="39.9108" y="491.88" width="14" height="3" fill="#CEB9A8"/>
<path d="M39.9108 490.38C39.9108 490.38 43.6733 492.486 46.9108 492.38C50.1482 492.274 53.4108 489.88 53.4108 489.88" stroke="#CEB9A8"/>
<ellipse cx="108.6" cy="471.851" rx="13.5112" ry="20.1769" fill="#4D3A2C"/>
<path d="M108.763 452.544C108.763 452.544 106.925 458.964 107.267 465.672C107.55 471.226 109.674 476.621 110.281 482.148C110.916 487.937 108.778 491.93 108.778 491.93" stroke="#34261D" stroke-width="3" stroke-linecap="round"/>
<path d="M103 452.88C103 452.88 105.984 451.095 109.221 451.201C112.459 451.307 115 453.38 115 453.38" stroke="#CEB9A8"/>
<rect x="102" y="491.88" width="14" height="3" fill="#CEB9A8"/>
<path d="M102 490.38C102 490.38 105.763 492.486 109 492.38C112.237 492.274 115.5 489.88 115.5 489.88" stroke="#CEB9A8"/>
<ellipse cx="77.6005" cy="471.851" rx="13.5112" ry="20.1769" fill="#4D3A2C"/>
<path d="M77.7633 452.544C77.7633 452.544 75.9251 458.964 76.2668 465.672C76.5497 471.226 78.6742 476.621 79.2808 482.148C79.9162 487.937 77.778 491.93 77.778 491.93" stroke="#34261D" stroke-width="3" stroke-linecap="round"/>
<path d="M72 452.88C72 452.88 74.9838 451.095 78.2212 451.201C81.4586 451.307 84 453.38 84 453.38" stroke="#CEB9A8"/>
<rect x="71" y="491.88" width="14" height="3" fill="#CEB9A8"/>
<path d="M71 490.38C71 490.38 74.7626 492.486 78 492.38C81.2374 492.274 84.5 489.88 84.5 489.88" stroke="#CEB9A8"/>
<ellipse cx="201.511" cy="471.851" rx="13.5112" ry="20.1769" fill="#DFD3C7"/>
<path d="M201.674 452.544C201.674 452.544 199.836 458.964 200.178 465.672C200.46 471.226 202.585 476.621 203.192 482.148C203.827 487.937 201.689 491.93 201.689 491.93" stroke="#B89981" stroke-width="3" stroke-linecap="round"/>
<path d="M195.911 452.88C195.911 452.88 198.895 451.095 202.132 451.201C205.369 451.307 207.911 453.38 207.911 453.38" stroke="#CEB9A8"/>
<rect x="194.911" y="491.88" width="14" height="3" fill="#CEB9A8"/>
<path d="M194.911 490.38C194.911 490.38 198.673 492.486 201.911 492.38C205.148 492.274 208.411 489.88 208.411 489.88" stroke="#CEB9A8"/>
<ellipse cx="170.511" cy="471.851" rx="13.5112" ry="20.1769" fill="#DFD3C7"/>
<path d="M170.674 452.544C170.674 452.544 168.836 458.964 169.178 465.672C169.46 471.226 171.585 476.621 172.192 482.148C172.827 487.937 170.689 491.93 170.689 491.93" stroke="#B89981" stroke-width="3" stroke-linecap="round"/>
<path d="M164.911 452.88C164.911 452.88 167.895 451.095 171.132 451.201C174.369 451.307 176.911 453.38 176.911 453.38" stroke="#CEB9A8"/>
<rect x="163.911" y="491.88" width="14" height="3" fill="#CEB9A8"/>
<path d="M163.911 490.38C163.911 490.38 167.673 492.486 170.911 492.38C174.148 492.274 177.411 489.88 177.411 489.88" stroke="#CEB9A8"/>
<ellipse cx="139.511" cy="471.851" rx="13.5112" ry="20.1769" fill="#4D3A2C"/>
<path d="M139.674 452.544C139.674 452.544 137.836 458.964 138.178 465.672C138.46 471.226 140.585 476.621 141.192 482.148C141.827 487.937 139.689 491.93 139.689 491.93" stroke="#34261D" stroke-width="3" stroke-linecap="round"/>
<path d="M133.911 452.88C133.911 452.88 136.895 451.095 140.132 451.201C143.369 451.307 145.911 453.38 145.911 453.38" stroke="#CEB9A8"/>
<rect x="132.911" y="491.88" width="14" height="3" fill="#CEB9A8"/>
<path d="M132.911 490.38C132.911 490.38 136.673 492.486 139.911 492.38C143.148 492.274 146.411 489.88 146.411 489.88" stroke="#CEB9A8"/>
<ellipse cx="46.5112" cy="257.851" rx="13.5112" ry="20.1769" fill="#4D3A2C"/>
<path d="M46.6741 238.544C46.6741 238.544 44.8359 244.964 45.1775 251.672C45.4604 257.226 47.585 262.621 48.1916 268.148C48.8269 273.937 46.6888 277.93 46.6888 277.93" stroke="#34261D" stroke-width="3" stroke-linecap="round"/>
<path d="M40.9108 238.88C40.9108 238.88 43.8945 237.095 47.132 237.201C50.3694 237.307 52.9107 239.38 52.9107 239.38" stroke="#CEB9A8"/>
<rect x="39.9108" y="277.88" width="14" height="3" fill="#CEB9A8"/>
<path d="M39.9108 276.38C39.9108 276.38 43.6733 278.486 46.9108 278.38C50.1482 278.274 53.4108 275.88 53.4108 275.88" stroke="#CEB9A8"/>
<ellipse cx="108.6" cy="257.851" rx="13.5112" ry="20.1769" fill="#DFD3C7"/>
<path d="M108.763 238.544C108.763 238.544 106.925 244.964 107.267 251.672C107.55 257.226 109.674 262.621 110.281 268.148C110.916 273.937 108.778 277.93 108.778 277.93" stroke="#B89981" stroke-width="3" stroke-linecap="round"/>
<path d="M103 238.88C103 238.88 105.984 237.095 109.221 237.201C112.459 237.307 115 239.38 115 239.38" stroke="#CEB9A8"/>
<rect x="102" y="277.88" width="14" height="3" fill="#CEB9A8"/>
<path d="M102 276.38C102 276.38 105.763 278.486 109 278.38C112.237 278.274 115.5 275.88 115.5 275.88" stroke="#CEB9A8"/>
<ellipse cx="77.6005" cy="257.851" rx="13.5112" ry="20.1769" fill="#4D3A2C"/>
<path d="M77.7633 238.544C77.7633 238.544 75.9251 244.964 76.2668 251.672C76.5497 257.226 78.6742 262.621 79.2808 268.148C79.9162 273.937 77.778 277.93 77.778 277.93" stroke="#34261D" stroke-width="3" stroke-linecap="round"/>
<path d="M72 238.88C72 238.88 74.9838 237.095 78.2212 237.201C81.4586 237.307 84 239.38 84 239.38" stroke="#CEB9A8"/>
<rect x="71" y="277.88" width="14" height="3" fill="#CEB9A8"/>
<path d="M71 276.38C71 276.38 74.7626 278.486 78 278.38C81.2374 278.274 84.5 275.88 84.5 275.88" stroke="#CEB9A8"/>
<ellipse cx="201.511" cy="257.851" rx="13.5112" ry="20.1769" fill="#DFD3C7"/>
<path d="M201.674 238.544C201.674 238.544 199.836 244.964 200.178 251.672C200.46 257.226 202.585 262.621 203.192 268.148C203.827 273.937 201.689 277.93 201.689 277.93" stroke="#B89981" stroke-width="3" stroke-linecap="round"/>
<path d="M195.911 238.88C195.911 238.88 198.895 237.095 202.132 237.201C205.369 237.307 207.911 239.38 207.911 239.38" stroke="#CEB9A8"/>
<rect x="194.911" y="277.88" width="14" height="3" fill="#CEB9A8"/>
<path d="M194.911 276.38C194.911 276.38 198.673 278.486 201.911 278.38C205.148 278.274 208.411 275.88 208.411 275.88" stroke="#CEB9A8"/>
<ellipse cx="170.511" cy="257.851" rx="13.5112" ry="20.1769" fill="#DFD3C7"/>
<path d="M170.674 238.544C170.674 238.544 168.836 244.964 169.178 251.672C169.46 257.226 171.585 262.621 172.192 268.148C172.827 273.937 170.689 277.93 170.689 277.93" stroke="#B89981" stroke-width="3" stroke-linecap="round"/>
<path d="M164.911 238.88C164.911 238.88 167.895 237.095 171.132 237.201C174.369 237.307 176.911 239.38 176.911 239.38" stroke="#CEB9A8"/>
<rect x="163.911" y="277.88" width="14" height="3" fill="#CEB9A8"/>
<path d="M163.911 276.38C163.911 276.38 167.673 278.486 170.911 278.38C174.148 278.274 177.411 275.88 177.411 275.88" stroke="#CEB9A8"/>
<ellipse cx="139.511" cy="257.851" rx="13.5112" ry="20.1769" fill="#DFD3C7"/>
<path d="M139.674 238.544C139.674 238.544 137.836 244.964 138.178 251.672C138.46 257.226 140.585 262.621 141.192 268.148C141.827 273.937 139.689 277.93 139.689 277.93" stroke="#B89981" stroke-width="3" stroke-linecap="round"/>
<path d="M133.911 238.88C133.911 238.88 136.895 237.095 140.132 237.201C143.369 237.307 145.911 239.38 145.911 239.38" stroke="#CEB9A8"/>
<rect x="132.911" y="277.88" width="14" height="3" fill="#CEB9A8"/>
<path d="M132.911 276.38C132.911 276.38 136.673 278.486 139.911 278.38C143.148 278.274 146.411 275.88 146.411 275.88" stroke="#CEB9A8"/>
<ellipse cx="46.5112" cy="364.851" rx="13.5112" ry="20.1769" fill="#4D3A2C"/>
<path d="M46.6741 345.544C46.6741 345.544 44.8359 351.964 45.1775 358.672C45.4604 364.226 47.585 369.621 48.1916 375.148C48.8269 380.937 46.6888 384.93 46.6888 384.93" stroke="#34261D" stroke-width="3" stroke-linecap="round"/>
<path d="M40.9108 345.88C40.9108 345.88 43.8945 344.095 47.132 344.201C50.3694 344.307 52.9107 346.38 52.9107 346.38" stroke="#CEB9A8"/>
<rect x="39.9108" y="384.88" width="14" height="3" fill="#CEB9A8"/>
<path d="M39.9108 383.38C39.9108 383.38 43.6733 385.486 46.9108 385.38C50.1482 385.274 53.4108 382.88 53.4108 382.88" stroke="#CEB9A8"/>
<ellipse cx="108.6" cy="364.851" rx="13.5112" ry="20.1769" fill="#4D3A2C"/>
<path d="M108.763 345.544C108.763 345.544 106.925 351.964 107.267 358.672C107.55 364.226 109.674 369.621 110.281 375.148C110.916 380.937 108.778 384.93 108.778 384.93" stroke="#34261D" stroke-width="3" stroke-linecap="round"/>
<path d="M103 345.88C103 345.88 105.984 344.095 109.221 344.201C112.459 344.307 115 346.38 115 346.38" stroke="#CEB9A8"/>
<rect x="102" y="384.88" width="14" height="3" fill="#CEB9A8"/>
<path d="M102 383.38C102 383.38 105.763 385.486 109 385.38C112.237 385.274 115.5 382.88 115.5 382.88" stroke="#CEB9A8"/>
<ellipse cx="77.6005" cy="364.851" rx="13.5112" ry="20.1769" fill="#4D3A2C"/>
<path d="M77.7633 345.544C77.7633 345.544 75.9251 351.964 76.2668 358.672C76.5497 364.226 78.6742 369.621 79.2808 375.148C79.9162 380.937 77.778 384.93 77.778 384.93" stroke="#34261D" stroke-width="3" stroke-linecap="round"/>
<path d="M72 345.88C72 345.88 74.9838 344.095 78.2212 344.201C81.4586 344.307 84 346.38 84 346.38" stroke="#CEB9A8"/>
<rect x="71" y="384.88" width="14" height="3" fill="#CEB9A8"/>
<path d="M71 383.38C71 383.38 74.7626 385.486 78 385.38C81.2374 385.274 84.5 382.88 84.5 382.88" stroke="#CEB9A8"/>
<ellipse cx="201.511" cy="364.851" rx="13.5112" ry="20.1769" fill="#DFD3C7"/>
<path d="M201.674 345.544C201.674 345.544 199.836 351.964 200.178 358.672C200.46 364.226 202.585 369.621 203.192 375.148C203.827 380.937 201.689 384.93 201.689 384.93" stroke="#B89981" stroke-width="3" stroke-linecap="round"/>
<path d="M195.911 345.88C195.911 345.88 198.895 344.095 202.132 344.201C205.369 344.307 207.911 346.38 207.911 346.38" stroke="#CEB9A8"/>
<rect x="194.911" y="384.88" width="14" height="3" fill="#CEB9A8"/>
<path d="M194.911 383.38C194.911 383.38 198.673 385.486 201.911 385.38C205.148 385.274 208.411 382.88 208.411 382.88" stroke="#CEB9A8"/>
<ellipse cx="170.511" cy="364.851" rx="13.5112" ry="20.1769" fill="#DFD3C7"/>
<path d="M170.674 345.544C170.674 345.544 168.836 351.964 169.178 358.672C169.46 364.226 171.585 369.621 172.192 375.148C172.827 380.937 170.689 384.93 170.689 384.93" stroke="#B89981" stroke-width="3" stroke-linecap="round"/>
<path d="M164.911 345.88C164.911 345.88 167.895 344.095 171.132 344.201C174.369 344.307 176.911 346.38 176.911 346.38" stroke="#CEB9A8"/>
<rect x="163.911" y="384.88" width="14" height="3" fill="#CEB9A8"/>
<path d="M163.911 383.38C163.911 383.38 167.673 385.486 170.911 385.38C174.148 385.274 177.411 382.88 177.411 382.88" stroke="#CEB9A8"/>
<ellipse cx="139.511" cy="364.851" rx="13.5112" ry="20.1769" fill="#DFD3C7"/>
<path d="M139.674 345.544C139.674 345.544 137.836 351.964 138.178 358.672C138.46 364.226 140.585 369.621 141.192 375.148C141.827 380.937 139.689 384.93 139.689 384.93" stroke="#B89981" stroke-width="3" stroke-linecap="round"/>
<path d="M133.911 345.88C133.911 345.88 136.895 344.095 140.132 344.201C143.369 344.307 145.911 346.38 145.911 346.38" stroke="#CEB9A8"/>
<rect x="132.911" y="384.88" width="14" height="3" fill="#CEB9A8"/>
<path d="M132.911 383.38C132.911 383.38 136.673 385.486 139.911 385.38C143.148 385.274 146.411 382.88 146.411 382.88" stroke="#CEB9A8"/>
<ellipse cx="45.5112" cy="153.851" rx="13.5112" ry="20.1769" fill="#4D3A2C"/>
<path d="M45.6741 134.544C45.6741 134.544 43.8359 140.964 44.1775 147.672C44.4604 153.226 46.585 158.621 47.1916 164.148C47.8269 169.937 45.6888 173.93 45.6888 173.93" stroke="#34261D" stroke-width="3" stroke-linecap="round"/>
<path d="M39.9108 134.88C39.9108 134.88 42.8945 133.095 46.132 133.201C49.3694 133.307 51.9107 135.38 51.9107 135.38" stroke="#CEB9A8"/>
<rect x="38.9108" y="173.88" width="14" height="3" fill="#CEB9A8"/>
<path d="M38.9108 172.38C38.9108 172.38 42.6733 174.486 45.9108 174.38C49.1482 174.274 52.4108 171.88 52.4108 171.88" stroke="#CEB9A8"/>
<ellipse cx="107.6" cy="153.851" rx="13.5112" ry="20.1769" fill="#DFD3C7"/>
<path d="M107.763 134.544C107.763 134.544 105.925 140.964 106.267 147.672C106.55 153.226 108.674 158.621 109.281 164.148C109.916 169.937 107.778 173.93 107.778 173.93" stroke="#B89981" stroke-width="3" stroke-linecap="round"/>
<path d="M102 134.88C102 134.88 104.984 133.095 108.221 133.201C111.459 133.307 114 135.38 114 135.38" stroke="#CEB9A8"/>
<rect x="101" y="173.88" width="14" height="3" fill="#CEB9A8"/>
<path d="M101 172.38C101 172.38 104.763 174.486 108 174.38C111.237 174.274 114.5 171.88 114.5 171.88" stroke="#CEB9A8"/>
<ellipse cx="76.6005" cy="153.851" rx="13.5112" ry="20.1769" fill="#DFD3C7"/>
<path d="M76.7633 134.544C76.7633 134.544 74.9251 140.964 75.2668 147.672C75.5497 153.226 77.6742 158.621 78.2808 164.148C78.9162 169.937 76.778 173.93 76.778 173.93" stroke="#B89981" stroke-width="3" stroke-linecap="round"/>
<path d="M71 134.88C71 134.88 73.9838 133.095 77.2212 133.201C80.4586 133.307 83 135.38 83 135.38" stroke="#CEB9A8"/>
<rect x="70" y="173.88" width="14" height="3" fill="#CEB9A8"/>
<path d="M70 172.38C70 172.38 73.7626 174.486 77 174.38C80.2374 174.274 83.5 171.88 83.5 171.88" stroke="#CEB9A8"/>
<ellipse cx="200.511" cy="153.851" rx="13.5112" ry="20.1769" fill="#DFD3C7"/>
<path d="M200.674 134.544C200.674 134.544 198.836 140.964 199.178 147.672C199.46 153.226 201.585 158.621 202.192 164.148C202.827 169.937 200.689 173.93 200.689 173.93" stroke="#B89981" stroke-width="3" stroke-linecap="round"/>
<path d="M194.911 134.88C194.911 134.88 197.895 133.095 201.132 133.201C204.369 133.307 206.911 135.38 206.911 135.38" stroke="#CEB9A8"/>
<rect x="193.911" y="173.88" width="14" height="3" fill="#CEB9A8"/>
<path d="M193.911 172.38C193.911 172.38 197.673 174.486 200.911 174.38C204.148 174.274 207.411 171.88 207.411 171.88" stroke="#CEB9A8"/>
<ellipse cx="169.511" cy="153.851" rx="13.5112" ry="20.1769" fill="#DFD3C7"/>
<path d="M169.674 134.544C169.674 134.544 167.836 140.964 168.178 147.672C168.46 153.226 170.585 158.621 171.192 164.148C171.827 169.937 169.689 173.93 169.689 173.93" stroke="#B89981" stroke-width="3" stroke-linecap="round"/>
<path d="M163.911 134.88C163.911 134.88 166.895 133.095 170.132 133.201C173.369 133.307 175.911 135.38 175.911 135.38" stroke="#CEB9A8"/>
<rect x="162.911" y="173.88" width="14" height="3" fill="#CEB9A8"/>
<path d="M162.911 172.38C162.911 172.38 166.673 174.486 169.911 174.38C173.148 174.274 176.411 171.88 176.411 171.88" stroke="#CEB9A8"/>
<ellipse cx="138.511" cy="153.851" rx="13.5112" ry="20.1769" fill="#DFD3C7"/>
<path d="M138.674 134.544C138.674 134.544 136.836 140.964 137.178 147.672C137.46 153.226 139.585 158.621 140.192 164.148C140.827 169.937 138.689 173.93 138.689 173.93" stroke="#B89981" stroke-width="3" stroke-linecap="round"/>
<path d="M132.911 134.88C132.911 134.88 135.895 133.095 139.132 133.201C142.369 133.307 144.911 135.38 144.911 135.38" stroke="#CEB9A8"/>
<rect x="131.911" y="173.88" width="14" height="3" fill="#CEB9A8"/>
<path d="M131.911 172.38C131.911 172.38 135.673 174.486 138.911 174.38C142.148 174.274 145.411 171.88 145.411 171.88" stroke="#CEB9A8"/>
<line x1="34.4959" y1="203.496" x2="937.496" y2="202.008" stroke="#AE8B6F" stroke-opacity="0.7" stroke-width="5" stroke-linecap="round" stroke-dasharray="10 10"/>
<line x1="34.4959" y1="631.992" x2="937.496" y2="630.504" stroke="#AE8B6F" stroke-opacity="0.7" stroke-width="5" stroke-linecap="round" stroke-dasharray="10 10"/>
<line x1="34.4959" y1="524.992" x2="937.496" y2="523.504" stroke="#AE8B6F" stroke-opacity="0.7" stroke-width="5" stroke-linecap="round" stroke-dasharray="10 10"/>
<line x1="34.4959" y1="417.992" x2="937.496" y2="416.504" stroke="#AE8B6F" stroke-opacity="0.7" stroke-width="5" stroke-linecap="round" stroke-dasharray="10 10"/>
<line x1="34.4959" y1="310.992" x2="937.496" y2="309.504" stroke="#AE8B6F" stroke-opacity="0.7" stroke-width="5" stroke-linecap="round" stroke-dasharray="10 10"/>
</svg>
