<svg width="219" height="168" viewBox="0 0 219 168" fill="none" xmlns="http://www.w3.org/2000/svg">
<path d="M174.023 50L162.505 50.1707L168.384 60.1086L174.023 50ZM124.209 79.8467L124.718 80.7073L166.812 55.4864L166.302 54.6257L165.793 53.765L123.699 78.986L124.209 79.8467Z" fill="#34261D"/>
<path d="M23.3698 123.658L22.6871 134.689L12.5694 129.03L21.6174 122.678L23.3698 123.658ZM59.1339 57.7143L59.3274 69.2349L49.2098 63.5765L59.1339 57.7143ZM22.0071 124.037L21.1309 123.547L53.8789 65.0466L54.7551 65.5366L55.6313 66.0266L22.8833 124.527L22.0071 124.037Z" fill="#34261D"/>
<path d="M139.8 135.1L150.494 132.203L148.405 143.567L139.438 137.068L139.8 135.1ZM93.2696 127.595L104.144 123.713L102.055 135.077L93.2696 127.595ZM140.602 136.264L140.421 137.248L101.936 130.199L102.117 129.215L102.298 128.231L140.783 135.28L140.602 136.264Z" fill="#34261D"/>
<path d="M100.699 158.176L105.996 167.964L112.758 158.662L101.87 156.565L100.699 158.176ZM65.69 131.232L70.4021 141.826L77.1637 132.524L65.69 131.232ZM102.093 157.964L102.679 157.159L73.5592 135.775L72.9736 136.581L72.3881 137.387L101.508 158.77L102.093 157.964Z" fill="#34261D"/>
<path d="M86.7373 146C98.9721 146 109.214 143.137 117.462 137.412C125.71 131.686 131.896 123.609 136.02 113.181C140.007 102.548 142 90.0742 142 75.7605C142 58.3796 139.457 44.1681 134.371 33.126C129.284 21.8795 122.411 13.598 113.75 8.2815C105.09 2.7605 95.4666 0 84.8815 0C72.2343 0 61.7866 3.06723 53.5384 9.20168C45.2902 15.3361 39.1728 23.7199 35.1862 34.3529C31.0621 44.7815 29.0001 56.8459 29.0001 70.5462C29.0001 86.4958 31.3371 100.094 36.011 111.34C40.5475 122.587 47.1461 131.175 55.8066 137.105C64.4672 143.035 74.7775 146 86.7373 146ZM82.8194 122.382C78.1455 122.382 74.5713 118.395 72.0968 110.42C69.4849 102.241 68.1789 92.3235 68.1789 80.6681C68.1789 67.3767 69.1412 56.437 71.0658 47.8487C72.9903 39.056 75.4648 32.6148 78.4891 28.5252C81.376 24.2311 84.5378 22.084 87.9745 22.084C93.0609 22.084 96.8413 26.2759 99.3158 34.6597C101.653 42.8389 102.821 52.6541 102.821 64.105C102.821 74.5336 102.134 84.2465 100.759 93.2437C99.247 102.036 96.9788 109.091 93.9545 114.408C90.9301 119.724 87.2185 122.382 82.8194 122.382Z" fill="#76B973"/>
<ellipse cx="13" cy="17" rx="13" ry="17" transform="matrix(-1 0 0 1 116 34)" fill="#D9D9D9"/>
<ellipse cx="8" cy="10.5" rx="8" ry="10.5" transform="matrix(-1 0 0 1 117 36)" fill="#34261D"/>
<ellipse cx="13" cy="17" rx="13" ry="17" transform="matrix(-1 0 0 1 85.0001 34)" fill="#D9D9D9"/>
<ellipse cx="7.5" cy="10.5" rx="7.5" ry="10.5" transform="matrix(-1 0 0 1 85.0001 36)" fill="#34261D"/>
<path d="M198.305 75.9386L197.534 73.3562C197.534 73.3562 206.076 72.9008 210.352 73.3562C219.604 74.3416 220.926 80.1975 216.712 84.1763C210.829 89.7318 187.896 92.3846 187.896 92.3846L190.787 89.1226C190.787 89.1226 204.798 86.0185 209.673 84.1763C219.915 80.3067 213.986 76.9062 211.722 76.5544C204.811 75.4806 198.305 75.9386 198.305 75.9386Z" fill="#A1785A"/>
<path d="M165.124 67H190.704V97H179.567C179.567 97 172.66 93.1577 168.164 83.9714C164.061 75.5863 165.124 67 165.124 67Z" fill="#A1785A"/>
<path d="M207.856 67H181.416V97H192.927C192.927 97 200.067 93.1577 204.713 83.9714C208.954 75.5863 207.856 67 207.856 67Z" fill="#A1785A"/>
</svg>
