<svg width="133" height="212" viewBox="0 0 133 212" fill="none" xmlns="http://www.w3.org/2000/svg">
<path d="M3.3619e-06 201.407C0.416174 196.65 0.918477 192.476 1.50691 188.884C2.112 185.103 2.87125 181.91 3.78467 179.305C9.26091 179.401 12.957 177.903 14.8728 174.811C16.9414 171.541 18.3919 165.149 19.2243 155.635L28.638 48.0353C29.0209 43.659 28.9207 40.1032 28.3373 37.3679C27.7705 34.4424 26.4568 32.2184 24.3962 30.696C22.3522 28.9834 19.3141 27.663 15.2818 26.7351C15.5981 23.1199 16.0588 19.4214 16.6639 15.6398C17.405 11.87 18.4531 8.51053 19.808 5.56139C26.6117 6.15663 32.9807 6.23452 38.9151 5.79506C44.8495 5.3556 50.0521 4.66039 54.523 3.70943C59.0105 2.56819 62.4095 1.33171 64.7198 5.46194e-06C66.9166 1.5343 68.4941 3.87722 69.4524 7.02875C70.4273 9.99001 70.6984 13.9442 70.2656 18.8913L58.0052 159.028C57.2062 168.161 57.2692 174.494 58.1942 178.026C59.1192 181.558 61.3937 183.77 65.0178 184.663C65.4651 187.386 65.5903 190.656 65.3934 194.474C65.3493 198.113 65.1191 202.311 64.703 207.067C62.1509 206.461 57.8895 205.8 51.9189 205.086C45.9317 204.562 39.7404 204.021 33.3449 203.461C29.1266 203.092 24.7042 202.705 20.0777 202.301C15.5706 202.098 11.4801 201.836 7.80613 201.514C4.25158 201.395 1.64953 201.359 3.3619e-06 201.407ZM86.3929 210.691C84.8541 206.338 82.7779 201.075 80.1643 194.903C77.7034 188.552 74.9189 181.982 71.8109 175.191C68.8557 168.222 65.8157 161.437 62.6911 154.837C59.7191 148.058 56.8847 142.058 54.1879 136.837L75.4717 114.541C78.9344 111.009 81.1488 108.423 82.1151 106.782C83.2174 105.153 83.8185 103.767 83.9184 102.626C84.0516 101.104 83.8113 99.9322 83.1975 99.1116C82.5837 98.2909 81.1966 97.6903 79.036 97.3095C78.4164 93.4207 78.0607 89.6508 77.9688 85.9999C77.8768 82.349 77.989 78.7159 78.3053 75.1007C79.9382 75.2436 82.5833 75.5708 86.2406 76.0825C90.0507 76.4159 94.3287 76.886 99.0746 77.493C103.837 77.9096 108.464 78.3144 112.954 78.7073C116.764 79.0406 120.234 79.3442 123.364 79.618C126.646 79.7134 129.588 79.7791 132.19 79.815C131.824 84.0011 131.287 87.7887 130.579 91.1779C130.007 94.579 129.087 98.0455 127.818 101.577C123.839 101.613 120.371 102.076 117.413 102.968C114.608 103.681 111.813 105.066 109.028 107.123C106.379 109.192 103.23 112.272 99.5817 116.363L85.0454 132.059L82.9445 113.757C90.2071 123.212 96.6033 133.166 102.133 143.62C107.68 153.884 112.692 164.771 117.169 176.283C118.536 179.471 119.816 182.075 121.01 184.097C122.221 185.928 123.474 187.284 124.768 188.164C126.198 189.056 127.917 189.782 129.925 190.341C129.625 193.766 129.105 197.363 128.364 201.133C127.622 204.903 126.566 208.358 125.195 211.497C121.793 211.199 117.634 210.931 112.719 210.693C107.804 210.455 102.956 210.222 98.1771 209.996C93.3812 209.96 89.4532 210.191 86.3929 210.691Z" fill="#34261D"/>
</svg>
