<svg width="97" height="227" viewBox="0 0 97 227" fill="none" xmlns="http://www.w3.org/2000/svg">
<path d="M-9.39048e-06 213.445C0.90843 208.293 1.85845 203.786 2.85007 199.923C3.87803 195.855 5.02289 192.444 6.28463 189.692C12.3815 190.342 16.6424 189.075 19.0673 185.89C21.6793 182.526 23.8937 175.692 25.7105 165.388L46.8045 45.758C47.4949 41.8425 47.531 38.5553 46.9128 35.8965C46.2946 33.2376 44.9079 30.9745 42.7526 29.107C40.5973 27.2396 37.4657 25.625 33.3578 24.2632C34.0482 20.3476 34.9074 16.3556 35.9354 12.2871C37.1139 8.2452 38.5963 4.68181 40.3825 1.59698C47.9127 2.92475 55.0067 3.64438 61.6643 3.75587C68.322 3.86736 74.1876 3.62671 79.2613 3.03392C84.3713 2.23505 88.2765 1.22375 90.9769 2.20571e-06C93.2828 1.894 94.8228 4.60914 95.5968 8.14543C96.4072 11.4756 96.34 15.8198 95.3952 21.1778L68.6326 172.956C66.8158 183.26 66.5592 190.439 67.863 194.494C69.2031 198.342 72.8489 201.004 78.8004 202.478C79.0447 205.496 78.8787 209.079 78.3026 213.227C77.9134 217.196 77.2646 221.756 76.3561 226.908C74.5852 226.384 71.6848 225.66 67.6548 224.737C63.5885 224.02 59.0133 223.107 53.9291 221.998C48.8085 221.095 43.6127 220.179 38.3416 219.249C33.2211 218.346 28.0252 217.43 22.7541 216.501C17.5972 215.804 12.9856 215.097 8.91933 214.38C4.81669 213.869 1.84357 213.557 -9.39048e-06 213.445Z" fill="#34261D"/>
</svg>
