<svg width="103" height="246" viewBox="0 0 103 246" fill="none" xmlns="http://www.w3.org/2000/svg">
<path d="M14.7473 245.587C14.3565 239.999 14.1865 235.069 14.2373 230.797C14.2724 226.303 14.6152 222.46 15.2657 219.27C22.1892 218.336 26.5613 215.897 28.382 211.951C30.3609 207.769 30.9596 200.09 30.1781 188.914L21.1045 59.1559C20.8075 54.9088 19.9567 51.4867 18.5521 48.8894C17.1474 46.2922 14.9994 44.3085 12.1081 42.9383C9.21682 41.5682 5.31357 40.718 0.398371 40.3879C0.101389 36.1408 -0.02954 31.7699 0.00558435 27.275C0.214576 22.7679 0.889499 18.6776 2.03035 15.0038C10.7238 14.3959 18.7696 13.2718 26.1677 11.6313C33.5659 9.9909 39.9922 8.19381 45.4466 6.24005C50.8853 4.06276 54.9331 1.98274 57.5899 -4.60999e-06C60.6551 1.358 63.0951 3.77052 64.91 7.23756C66.7093 10.4811 67.8121 15.0087 68.2185 20.8204L79.7305 185.449C80.512 196.625 82.1736 204.146 84.7152 208.012C87.2413 211.654 91.9972 213.455 98.9832 213.416C100.071 216.484 100.859 220.248 101.345 224.706C101.99 228.929 102.508 233.834 102.898 239.423C100.796 239.345 97.3903 239.359 92.6803 239.463C87.9858 239.792 82.675 240.051 76.7479 240.24C70.8364 240.654 64.8379 241.073 58.7525 241.499C52.841 241.912 46.8426 242.332 40.7572 242.757C34.8613 243.394 29.5661 243.877 24.8717 244.205C20.1929 244.757 16.8181 245.217 14.7473 245.587Z" fill="#34261D"/>
</svg>
