<svg width="135" height="211" viewBox="0 0 135 211" fill="none" xmlns="http://www.w3.org/2000/svg">
<path d="M81.7381 116.867C83.2248 128.975 85.335 138.576 88.0688 145.672C90.768 152.486 94.4525 157.464 99.1222 160.607C103.941 163.445 110.255 164.813 118.066 164.712C119.72 169.082 121.019 174.353 121.963 180.525C123.056 186.393 123.931 192.002 124.588 197.351C121.067 197.498 116.445 197.78 110.722 198.196C105.218 198.872 99.3286 199.453 93.0554 199.937C86.8167 200.703 80.7615 201.446 74.8898 202.167C64.9813 203.384 54.7975 204.634 44.3385 205.919C34.0976 207.462 25.8006 208.909 19.4476 210.261C18.5141 202.659 17.828 196.312 17.3892 191.221C17.0993 185.826 17.0793 181.113 17.3292 177.08C22.2143 175.909 25.803 174.039 28.0953 171.471C30.5365 168.599 31.8183 163.869 31.9406 157.28C32.2118 150.387 31.5522 140.464 29.9618 127.512L27.8874 110.617L80.1824 104.196L81.7381 116.867ZM76.6041 75.0536L81.3751 113.911L29.0802 120.332L23.4794 74.7168L71.0551 29.861C71.6083 34.3662 71.841 40.054 71.7533 46.9244C71.631 53.5133 71.3785 62.8334 70.9956 74.8847L76.6041 75.0536ZM70.6007 76.2194C71.0794 71.0159 71.7521 64.3595 72.619 56.2501C73.4858 48.1408 74.3541 42.3178 75.2236 38.7812C78.0504 28.4305 82.1855 19.634 87.629 12.3918C93.0725 5.14962 99.4641 1.07793 106.804 0.176735C114.143 -0.724459 121.347 1.82081 128.416 7.81256C128.477 14.3789 128.768 22.0602 129.29 30.8566C129.776 39.3714 130.464 48.0044 131.352 56.7557C132.206 65.2254 133.248 72.9574 134.48 79.9517C131.121 82.9365 126.466 85.223 120.514 86.8112C114.712 88.0953 109.884 88.9739 106.031 89.447C104.706 80.1776 102.959 73.5325 100.789 69.5117C98.5844 65.2093 95.6472 63.2834 91.9773 63.734C89.592 64.0269 87.3914 66.5836 85.3757 71.4042C83.36 76.2248 81.8669 82.2674 80.8963 89.532C80.0746 96.4926 80.1478 103.915 81.1158 111.799L70.6007 76.2194ZM29.0802 120.332L25.6575 92.4559C24.5166 83.164 23.268 76.0289 21.9117 71.0507C20.5555 66.0725 18.3628 62.6261 15.3339 60.7115C12.2704 58.5153 7.65916 57.3666 1.50024 57.2653C0.843359 51.9154 0.352679 46.4022 0.0282029 40.7257C-0.112781 35.0266 0.274108 29.8344 1.18887 25.149C14.7672 23.4818 26.7047 20.5869 37.0015 16.4645C47.2636 12.0604 54.3892 7.89861 58.3781 3.97902C61.7394 5.56702 64.4307 8.5235 66.4518 12.8484C68.6218 16.8693 70.1562 22.5401 71.0551 29.861L29.0802 120.332Z" fill="#34261D"/>
</svg>
