<svg width="129" height="142" viewBox="0 0 129 142" fill="none" xmlns="http://www.w3.org/2000/svg">
<path d="M87.7649 129.335L84.8384 140.023L96.2028 137.977L89.7333 128.981L87.7649 129.335ZM81.5206 89L80.5364 89.1772L87.9421 130.32L88.9263 130.142L89.9104 129.965L82.5048 88.8228L81.5206 89Z" fill="#34261D"/>
<path d="M7.49157 97.1453L6.62588e-06 105.31L11.0413 108.69L9.40397 97.7307L7.49157 97.1453ZM20.5206 58L19.5644 57.7073L7.19886 98.1015L8.15506 98.3942L9.11126 98.6869L21.4768 58.2927L20.5206 58Z" fill="#34261D"/>
<path d="M118.761 97.68L116.978 108.617L128.063 105.383L120.681 97.12L118.761 97.68ZM108.521 59L107.561 59.28L119.041 98.64L120.001 98.36L120.961 98.08L109.481 58.72L108.521 59Z" fill="#34261D"/>
<path d="M41.2407 130.976L34.8317 140.015L46.2096 141.985L43.2114 131.317L41.2407 130.976ZM49.5206 89L48.5353 88.8295L41.0702 131.961L42.0555 132.132L43.0409 132.302L50.506 89.1705L49.5206 89Z" fill="#34261D"/>
<path d="M65.9389 106C54.1646 106 44.0802 103.76 35.6856 99.2795C27.291 94.7992 20.8043 88.5879 16.2254 80.6455C11.7556 72.6013 9.52063 63.2334 9.52063 52.5418C9.52063 44.3958 10.8834 37.1153 13.6089 30.7003C16.4434 24.1835 20.3682 18.634 25.3831 14.0519C30.3981 9.46974 36.3397 6.00769 43.208 3.66571C50.0764 1.2219 57.6533 0 65.9389 0C77.386 0 87.3069 2.08742 95.7015 6.26225C104.205 10.4371 110.801 16.292 115.489 23.8271C120.177 31.3622 122.521 40.2719 122.521 50.5562C122.521 58.804 121.212 66.3391 118.596 73.1614C115.979 79.8818 112.164 85.6859 107.149 90.5735C102.243 95.4611 96.3011 99.2795 89.3238 102.029C82.3465 104.676 74.5515 106 65.9389 106ZM67.9012 94.0864C72.4801 94.0864 76.2958 92.4572 79.3484 89.1988C82.51 85.8386 84.9085 81.1547 86.5438 75.147C88.1791 69.1393 88.9968 62.0115 88.9968 53.7637C88.9968 45.9232 87.9611 38.8463 85.8897 32.5331C83.9273 26.1182 81.0382 21.0269 77.2225 17.2594C73.5158 13.39 69.046 11.4553 63.813 11.4553C59.4521 11.4553 55.6909 12.9318 52.5293 15.8847C49.4767 18.7358 47.1328 22.9616 45.4975 28.562C43.8622 34.0605 43.0445 40.8319 43.0445 48.8761C43.0445 54.9856 43.5351 60.7896 44.5163 66.2882C45.4975 71.6849 46.9693 76.4707 48.9316 80.6455C51.003 84.8204 53.565 88.1297 56.6176 90.5735C59.7792 92.9155 63.5404 94.0864 67.9012 94.0864Z" fill="#76B973"/>
<ellipse cx="45.0975" cy="37.035" rx="14.5" ry="22.5" transform="rotate(4.84873 45.0975 37.035)" fill="#D9D9D9"/>
<ellipse cx="81.4428" cy="36.9107" rx="14.5" ry="22.5" transform="rotate(4.84873 81.4428 36.9107)" fill="#D9D9D9"/>
<ellipse cx="81.2505" cy="46.0793" rx="8.47134" ry="12.9111" transform="rotate(1.15534 81.2505 46.0793)" fill="black"/>
<ellipse cx="47.3436" cy="46.139" rx="8.47134" ry="12.9111" transform="rotate(-1.57472 47.3436 46.139)" fill="black"/>
</svg>
