<svg width="254" height="260" viewBox="0 0 254 260" fill="none" xmlns="http://www.w3.org/2000/svg">
<path d="M195.479 257.702C197.541 255.599 197.494 252.236 195.374 250.192C193.253 248.148 189.862 248.195 187.8 250.298C185.738 252.401 185.785 255.764 187.905 257.808C190.026 259.852 193.417 259.805 195.479 257.702ZM191.64 254L192.34 253.286L153.714 216.049L153.014 216.763L152.314 217.477L190.939 254.714L191.64 254Z" fill="#34261D"/>
<path d="M248.185 167.981C245.261 168.338 242.568 166.262 242.169 163.343C241.771 160.425 243.818 157.77 246.741 157.412C249.665 157.055 252.359 159.132 252.757 162.05C253.156 164.969 251.108 167.624 248.185 167.981ZM247.463 162.697L246.47 162.818L238.183 102.127L239.176 102.006L240.169 101.885L248.456 162.576L247.463 162.697Z" fill="#34261D"/>
<path d="M89.2785 203.683C92.2023 204.04 94.8955 201.964 95.294 199.045C95.6925 196.127 93.6453 193.472 90.7215 193.115C87.7977 192.758 85.1045 194.834 84.706 197.752C84.3075 200.671 86.3547 203.326 89.2785 203.683ZM90 198.399L90.9926 198.52L99.2795 137.829L98.2869 137.708L97.2943 137.587L89.0074 198.278L90 198.399Z" fill="#34261D"/>
<path d="M252.658 240.466C251.173 243.01 247.885 243.909 245.312 242.474C242.74 241.039 241.858 237.814 243.342 235.27C244.827 232.725 248.116 231.826 250.688 233.261C253.26 234.696 254.142 237.922 252.658 240.466ZM248 237.868L247.496 238.731L193.662 208.701L194.166 207.838L194.67 206.974L248.504 237.004L248 237.868Z" fill="#34261D"/>
<path d="M168.088 231C183.787 231 196.929 226.471 207.513 217.412C218.097 208.353 226.035 195.574 231.327 179.074C236.442 162.25 239 142.515 239 119.868C239 92.3677 235.737 69.8824 229.21 52.4118C222.683 34.6176 213.863 21.5147 202.75 13.1029C191.637 4.36764 179.289 0 165.706 0C149.478 0 136.071 4.85294 125.487 14.5588C114.903 24.2647 107.054 37.5294 101.938 54.3529C96.6461 70.8529 94.0001 89.9412 94.0001 111.618C94.0001 136.853 96.9989 158.368 102.996 176.162C108.818 193.956 117.285 207.544 128.398 216.926C139.511 226.309 152.741 231 168.088 231ZM163.06 193.632C157.063 193.632 152.476 187.324 149.301 174.706C145.95 161.765 144.274 146.074 144.274 127.632C144.274 106.603 145.509 89.2941 147.978 75.7059C150.448 61.7941 153.623 51.6029 157.504 45.1323C161.208 38.3382 165.265 34.9412 169.675 34.9412C176.202 34.9412 181.053 41.5735 184.228 54.8382C187.227 67.7794 188.726 83.3088 188.726 101.426C188.726 117.926 187.844 133.294 186.08 147.529C184.14 161.441 181.229 172.603 177.349 181.015C173.468 189.426 168.705 193.632 163.06 193.632Z" fill="#76B973"/>
<ellipse cx="16.5" cy="24" rx="16.5" ry="24" transform="matrix(-1 0 0 1 201 60)" fill="#D9D9D9"/>
<path d="M183 80.5C183 89.0604 187.253 96 192.5 96C197.747 96 202 89.0604 202 80.5C202 71.9396 197.747 65 192.5 65C187.253 65 183 71.9396 183 80.5Z" fill="#34261D"/>
<ellipse cx="16.5" cy="24" rx="16.5" ry="24" transform="matrix(-1 0 0 1 162 60)" fill="#D9D9D9"/>
<ellipse cx="9.5" cy="15.5" rx="9.5" ry="15.5" transform="matrix(-1 0 0 1 163 65)" fill="#34261D"/>
<path d="M73 147H41.5982V203.296V216.617H59.1038C59.1038 216.617 66.7364 204.721 70.4734 178.08C72.5562 163.232 73 147 73 147Z" fill="#3A2C1F"/>
<path d="M16.7837 147H48.1854V203.296V216.617H30.6798C30.6798 216.617 23.0472 204.721 19.3102 178.08C17.2274 163.232 16.7837 147 16.7837 147Z" fill="#3A2C1F"/>
<path d="M19.0805 163.474L19.7258 157.732C19.7258 157.732 12.5757 156.72 8.99728 157.732C1.2534 159.923 -3.11282 170.96 2.62471 182.815C7.92937 193.775 27.7923 200.04 27.7923 200.04L25.3724 192.787C25.3724 192.787 11.096 187.986 7.70663 180.246C4.91177 173.864 5.2467 168.607 8.35196 165.74C13.9179 160.603 19.0805 163.474 19.0805 163.474Z" fill="#3A2C1F"/>
</svg>
