<svg width="221" height="225" viewBox="0 0 221 225" fill="none" xmlns="http://www.w3.org/2000/svg">
<path d="M20.888 160.196L20.2557 171.28L10.1531 165.758L19.1382 159.24L20.888 160.196ZM51.003 103L51.2456 114.562L41.143 109.04L51.003 103ZM19.5322 160.598L18.6573 160.12L45.8002 110.443L46.6751 110.921L47.55 111.399L20.4071 161.076L19.5322 160.598Z" fill="#34261D"/>
<path d="M69.4602 212.87L63.1106 222.002L74.4681 223.852L71.4274 213.19L69.4602 212.87ZM80.3455 153.799L73.0123 162.771L84.3697 164.622L80.3455 153.799ZM70.2784 214.02L71.262 214.18L79.84 162.867L78.8565 162.707L77.8729 162.547L69.2948 213.86L70.2784 214.02Z" fill="#34261D"/>
<path d="M220.557 54L209.011 54.155L214.918 64.0766L220.557 54ZM156 92.4363L156.512 93.2955L213.335 59.4634L212.824 58.6042L212.312 57.745L155.488 91.577L156 92.4363Z" fill="#34261D"/>
<path d="M135.105 214.112L131.636 224.649L143.087 223.156L137.088 213.854L135.105 214.112ZM129.397 161.438L124.936 172.104L136.387 170.611L129.397 161.438ZM136.223 214.975L137.215 214.846L131.527 170.236L130.535 170.365L129.543 170.494L135.232 215.104L136.223 214.975Z" fill="#34261D"/>
<path d="M104.69 188C120.606 188 133.929 184.314 144.659 176.941C155.389 169.569 163.436 159.168 168.801 145.739C173.987 132.048 176.58 115.986 176.58 97.5546C176.58 75.1737 173.272 56.874 166.655 42.6555C160.038 28.1737 151.097 17.5098 139.83 10.6639C128.564 3.55462 116.046 0 102.276 0C85.823 0 72.2318 3.94958 61.5019 11.8487C50.7719 19.7479 42.8139 30.5434 37.6278 44.2353C32.2628 57.6639 29.5803 73.1989 29.5803 90.8403C29.5803 111.378 32.6205 128.888 38.7008 143.37C44.6022 157.852 53.1862 168.91 64.4526 176.546C75.719 184.182 89.1314 188 104.69 188ZM99.5931 157.588C93.5128 157.588 88.8632 152.454 85.6442 142.185C82.2464 131.653 80.5475 118.882 80.5475 103.874C80.5475 86.7591 81.7993 72.6723 84.303 61.6135C86.8066 50.2913 90.0256 41.9972 93.9599 36.7311C97.7154 31.2017 101.829 28.437 106.299 28.437C112.916 28.437 117.834 33.8347 121.053 44.6302C124.093 55.1625 125.613 67.8011 125.613 82.5462C125.613 95.9748 124.719 108.482 122.931 120.067C120.964 131.389 118.013 140.473 114.079 147.319C110.144 154.165 105.316 157.588 99.5931 157.588Z" fill="#76B973"/>
<ellipse cx="17" cy="21.5" rx="17" ry="21.5" transform="matrix(-1 0 0 1 143.58 44)" fill="#D9D9D9"/>
<ellipse cx="10" cy="13" rx="10" ry="13" transform="matrix(-1 0 0 1 144 47)" fill="#34261D"/>
<ellipse cx="17" cy="21.5" rx="17" ry="21.5" transform="matrix(-1 0 0 1 102.58 44)" fill="#D9D9D9"/>
<ellipse cx="10" cy="13" rx="10" ry="13" transform="matrix(-1 0 0 1 103 47)" fill="#34261D"/>
</svg>
