<svg width="121" height="215" viewBox="0 0 121 215" fill="none" xmlns="http://www.w3.org/2000/svg">
<path d="M91.2767 193.716C88.3584 194.115 86.3165 196.805 86.7159 199.723C87.1154 202.642 89.805 204.684 92.7233 204.284C95.6416 203.885 97.6835 201.195 97.2841 198.277C96.8846 195.358 94.195 193.316 91.2767 193.716ZM82.4186 129L81.4278 129.136L91.0092 199.136L92 199L92.9908 198.864L83.4093 128.864L82.4186 129Z" fill="#34261D"/>
<path d="M10.6414 153.3C13.5736 153.579 15.7245 156.182 15.4455 159.114C15.1665 162.047 12.5633 164.198 9.63102 163.919C6.69875 163.64 4.54784 161.036 4.82683 158.104C5.10583 155.172 7.70908 153.021 10.6414 153.3ZM17.8638 77.3917L18.8593 77.4864L11.1317 158.704L10.1362 158.609L9.14068 158.515L16.8683 77.297L17.8638 77.3917Z" fill="#34261D"/>
<path d="M113.954 155.77C111.066 156.348 109.193 159.158 109.77 162.046C110.348 164.934 113.158 166.807 116.046 166.23C118.934 165.652 120.807 162.842 120.23 159.954C119.652 157.066 116.842 155.193 113.954 155.77ZM99 81L98.0194 81.1961L114.019 161.196L115 161L115.981 160.804L99.9806 80.8039L99 81Z" fill="#34261D"/>
<path d="M29.4998 203.69C26.5672 203.414 23.9661 205.568 23.6901 208.5C23.4141 211.433 25.5677 214.034 28.5002 214.31C31.4328 214.586 34.0339 212.432 34.3099 209.5C34.5859 206.567 32.4323 203.966 29.4998 203.69ZM37 124L36.0044 123.906L28.0044 208.906L29 209L29.9956 209.094L37.9956 124.094L37 124Z" fill="#34261D"/>
<path d="M56.4182 162C44.644 162 34.5596 158.576 26.165 151.729C17.7704 144.882 11.2836 135.389 6.70478 123.251C2.23493 110.957 0 96.6398 0 80.2997C0 67.8501 1.36276 56.7233 4.08828 46.9193C6.92282 36.9597 10.8476 28.4784 15.8625 21.4755C20.8775 14.4726 26.8191 9.18157 33.6874 5.60232C40.5557 1.86744 48.1327 0 56.4182 0C67.8654 0 77.7863 3.1902 86.1809 9.57061C94.6845 15.951 101.28 24.8991 105.968 36.415C110.656 47.9308 113 61.5476 113 77.2651C113 89.8703 111.692 101.386 109.075 111.813C106.459 122.084 102.643 130.954 97.6281 138.424C92.7221 145.893 86.7805 151.729 79.8032 155.931C72.8259 159.977 65.0309 162 56.4182 162ZM58.3806 143.793C62.9595 143.793 66.7752 141.303 69.8278 136.323C72.9894 131.187 75.3878 124.029 77.0232 114.847C78.6585 105.666 79.4761 94.7723 79.4761 82.1672C79.4761 70.1844 78.4404 59.3689 76.369 49.7205C74.4067 39.9164 71.5176 32.1355 67.7019 26.3775C63.9952 20.464 59.5253 17.5072 54.2923 17.5072C49.9315 17.5072 46.1703 19.7637 43.0087 24.2767C39.9561 28.634 37.6122 35.0922 35.9768 43.6513C34.3415 52.0548 33.5239 62.4035 33.5239 74.6974C33.5239 84.0346 34.0145 92.9049 34.9957 101.308C35.9768 109.556 37.4486 116.87 39.411 123.251C41.4824 129.631 44.0444 134.689 47.097 138.424C50.2586 142.003 54.0198 143.793 58.3806 143.793Z" fill="#76B973"/>
<ellipse cx="14.7897" cy="25.238" rx="14.7897" ry="25.238" transform="matrix(0.996831 0.0795437 -0.0890534 0.996027 22.766 25.1691)" fill="#D9D9D9"/>
<ellipse cx="14.7897" cy="25.238" rx="14.7897" ry="25.238" transform="matrix(0.996831 0.0795437 -0.0890534 0.996027 59.8964 24.5358)" fill="#D9D9D9"/>
<ellipse cx="8.65018" cy="14.4689" rx="8.65018" ry="14.4689" transform="matrix(0.999961 0.0088096 -0.0305059 0.999535 57.8828 46)" fill="black"/>
<ellipse cx="8.66198" cy="14.4525" rx="8.66198" ry="14.4525" transform="matrix(0.999058 -0.0433909 0.0129412 0.999916 22 46.7517)" fill="black"/>
</svg>
