<svg width="177" height="277" viewBox="0 0 177 277" fill="none" xmlns="http://www.w3.org/2000/svg">
<path d="M149.713 238.589C147.533 240.57 146.944 244.252 148.398 246.813C149.852 249.375 152.799 249.846 154.979 247.866C157.16 245.885 157.748 242.203 156.294 239.642C154.84 237.08 151.894 236.609 149.713 238.589ZM121.75 189.329L121.01 190.001L151.606 243.9L152.346 243.227L153.087 242.555L122.491 188.656L121.75 189.329Z" fill="#34261D"/>
<path d="M87.8009 265.671C84.8606 265.846 82.5658 268.374 82.6754 271.318C82.785 274.261 85.2574 276.505 88.1977 276.33C91.138 276.155 93.4328 273.627 93.3232 270.683C93.2136 267.74 90.7412 265.496 87.8009 265.671ZM85.859 213.504L84.8608 213.563L87.0011 271.06L87.9993 271L88.9975 270.941L86.8572 213.445L85.859 213.504Z" fill="#34261D"/>
<path d="M25.384 194.247C22.4694 193.821 19.8894 195.854 19.6214 198.787C19.3534 201.72 21.4989 204.444 24.4134 204.87C27.3279 205.296 29.9079 203.263 30.1759 200.33C30.4439 197.397 28.2985 194.673 25.384 194.247ZM30.9211 133.644L29.9317 133.499L23.9092 199.414L24.8987 199.559L25.8882 199.703L31.9106 133.789L30.9211 133.644Z" fill="#34261D"/>
<path d="M167.438 144.686C166.395 147.44 167.592 150.91 170.112 152.436C172.631 153.962 175.519 152.966 176.562 150.211C177.605 147.456 176.407 143.986 173.888 142.46C171.368 140.935 168.481 141.931 167.438 144.686ZM124.685 118.795L124.331 119.73L171.646 148.384L172 147.448L172.354 146.513L125.039 117.859L124.685 118.795Z" fill="#34261D"/>
<path d="M106.66 226.176C93.6368 231.086 81.7973 231.215 71.1416 226.564C60.4859 221.913 51.2547 213.165 43.448 200.32C35.7206 187.135 29.512 170.591 24.8222 150.689C19.1275 126.521 17.1784 105.74 18.9747 88.3458C20.7041 70.6669 25.3073 56.3936 32.7841 45.5257C40.194 34.3735 49.5326 26.6734 60.8 22.4255C74.2624 17.3501 86.3884 17.4222 97.1781 22.6418C107.968 27.8614 117.226 37.0636 124.954 50.2485C132.76 63.0939 138.908 79.0413 143.397 98.0908C148.623 120.268 150.59 140.113 149.3 157.626C148.156 175.085 143.946 189.674 136.67 201.395C129.394 213.116 119.391 221.376 106.66 226.176ZM103.092 191.764C108.068 189.889 110.566 182.91 110.587 170.828C110.687 158.407 108.828 144.094 105.009 127.887C100.654 109.407 96.0459 94.5815 91.1834 83.4124C86.2539 71.9589 81.5096 63.9958 76.9504 59.5231C72.4705 54.7108 68.4015 52.9943 64.7432 54.3735C59.329 56.4147 56.6784 63.7604 56.7913 76.4105C56.9836 88.7212 58.9556 102.838 62.7074 118.76C66.1242 133.26 70.0382 146.489 74.4494 158.448C78.9399 170.067 83.6657 178.966 88.6268 185.144C93.588 191.323 98.4099 193.53 103.092 191.764Z" fill="#76B973"/>
<ellipse cx="18.4069" cy="28.4121" rx="18.4069" ry="28.4121" transform="matrix(0.922256 -0.38658 0.178484 0.983943 35.171 77.7321)" fill="#D9D9D9"/>
<ellipse cx="18.4069" cy="28.4121" rx="18.4069" ry="28.4121" transform="matrix(0.922256 -0.38658 0.178484 0.983943 74.7922 64.3479)" fill="#D9D9D9"/>
<ellipse cx="10.1846" cy="17.2594" rx="10.1846" ry="17.2594" transform="matrix(0.922256 -0.38658 0.178484 0.983943 79.1945 83.9771)" fill="#34261D"/>
<ellipse cx="9.82583" cy="17.5511" rx="9.82583" ry="17.5511" transform="matrix(0.985156 -0.171664 0.0751942 0.997169 42.5083 94.3255)" fill="#34261D"/>
</svg>
