<svg width="1560" height="561" viewBox="0 0 1560 561" fill="none" xmlns="http://www.w3.org/2000/svg">
<path d="M195.768 192.763H358.298L332.616 480.844H219.982L195.768 192.763Z" fill="#53402F"/>
<rect x="187.681" y="175.004" width="179.511" height="49.329" fill="#53402F"/>
<path d="M211.96 133.568H341.729L352.638 175.004H201.428L211.96 133.568Z" fill="#53402F"/>
<path d="M203.045 283.528H350.212L342.874 368.374H209.975L203.045 283.528Z" fill="#76B973"/>
<ellipse cx="277.437" cy="325.951" rx="32.3443" ry="39.4632" fill="#53402F"/>
<path d="M-13.6621 142.478H148.868L123.186 430.56H10.5524L-13.6621 142.478Z" fill="#53402F"/>
<rect x="-21.7481" y="124.72" width="179.511" height="49.329" fill="#53402F"/>
<path d="M2.53023 83.2835H132.3L143.208 124.72H-8.0018L2.53023 83.2835Z" fill="#53402F"/>
<path d="M-6.38454 233.244H140.782L133.444 318.09H0.545748L-6.38454 233.244Z" fill="#AE8B6F"/>
<ellipse cx="68.0073" cy="275.667" rx="32.3443" ry="39.4632" fill="#53402F"/>
<path d="M21.8052 347.588H-111.795L-133.321 480.844H46.7485L21.8052 347.588Z" fill="#BC9E86"/>
<path d="M22.8303 338.177H-111.795L-146.989 72.0406H124.995L48.7986 167.278L22.8303 338.177Z" fill="#BC9E86"/>
<path d="M8.62502 45.7234C-21.4453 37.9022 -42.7943 37.4354 -42.7943 37.4354V62.2993L48.4569 62.2991C48.4569 62.2991 32.5241 51.9394 8.62502 45.7234Z" fill="#BC9E86"/>
<path d="M1355.32 338.16H1221.72L1200.19 471.416H1380.26L1355.32 338.16Z" fill="#BC9E86"/>
<path d="M1356.34 328.749H1221.72L1186.52 62.6124H1458.51L1382.31 157.849L1356.34 328.749Z" fill="#BC9E86"/>
<path d="M1199.85 132.417L1189.53 62.6331C1189.53 62.6331 1166.84 61.8346 1155.71 70.1099C1140.75 81.2464 1136.72 97.829 1135.08 117.463C1129.35 186.001 1131.07 283.201 1131.07 283.201H1165.46C1165.46 283.201 1155.71 129.302 1176.35 112.479C1186.43 104.26 1199.85 132.417 1199.85 132.417Z" fill="#BC9E86"/>
<path d="M1342.14 36.2951C1312.07 28.4739 1290.72 28.0071 1290.72 28.0071V52.871L1381.97 52.8708C1381.97 52.8708 1366.04 42.5111 1342.14 36.2951Z" fill="#BC9E86"/>
<path d="M1240.02 36.2951C1270.09 28.4739 1291.44 28.0071 1291.44 28.0071V52.871L1200.19 52.8708C1200.19 52.8708 1216.12 42.5111 1240.02 36.2951Z" fill="#BC9E86"/>
<rect width="11.5875" height="18.6482" transform="matrix(-1 0 0 1 1297.23 21.7909)" fill="#BC9E86"/>
<ellipse cx="10.139" cy="11.3961" rx="10.139" ry="11.3961" transform="matrix(-1 0 0 1 1301.58 3.14282)" fill="#BC9E86"/>
<path d="M226.148 183.852H101.128V448.946V511.669H170.823C170.823 511.669 201.211 455.652 216.089 330.206C224.381 260.288 226.148 183.852 226.148 183.852Z" fill="#F2EDE7"/>
<path d="M2.33246 183.852H127.353V448.946V511.669H57.6577C57.6577 511.669 27.2697 455.652 12.3916 330.206C4.09914 260.288 2.33246 183.852 2.33246 183.852Z" fill="#F2EDE7"/>
<path d="M11.4767 261.427L14.046 234.389C14.046 234.389 -14.4209 229.622 -28.6677 234.389C-59.4987 244.706 -76.882 296.679 -54.039 352.5C-32.9194 404.109 46.1616 433.612 46.1616 433.612L36.5269 399.46C36.5269 399.46 -20.312 376.85 -33.8062 340.404C-44.9335 310.351 -43.6 285.596 -31.237 272.099C-9.07724 247.908 11.4767 261.427 11.4767 261.427Z" fill="#F2EDE7"/>
<path d="M776.079 113.14H651.058V378.234V440.957H720.754C720.754 440.957 751.142 384.94 766.02 259.494C774.312 189.575 776.079 113.14 776.079 113.14Z" fill="#71553D"/>
<path d="M552.263 113.14H677.284V378.234V440.957H607.589C607.589 440.957 577.201 384.94 562.323 259.494C554.03 189.575 552.263 113.14 552.263 113.14Z" fill="#71553D"/>
<path d="M561.408 190.714L563.977 163.677C563.977 163.677 535.51 158.909 521.263 163.676C490.432 173.993 473.049 225.967 495.892 281.788C517.011 333.397 596.092 362.9 596.092 362.9L586.458 328.747C586.458 328.747 529.619 306.138 516.125 269.692C504.997 239.639 506.331 214.883 518.694 201.387C540.854 177.195 561.408 190.714 561.408 190.714Z" fill="#71553D"/>
<path d="M1521.98 137.907H1652.26L1631.67 342.562H1541.39L1521.98 137.907Z" fill="#53402F"/>
<rect x="1515.49" y="125.291" width="143.894" height="35.0437" fill="#53402F"/>
<path d="M1534.95 95.8546H1638.98L1647.72 125.291H1526.51L1534.95 95.8546Z" fill="#53402F"/>
<path d="M1527.81 202.387H1645.78L1639.89 262.663H1533.36L1527.81 202.387Z" fill="#AE8B6F"/>
<path d="M1522.62 182.393V149.248C1522.62 149.248 1580.52 149.248 1612.1 227.278C1624.44 257.788 1623.14 280.313 1636.11 300.474C1646.38 316.453 1688.48 304.617 1688.48 304.617C1688.48 304.617 1746.47 409.525 1636.11 403.363C1549.53 398.529 1585.68 305.845 1576.45 258.352C1562.63 187.227 1522.62 182.393 1522.62 182.393Z" fill="#AE8B6F"/>
<path d="M355.913 173.385H441.756V542.128H347.183C347.183 542.128 305.717 511.745 312.991 466.86C320.266 421.976 320.697 427.98 335.544 383.997C367.612 288.992 355.913 173.385 355.913 173.385Z" fill="#AE8B6F"/>
<path d="M213.326 256.248V223.103C213.326 223.103 271.233 223.103 302.807 301.133C315.152 331.643 313.844 354.169 326.814 374.329C337.093 390.308 379.193 378.472 379.193 378.472C379.193 378.472 437.177 483.381 326.814 477.218C240.243 472.385 276.39 379.701 267.16 332.207C253.338 261.082 213.326 256.248 213.326 256.248Z" fill="#AE8B6F"/>
<path d="M505.775 173.385H419.932V542.128H514.505C514.505 542.128 555.972 511.745 548.697 466.86C541.422 421.976 540.991 427.98 526.145 383.997C494.076 288.992 505.775 173.385 505.775 173.385Z" fill="#AE8B6F"/>
<path d="M386.028 140.699C410.96 130.49 428.66 129.881 428.66 129.881V162.336L353.003 162.336C353.003 162.336 366.213 148.813 386.028 140.699Z" fill="#AE8B6F"/>
<path d="M470.692 140.699C445.76 130.49 428.06 129.881 428.06 129.881V162.336L503.717 162.336C503.717 162.336 490.507 148.813 470.692 140.699Z" fill="#AE8B6F"/>
<rect x="423.256" y="121.767" width="9.60728" height="24.3414" fill="#AE8B6F"/>
<ellipse cx="428.662" cy="112.618" rx="16.0047" ry="15.1917" fill="#AE8B6F"/>
<path d="M1304.64 161.853H1429.66V426.947V489.67H1359.96C1359.96 489.67 1329.58 433.653 1314.7 308.207C1306.41 238.288 1304.64 161.853 1304.64 161.853Z" fill="#F2EDE7"/>
<path d="M1528.46 161.853H1403.43V426.947V489.67H1473.13C1473.13 489.67 1503.52 433.653 1518.4 308.207C1526.69 238.288 1528.46 161.853 1528.46 161.853Z" fill="#F2EDE7"/>
<path d="M1519.31 239.427L1516.74 212.39C1516.74 212.39 1545.21 207.622 1559.46 212.389C1590.29 222.706 1607.67 274.68 1584.83 330.501C1563.71 382.11 1484.63 411.613 1484.63 411.613L1494.26 377.46C1494.26 377.46 1551.1 354.851 1564.59 318.405C1575.72 288.352 1574.39 263.596 1562.02 250.1C1539.86 225.908 1519.31 239.427 1519.31 239.427Z" fill="#F2EDE7"/>
<path d="M736.74 76.3195H948.287L914.86 386.561H768.257L736.74 76.3195Z" fill="#53402F"/>
<rect x="726.215" y="57.1951" width="233.649" height="53.1236" fill="#53402F"/>
<path d="M757.815 12.5711H926.722L940.92 57.1949H744.107L757.815 12.5711Z" fill="#53402F"/>
<path d="M746.212 174.067H937.762L928.211 265.439H755.232L746.212 174.067Z" fill="#76B973"/>
<ellipse cx="843.039" cy="219.753" rx="42.099" ry="42.4989" fill="#53402F"/>
<path d="M262.854 434.985L259.498 422.811C259.498 422.811 296.686 420.664 315.297 422.811C355.574 427.456 361.332 455.062 342.987 473.819C317.374 500.008 217.543 512.514 217.543 512.514L230.129 497.136C230.129 497.136 291.12 482.503 312.345 473.819C356.93 455.577 331.118 439.546 321.262 437.888C291.178 432.825 262.854 434.985 262.854 434.985Z" fill="#A1785A"/>
<path d="M118.41 392.847H229.767V534.271H181.287C181.287 534.271 151.216 516.158 131.647 472.853C113.785 433.324 118.41 392.847 118.41 392.847Z" fill="#A1785A"/>
<path d="M304.434 392.847H189.334V534.271H239.444C239.444 534.271 270.526 516.158 290.752 472.853C309.215 433.324 304.434 392.847 304.434 392.847Z" fill="#A1785A"/>
<path d="M1089.68 207.298H1264.8L1237.13 466.702H1115.77L1089.68 207.298Z" fill="#53402F"/>
<rect x="1080.96" y="191.307" width="193.424" height="44.4184" fill="#53402F"/>
<path d="M1107.12 153.996H1246.95L1258.7 191.307H1095.77L1107.12 153.996Z" fill="#53402F"/>
<path d="M1097.52 289.028H1256.09L1248.18 365.428H1104.98L1097.52 289.028Z" fill="#76B973"/>
<ellipse cx="1177.68" cy="327.228" rx="34.8513" ry="35.5348" fill="#53402F"/>
<path d="M502.538 213.708H627.559V478.802V541.526H557.863C557.863 541.526 527.476 485.509 512.597 360.062C504.305 290.144 502.538 213.708 502.538 213.708Z" fill="#F2EDE7"/>
<path d="M726.354 213.708H601.333V478.803V541.526H671.029C671.029 541.526 701.417 485.509 716.295 360.062C724.587 290.144 726.354 213.708 726.354 213.708Z" fill="#F2EDE7"/>
<path d="M717.21 291.283L714.64 264.245C714.64 264.245 743.107 259.478 757.354 264.245C788.185 274.562 805.568 326.536 782.725 382.356C761.606 433.966 682.525 463.469 682.525 463.469L692.16 429.316C692.16 429.316 748.998 406.706 762.493 370.261C773.62 340.208 772.286 315.452 759.923 301.955C737.764 277.764 717.21 291.283 717.21 291.283Z" fill="#F2EDE7"/>
<path d="M1506.54 382.263L1510.77 366.707C1510.77 366.707 1463.89 363.965 1440.43 366.707C1389.66 372.643 1382.4 407.917 1405.52 431.884C1437.81 465.348 1563.66 481.328 1563.66 481.328L1547.79 461.679C1547.79 461.679 1470.91 442.981 1444.15 431.884C1387.95 408.575 1420.49 388.091 1432.91 385.972C1470.84 379.504 1506.54 382.263 1506.54 382.263Z" fill="#A1785A"/>
<path d="M1688.63 328.42H1548.25V509.129H1609.36C1609.36 509.129 1647.27 485.984 1671.94 430.65C1694.46 380.14 1688.63 328.42 1688.63 328.42Z" fill="#A1785A"/>
<path d="M1454.12 328.42H1599.22V509.129H1536.05C1536.05 509.129 1496.87 485.984 1471.37 430.65C1448.1 380.14 1454.12 328.42 1454.12 328.42Z" fill="#A1785A"/>
<path d="M1315.29 433.547L1311.06 417.992C1311.06 417.992 1357.94 415.249 1381.4 417.991C1432.17 423.927 1439.43 459.201 1416.31 483.168C1384.02 516.632 1258.17 532.612 1258.17 532.612L1274.04 512.963C1274.04 512.963 1350.92 494.265 1377.68 483.168C1433.88 459.859 1401.35 439.375 1388.92 437.256C1351 430.788 1315.29 433.547 1315.29 433.547Z" fill="#A1785A"/>
<path d="M1133.2 379.704H1273.58V560.413H1212.47C1212.47 560.413 1174.56 537.268 1149.89 481.934C1127.37 431.424 1133.2 379.704 1133.2 379.704Z" fill="#A1785A"/>
<path d="M1367.71 379.704H1222.61V560.413H1285.78C1285.78 560.413 1324.96 537.268 1350.46 481.934C1373.73 431.424 1367.71 379.704 1367.71 379.704Z" fill="#A1785A"/>
<path d="M674.81 449.73L678.309 436.474C678.309 436.474 639.543 434.137 620.142 436.474C578.157 441.532 572.155 471.592 591.277 492.016C617.978 520.533 722.043 534.15 722.043 534.15L708.923 517.406C708.923 517.406 645.345 501.472 623.219 492.016C576.743 472.152 603.65 454.697 613.924 452.891C645.285 447.379 674.81 449.73 674.81 449.73Z" fill="#A1785A"/>
<path d="M825.382 403.846H709.301V557.842H759.838C759.838 557.842 791.184 538.119 811.583 490.964C830.203 447.921 825.382 403.846 825.382 403.846Z" fill="#A1785A"/>
<path d="M631.466 403.846H751.449V557.842H699.213C699.213 557.842 666.813 538.119 645.728 490.964C626.483 447.921 631.466 403.846 631.466 403.846Z" fill="#A1785A"/>
<path d="M1126.55 142.996H1001.53V408.09V470.813H1071.23C1071.23 470.813 1101.62 414.796 1116.49 289.35C1124.79 219.432 1126.55 142.996 1126.55 142.996Z" fill="#F2EDE7"/>
<path d="M902.737 142.996H1027.76V408.09V470.813H958.063C958.063 470.813 927.675 414.796 912.797 289.35C904.504 219.432 902.737 142.996 902.737 142.996Z" fill="#F2EDE7"/>
<path d="M911.882 220.57L914.451 193.533C914.451 193.533 885.984 188.765 871.737 193.533C840.906 203.85 823.523 255.823 846.366 311.644C867.486 363.253 946.567 392.756 946.567 392.756L936.932 358.604C936.932 358.604 880.093 335.994 866.599 299.548C855.471 269.495 856.805 244.74 869.168 231.243C891.328 207.052 911.882 220.57 911.882 220.57Z" fill="#F2EDE7"/>
<path d="M959.864 290.706H1057.31V478.286V522.669H1002.99C1002.99 522.669 979.301 483.032 967.704 394.266C961.241 344.792 959.864 290.706 959.864 290.706Z" fill="#3A2C1F"/>
<path d="M1134.31 290.706H1036.87V478.286V522.669H1091.19C1091.19 522.669 1114.87 483.032 1126.47 394.266C1132.93 344.792 1134.31 290.706 1134.31 290.706Z" fill="#3A2C1F"/>
<path d="M1127.18 345.598L1125.18 326.466C1125.18 326.466 1147.37 323.093 1158.47 326.466C1182.5 333.766 1196.05 370.543 1178.25 410.041C1161.78 446.56 1100.15 467.436 1100.15 467.436L1107.66 443.27C1107.66 443.27 1151.96 427.271 1162.48 401.482C1171.15 380.217 1170.11 362.7 1160.47 353.15C1143.2 336.032 1127.18 345.598 1127.18 345.598Z" fill="#3A2C1F"/>
<path d="M944.76 374.169L941.119 361.86C941.119 361.86 981.463 359.689 1001.65 361.86C1045.35 366.557 1051.59 394.469 1031.69 413.434C1003.91 439.914 895.605 452.559 895.605 452.559L909.259 437.011C909.259 437.011 975.425 422.215 998.451 413.434C1046.82 394.99 1018.82 378.781 1008.12 377.104C975.487 371.985 944.76 374.169 944.76 374.169Z" fill="#AD8E72"/>
<path d="M788.061 331.562H908.866V474.559H856.272C856.272 474.559 823.65 456.244 802.421 412.457C783.043 372.489 788.061 331.562 788.061 331.562Z" fill="#AD8E72"/>
<path d="M989.869 331.562H865.003V474.559H919.364C919.364 474.559 953.083 456.244 975.026 412.457C995.055 372.489 989.869 331.562 989.869 331.562Z" fill="#AD8E72"/>
<path d="M577.522 534.324L549.818 553.54L550 482L577.522 534.324Z" fill="#53402F"/>
<g filter="url(#filter0_n_0_317)">
<path d="M550 521C550 521 620.604 529.016 627.795 537C629.756 540.016 617.335 543 603.607 547.5C592.011 552.177 550 553 550 553V521Z" fill="#F2EDE7"/>
</g>
<path d="M29.7528 482C29.7528 482 65.9269 490.355 278.852 490.355C482.658 490.355 521.308 482 521.308 482H550V553.401H521.308C521.308 553.401 454.928 547.324 278.852 547.324C72.265 547.324 29.7528 553.401 29.7528 553.401H-3V482H29.7528Z" fill="#71553D"/>
<path d="M509.417 532.121C509.028 531.939 508.72 531.611 508.494 531.138C508.267 530.629 508.154 529.883 508.154 528.901C508.154 528.537 508.17 528.119 508.202 527.646C508.267 527.136 508.348 526.663 508.445 526.227H508.591C508.461 526.918 508.202 527.609 507.814 528.301C507.457 528.992 507.004 529.61 506.454 530.156C505.871 530.702 505.142 531.156 504.268 531.52C503.393 531.848 502.357 532.011 501.159 532.011C499.086 532.011 497.483 531.502 496.35 530.483C495.249 529.428 494.698 527.973 494.698 526.118C494.698 524.699 494.99 523.498 495.573 522.516C496.188 521.497 496.965 520.661 497.904 520.006C498.876 519.315 499.928 518.769 501.062 518.369C502.195 517.968 503.312 517.659 504.413 517.441C505.547 517.186 506.567 516.986 507.474 516.841C507.474 515.458 507.441 514.367 507.377 513.566C507.344 512.766 507.247 512.129 507.085 511.656C506.956 511.147 506.745 510.711 506.454 510.347C506.065 509.837 505.628 509.455 505.142 509.201C504.656 508.946 504.122 508.819 503.539 508.819C502.503 508.819 501.693 509.183 501.11 509.91C500.527 510.601 500.106 511.438 499.847 512.42C499.588 513.366 499.426 514.258 499.362 515.094C498.908 515.094 498.39 515.058 497.807 514.985C497.224 514.913 496.755 514.803 496.399 514.658C496.463 513.712 496.48 512.675 496.447 511.547C496.447 510.42 496.35 509.419 496.156 508.546C497.516 507.782 498.973 507.2 500.527 506.8C502.082 506.363 503.523 506.145 504.851 506.145C506.243 506.145 507.409 506.345 508.348 506.745C509.287 507.145 510.016 507.673 510.534 508.328C511.343 509.201 511.894 510.365 512.185 511.82C512.477 513.239 512.623 515.185 512.623 517.659V523.28C512.623 524.335 512.687 525.172 512.817 525.79C512.979 526.409 513.27 526.864 513.691 527.155C514.112 527.409 514.744 527.555 515.586 527.591C515.618 528.028 515.602 528.501 515.537 529.01C515.505 529.519 515.408 529.992 515.246 530.429C514.339 530.465 513.351 530.629 512.283 530.92C511.214 531.211 510.259 531.611 509.417 532.121ZM502.81 528.573C503.523 528.573 504.235 528.319 504.948 527.809C505.66 527.264 506.259 526.463 506.745 525.408C507.231 524.317 507.474 522.898 507.474 521.152V519.242C506.632 519.387 505.774 519.569 504.899 519.788C504.025 520.006 503.215 520.315 502.47 520.715C501.758 521.115 501.175 521.643 500.722 522.298C500.301 522.953 500.09 523.826 500.09 524.917C500.09 526.19 500.366 527.118 500.916 527.7C501.467 528.282 502.098 528.573 502.81 528.573Z" fill="#CCB19C"/>
<path d="M468.548 531.793C468.548 531.211 468.565 530.72 468.597 530.32C468.662 529.919 468.743 529.537 468.84 529.174C469.811 529.174 470.508 528.846 470.929 528.191C471.382 527.537 471.609 526.281 471.609 524.426V513.839C471.609 511.984 471.382 510.729 470.929 510.074C470.508 509.419 469.811 509.092 468.84 509.092C468.743 508.728 468.662 508.346 468.597 507.946C468.565 507.509 468.548 507.018 468.548 506.472C469.293 506.509 470.119 506.545 471.026 506.581C471.933 506.618 472.742 506.636 473.455 506.636C474.102 506.636 474.815 506.636 475.592 506.636C476.369 506.6 477.13 506.581 477.875 506.581C478.652 506.545 479.316 506.527 479.866 506.527C481.874 506.527 483.542 506.727 484.87 507.127C486.197 507.491 487.201 508.073 487.881 508.873C488.594 509.674 488.95 510.747 488.95 512.093C488.95 513.621 488.367 514.949 487.201 516.077C486.068 517.168 484.627 517.841 482.878 518.096C484.238 518.169 485.501 518.441 486.667 518.914C487.833 519.387 488.772 520.079 489.484 520.988C490.197 521.898 490.553 523.08 490.553 524.535C490.553 525.845 490.245 527.045 489.63 528.137C489.047 529.228 488.043 530.083 486.618 530.702C485.226 531.32 483.299 531.629 480.838 531.629C479.024 531.629 477.341 531.629 475.786 531.629C474.264 531.666 472.888 531.684 471.657 531.684C470.459 531.72 469.423 531.757 468.548 531.793ZM480.255 529.174C481.712 529.174 482.846 528.828 483.655 528.137C484.465 527.446 484.87 526.409 484.87 525.026C484.87 523.68 484.578 522.643 483.995 521.916C483.445 521.152 482.716 520.642 481.809 520.388C480.903 520.097 479.931 519.951 478.895 519.951H475.932V517.441H479.186C480.838 517.441 481.971 517.059 482.587 516.295C483.234 515.495 483.558 514.531 483.558 513.403C483.558 512.275 483.315 511.402 482.829 510.783C482.376 510.165 481.777 509.728 481.032 509.474C480.287 509.219 479.51 509.092 478.701 509.092C478.182 509.092 477.745 509.128 477.389 509.201C477.033 509.274 476.596 509.383 476.078 509.528L476.709 507.946V525.463C476.709 526.482 476.822 527.264 477.049 527.809C477.276 528.355 477.648 528.719 478.166 528.901C478.684 529.083 479.381 529.174 480.255 529.174Z" fill="#CCB19C"/>
<path d="M459.817 532.121C459.072 531.648 458.441 530.92 457.922 529.938C457.404 528.956 456.919 527.882 456.465 526.718C456.044 525.554 455.558 524.444 455.008 523.389C454.49 522.298 453.826 521.425 453.016 520.77C452.207 520.079 451.17 519.733 449.908 519.733V517.387C451.009 517.387 451.867 517.223 452.482 516.895C453.13 516.568 453.68 516.077 454.134 515.422C454.619 514.767 455.105 513.985 455.591 513.075C456.336 511.729 457.016 510.547 457.631 509.528C458.279 508.51 458.991 507.727 459.768 507.182C460.545 506.636 461.468 506.363 462.537 506.363C462.926 506.363 463.347 506.4 463.8 506.472C464.253 506.509 464.626 506.563 464.917 506.636C464.885 507.218 464.869 507.873 464.869 508.601C464.869 509.328 464.885 510.056 464.917 510.783C464.982 511.511 465.063 512.184 465.16 512.803C464.771 512.948 464.286 513.057 463.703 513.13C463.152 513.203 462.667 513.221 462.246 513.185C462.051 511.984 461.841 511.22 461.614 510.893C461.42 510.565 461.161 510.401 460.837 510.401C460.254 510.401 459.736 510.711 459.282 511.329C458.861 511.948 458.392 512.766 457.874 513.785C457.485 514.512 457.113 515.149 456.757 515.695C456.4 516.241 455.979 516.713 455.494 517.114C455.008 517.514 454.36 517.914 453.551 518.314L453.065 517.659C454.684 517.732 455.931 517.987 456.805 518.423C457.712 518.86 458.489 519.533 459.137 520.442C459.784 521.352 460.481 522.571 461.225 524.099C461.744 525.154 462.197 526.045 462.586 526.773C463.007 527.464 463.476 527.991 463.994 528.355C464.512 528.719 465.16 528.956 465.937 529.065C465.937 529.574 465.921 530.047 465.889 530.483C465.856 530.92 465.759 531.302 465.597 531.629C465.014 531.629 464.415 531.629 463.8 531.629C463.217 531.666 462.602 531.72 461.954 531.793C461.306 531.866 460.594 531.975 459.817 532.121ZM441.747 531.793C441.747 531.211 441.763 530.72 441.796 530.32C441.86 529.92 441.941 529.538 442.038 529.174C443.01 529.174 443.706 528.846 444.127 528.192C444.58 527.537 444.807 526.282 444.807 524.426V513.839C444.807 511.984 444.58 510.729 444.127 510.074C443.706 509.419 443.01 509.092 442.038 509.092C441.941 508.728 441.86 508.346 441.796 507.946C441.763 507.509 441.747 507.018 441.747 506.472C442.492 506.509 443.35 506.545 444.321 506.582C445.293 506.618 446.313 506.636 447.382 506.636C448.418 506.636 449.422 506.618 450.393 506.582C451.397 506.545 452.255 506.509 452.968 506.472C452.968 507.018 452.952 507.509 452.919 507.946C452.887 508.346 452.806 508.728 452.676 509.092C451.737 509.092 451.041 509.419 450.588 510.074C450.134 510.729 449.908 511.984 449.908 513.839V524.426C449.908 526.282 450.134 527.537 450.588 528.192C451.041 528.846 451.737 529.174 452.676 529.174C452.806 529.538 452.887 529.92 452.919 530.32C452.952 530.72 452.968 531.211 452.968 531.793C452.255 531.72 451.397 531.666 450.393 531.629C449.422 531.629 448.418 531.629 447.382 531.629C446.313 531.629 445.293 531.629 444.321 531.629C443.35 531.666 442.492 531.72 441.747 531.793Z" fill="#CCB19C"/>
<path d="M427.216 531.793C427.216 531.211 427.232 530.72 427.265 530.32C427.33 529.919 427.411 529.537 427.508 529.174C428.447 529.174 429.127 528.846 429.548 528.191C430.001 527.537 430.228 526.281 430.228 524.426V513.839C430.228 511.984 430.001 510.729 429.548 510.074C429.127 509.419 428.447 509.092 427.508 509.092C427.411 508.728 427.33 508.346 427.265 507.946C427.232 507.509 427.216 507.018 427.216 506.472C427.929 506.509 428.754 506.545 429.694 506.581C430.665 506.618 431.685 506.636 432.754 506.636C433.822 506.636 434.842 506.618 435.814 506.581C436.785 506.545 437.627 506.509 438.34 506.472C438.34 507.018 438.324 507.509 438.291 507.946C438.259 508.346 438.178 508.728 438.048 509.092C437.109 509.092 436.413 509.419 435.96 510.074C435.539 510.729 435.328 511.984 435.328 513.839V524.426C435.328 526.281 435.539 527.537 435.96 528.191C436.413 528.846 437.109 529.174 438.048 529.174C438.178 529.537 438.259 529.919 438.291 530.32C438.324 530.72 438.34 531.211 438.34 531.793C437.627 531.72 436.785 531.666 435.814 531.629C434.842 531.629 433.822 531.629 432.754 531.629C431.685 531.629 430.665 531.629 429.694 531.629C428.754 531.666 427.929 531.72 427.216 531.793ZM411.672 531.793C411.672 531.211 411.688 530.72 411.721 530.32C411.786 529.919 411.867 529.537 411.964 529.174C412.935 529.174 413.631 528.846 414.052 528.191C414.506 527.537 414.732 526.281 414.732 524.426V513.839C414.732 511.984 414.506 510.729 414.052 510.074C413.631 509.419 412.935 509.092 411.964 509.092C411.867 508.728 411.786 508.346 411.721 507.946C411.688 507.509 411.672 507.018 411.672 506.472C412.417 506.509 413.275 506.545 414.247 506.581C415.218 506.618 416.238 506.636 417.307 506.636C418.343 506.636 419.331 506.618 420.27 506.581C421.242 506.545 422.084 506.509 422.796 506.472C422.796 507.018 422.78 507.509 422.747 507.946C422.715 508.346 422.634 508.728 422.504 509.092C421.565 509.092 420.869 509.419 420.416 510.074C419.995 510.729 419.784 511.984 419.784 513.839V524.426C419.784 526.281 419.995 527.537 420.416 528.191C420.869 528.846 421.565 529.174 422.504 529.174C422.634 529.537 422.715 529.919 422.747 530.32C422.78 530.72 422.796 531.211 422.796 531.793C422.084 531.72 421.242 531.666 420.27 531.629C419.331 531.629 418.343 531.629 417.307 531.629C416.238 531.629 415.218 531.629 414.247 531.629C413.275 531.666 412.417 531.72 411.672 531.793ZM418.764 527.209V523.662L431.345 510.892V514.44L418.764 527.209Z" fill="#CCB19C"/>
<path d="M391.051 531.793C391.051 531.357 391.067 530.902 391.099 530.429C391.164 529.956 391.245 529.538 391.342 529.174C392.281 529.137 392.994 529.028 393.479 528.846C393.965 528.628 394.305 528.264 394.499 527.755C394.694 527.209 394.791 526.427 394.791 525.408V508.055H399.94V525.408C399.94 526.427 400.021 527.191 400.183 527.7C400.345 528.21 400.668 528.573 401.154 528.792C401.64 529.01 402.336 529.137 403.243 529.174C403.34 529.501 403.405 529.92 403.437 530.429C403.47 530.902 403.486 531.357 403.486 531.793C402.709 531.72 401.802 531.666 400.766 531.629C399.729 531.629 398.661 531.629 397.56 531.629C396.815 531.629 396.021 531.629 395.179 531.629C394.37 531.666 393.609 531.684 392.896 531.684C392.184 531.72 391.569 531.757 391.051 531.793ZM388.185 514.331C387.634 514.331 387.148 514.294 386.727 514.221C386.306 514.112 385.869 513.93 385.416 513.676C385.675 512.366 385.869 511.093 385.999 509.856C386.128 508.582 386.193 507.473 386.193 506.527C386.873 506.563 387.602 506.6 388.379 506.636C389.189 506.636 390.047 506.636 390.953 506.636C391.893 506.636 392.896 506.636 393.965 506.636C395.066 506.636 396.248 506.636 397.511 506.636C399.098 506.636 400.571 506.636 401.931 506.636C403.324 506.6 404.603 506.581 405.769 506.581C406.935 506.545 407.955 506.527 408.829 506.527C408.797 507.473 408.813 508.546 408.878 509.747C408.975 510.911 409.104 512.202 409.266 513.621C408.878 513.876 408.44 514.058 407.955 514.167C407.501 514.276 407.016 514.331 406.497 514.331C406.303 512.475 405.898 511.165 405.283 510.401C404.668 509.637 403.648 509.255 402.223 509.255H392.945C391.779 509.255 390.889 509.437 390.273 509.801C389.691 510.129 389.253 510.674 388.962 511.438C388.67 512.166 388.411 513.13 388.185 514.331Z" fill="#CCB19C"/>
<path d="M371.851 531.793C371.851 531.211 371.867 530.72 371.9 530.32C371.932 529.919 372.013 529.537 372.143 529.174C373.114 529.174 373.843 528.846 374.328 528.191C374.814 527.537 375.057 526.281 375.057 524.426V513.839C375.057 511.984 374.814 510.729 374.328 510.074C373.843 509.419 373.114 509.092 372.143 509.092C372.013 508.728 371.932 508.346 371.9 507.946C371.867 507.509 371.851 507.018 371.851 506.472C372.564 506.509 373.422 506.545 374.426 506.581C375.429 506.618 376.482 506.636 377.583 506.636C378.652 506.636 379.704 506.618 380.74 506.581C381.777 506.545 382.667 506.509 383.412 506.472C383.412 507.018 383.38 507.509 383.315 507.946C383.282 508.346 383.218 508.728 383.12 509.092C382.117 509.092 381.356 509.419 380.837 510.074C380.352 510.729 380.109 511.984 380.109 513.839V524.426C380.109 526.281 380.352 527.537 380.837 528.191C381.356 528.846 382.117 529.174 383.12 529.174C383.218 529.537 383.282 529.919 383.315 530.32C383.38 530.72 383.412 531.211 383.412 531.793C382.667 531.72 381.777 531.666 380.74 531.629C379.704 531.629 378.652 531.629 377.583 531.629C376.482 531.629 375.429 531.629 374.426 531.629C373.422 531.666 372.564 531.72 371.851 531.793ZM356.599 531.793C356.599 531.211 356.615 530.72 356.647 530.32C356.712 529.919 356.793 529.537 356.89 529.174C357.894 529.174 358.639 528.846 359.124 528.191C359.643 527.537 359.902 526.281 359.902 524.426V513.839C359.902 511.984 359.643 510.729 359.124 510.074C358.639 509.419 357.894 509.092 356.89 509.092C356.793 508.728 356.712 508.346 356.647 507.946C356.615 507.509 356.599 507.018 356.599 506.472C357.343 506.509 358.234 506.545 359.27 506.581C360.306 506.618 361.359 506.636 362.428 506.636C363.529 506.636 364.581 506.618 365.585 506.581C366.589 506.545 367.447 506.509 368.159 506.472C368.159 507.018 368.143 507.509 368.111 507.946C368.078 508.346 367.997 508.728 367.868 509.092C366.896 509.092 366.168 509.419 365.682 510.074C365.196 510.729 364.953 511.984 364.953 513.839V524.426C364.953 526.281 365.196 527.537 365.682 528.191C366.168 528.846 366.896 529.174 367.868 529.174C367.997 529.537 368.078 529.919 368.111 530.32C368.143 530.72 368.159 531.211 368.159 531.793C367.447 531.72 366.589 531.666 365.585 531.629C364.581 531.629 363.529 531.629 362.428 531.629C361.359 531.629 360.306 531.629 359.27 531.629C358.234 531.666 357.343 531.72 356.599 531.793ZM364.711 520.442V517.605H375.251V520.169C374.312 520.169 373.195 520.188 371.9 520.224C370.604 520.224 369.309 520.242 368.014 520.279C366.718 520.315 365.617 520.37 364.711 520.442Z" fill="#CCB19C"/>
<path d="M346.994 532.121C346.606 531.939 346.298 531.611 346.071 531.138C345.845 530.629 345.731 529.883 345.731 528.901C345.731 528.537 345.748 528.119 345.78 527.646C345.845 527.136 345.926 526.663 346.023 526.227H346.169C346.039 526.918 345.78 527.609 345.391 528.301C345.035 528.992 344.582 529.61 344.031 530.156C343.448 530.702 342.72 531.156 341.845 531.52C340.971 531.848 339.935 532.011 338.737 532.011C336.664 532.011 335.061 531.502 333.928 530.483C332.827 529.428 332.276 527.973 332.276 526.118C332.276 524.699 332.568 523.498 333.151 522.516C333.766 521.497 334.543 520.661 335.482 520.006C336.454 519.315 337.506 518.769 338.64 518.369C339.773 517.968 340.89 517.659 341.991 517.441C343.125 517.186 344.145 516.986 345.051 516.841C345.051 515.458 345.019 514.367 344.954 513.566C344.922 512.766 344.825 512.129 344.663 511.656C344.533 511.147 344.323 510.711 344.031 510.347C343.643 509.837 343.206 509.455 342.72 509.201C342.234 508.946 341.7 508.819 341.117 508.819C340.081 508.819 339.271 509.183 338.688 509.91C338.105 510.601 337.684 511.438 337.425 512.42C337.166 513.366 337.004 514.258 336.939 515.094C336.486 515.094 335.968 515.058 335.385 514.985C334.802 514.913 334.333 514.803 333.976 514.658C334.041 513.712 334.057 512.675 334.025 511.547C334.025 510.42 333.928 509.419 333.733 508.546C335.094 507.782 336.551 507.2 338.105 506.8C339.66 506.363 341.101 506.145 342.428 506.145C343.821 506.145 344.987 506.345 345.926 506.745C346.865 507.145 347.593 507.673 348.112 508.328C348.921 509.201 349.472 510.365 349.763 511.82C350.055 513.239 350.2 515.185 350.2 517.659V523.28C350.2 524.335 350.265 525.172 350.395 525.79C350.557 526.409 350.848 526.864 351.269 527.155C351.69 527.409 352.321 527.555 353.163 527.591C353.196 528.028 353.18 528.501 353.115 529.01C353.082 529.519 352.985 529.992 352.823 530.429C351.917 530.465 350.929 530.629 349.86 530.92C348.792 531.211 347.836 531.611 346.994 532.121ZM340.388 528.573C341.101 528.573 341.813 528.319 342.526 527.809C343.238 527.264 343.837 526.463 344.323 525.408C344.809 524.317 345.051 522.898 345.051 521.152V519.242C344.209 519.387 343.351 519.569 342.477 519.788C341.603 520.006 340.793 520.315 340.048 520.715C339.336 521.115 338.753 521.643 338.3 522.298C337.879 522.953 337.668 523.826 337.668 524.917C337.668 526.19 337.943 527.118 338.494 527.7C339.044 528.282 339.676 528.573 340.388 528.573Z" fill="#CCB19C"/>
<path d="M308.117 531.739C308.117 531.302 308.134 530.829 308.166 530.32C308.198 529.81 308.263 529.428 308.36 529.174C309.235 529.137 309.834 528.901 310.158 528.464C310.514 528.028 310.692 526.991 310.692 525.354V508.055L310.886 509.528C310.4 509.383 309.915 509.292 309.429 509.255C308.943 509.183 308.474 509.146 308.02 509.146C306.272 509.146 305.025 509.565 304.28 510.401C303.568 511.202 303.211 512.33 303.211 513.785C303.211 515.567 303.729 516.932 304.766 517.878C305.802 518.787 307.243 519.242 309.089 519.242C309.38 519.242 309.639 519.224 309.866 519.187C310.093 519.151 310.368 519.115 310.692 519.078V521.097H306.563C304.879 521.025 303.357 520.697 301.997 520.115C300.669 519.497 299.617 518.66 298.84 517.605C298.062 516.55 297.674 515.313 297.674 513.894C297.674 512.657 297.998 511.475 298.645 510.347C299.293 509.183 300.378 508.255 301.9 507.564C303.454 506.873 305.511 506.527 308.069 506.527C308.846 506.527 309.688 506.545 310.595 506.581C311.534 506.618 312.538 506.636 313.606 506.636C314.351 506.636 315.226 506.636 316.229 506.636C317.233 506.6 318.027 506.563 318.61 506.527C318.61 506.709 318.593 506.963 318.561 507.291C318.561 507.582 318.545 507.891 318.512 508.219C318.512 508.51 318.48 508.764 318.415 508.983C317.703 509.055 317.152 509.201 316.764 509.419C316.375 509.637 316.1 510.001 315.938 510.511C315.776 511.02 315.695 511.784 315.695 512.803V525.518C315.695 526.973 315.873 527.937 316.229 528.41C316.618 528.846 317.347 529.101 318.415 529.174C318.545 529.792 318.61 530.647 318.61 531.739C317.93 531.702 317.104 531.666 316.132 531.629C315.193 531.629 314.4 531.629 313.752 531.629C313.299 531.629 312.732 531.629 312.052 531.629C311.372 531.629 310.676 531.629 309.963 531.629C309.251 531.666 308.636 531.702 308.117 531.739ZM301.948 531.957C301.236 531.848 300.524 531.775 299.811 531.739C299.099 531.702 298.386 531.666 297.674 531.629C296.994 531.629 296.298 531.629 295.585 531.629C295.52 531.411 295.456 531.138 295.391 530.811C295.326 530.447 295.277 530.12 295.245 529.829C295.245 529.501 295.245 529.283 295.245 529.174C296.281 529.065 297.059 528.81 297.577 528.41C298.127 527.973 298.516 527.482 298.742 526.936C298.969 526.354 299.196 525.809 299.422 525.299C299.682 524.608 300.07 523.935 300.588 523.28C301.106 522.589 301.803 522.007 302.677 521.534C303.584 521.061 304.701 520.824 306.029 520.824H310.692V521.861C308.878 521.861 307.534 522.098 306.66 522.571C305.786 523.044 305.171 523.699 304.814 524.535C304.458 525.372 304.167 526.282 303.94 527.264C303.648 528.537 303.389 529.483 303.163 530.101C302.968 530.72 302.564 531.338 301.948 531.957Z" fill="#CCB19C"/>
<path d="M286.418 532.121C286.03 531.939 285.722 531.611 285.495 531.138C285.268 530.629 285.155 529.883 285.155 528.901C285.155 528.537 285.171 528.119 285.204 527.646C285.268 527.136 285.349 526.663 285.447 526.227H285.592C285.463 526.918 285.204 527.609 284.815 528.301C284.459 528.992 284.006 529.61 283.455 530.156C282.872 530.702 282.144 531.156 281.269 531.52C280.395 531.848 279.359 532.011 278.16 532.011C276.088 532.011 274.485 531.502 273.351 530.483C272.25 529.428 271.7 527.973 271.7 526.118C271.7 524.699 271.991 523.498 272.574 522.516C273.19 521.497 273.967 520.661 274.906 520.006C275.877 519.315 276.93 518.769 278.063 518.369C279.197 517.968 280.314 517.659 281.415 517.441C282.548 517.186 283.568 516.986 284.475 516.841C284.475 515.458 284.443 514.367 284.378 513.566C284.346 512.766 284.248 512.129 284.087 511.656C283.957 511.147 283.746 510.711 283.455 510.347C283.066 509.837 282.629 509.455 282.144 509.201C281.658 508.946 281.123 508.819 280.541 508.819C279.504 508.819 278.695 509.183 278.112 509.91C277.529 510.601 277.108 511.438 276.849 512.42C276.59 513.366 276.428 514.258 276.363 515.094C275.91 515.094 275.392 515.058 274.809 514.985C274.226 514.913 273.756 514.803 273.4 514.658C273.465 513.712 273.481 512.675 273.449 511.547C273.449 510.42 273.351 509.419 273.157 508.546C274.517 507.782 275.975 507.2 277.529 506.8C279.083 506.363 280.524 506.145 281.852 506.145C283.245 506.145 284.41 506.345 285.349 506.745C286.289 507.145 287.017 507.673 287.535 508.328C288.345 509.201 288.895 510.365 289.187 511.82C289.478 513.239 289.624 515.185 289.624 517.659V523.28C289.624 524.335 289.689 525.172 289.818 525.79C289.98 526.409 290.272 526.864 290.693 527.155C291.114 527.409 291.745 527.555 292.587 527.591C292.62 528.028 292.603 528.501 292.539 529.01C292.506 529.519 292.409 529.992 292.247 530.429C291.34 530.465 290.353 530.629 289.284 530.92C288.215 531.211 287.26 531.611 286.418 532.121ZM279.812 528.573C280.524 528.573 281.237 528.319 281.949 527.809C282.662 527.264 283.261 526.463 283.746 525.408C284.232 524.317 284.475 522.898 284.475 521.152V519.242C283.633 519.387 282.775 519.569 281.901 519.788C281.026 520.006 280.217 520.315 279.472 520.715C278.759 521.115 278.177 521.643 277.723 522.298C277.302 522.953 277.092 523.826 277.092 524.917C277.092 526.19 277.367 527.118 277.917 527.7C278.468 528.282 279.099 528.573 279.812 528.573Z" fill="#CCB19C"/>
<path d="M262.434 532.121C261.689 531.648 261.058 530.92 260.539 529.938C260.021 528.956 259.536 527.882 259.082 526.718C258.661 525.554 258.175 524.444 257.625 523.389C257.107 522.298 256.443 521.425 255.633 520.77C254.824 520.079 253.788 519.733 252.525 519.733V517.387C253.626 517.387 254.484 517.223 255.099 516.895C255.747 516.568 256.297 516.077 256.751 515.422C257.236 514.767 257.722 513.985 258.208 513.075C258.953 511.729 259.633 510.547 260.248 509.528C260.896 508.51 261.608 507.727 262.385 507.182C263.162 506.636 264.085 506.363 265.154 506.363C265.543 506.363 265.964 506.4 266.417 506.472C266.87 506.509 267.243 506.563 267.534 506.636C267.502 507.218 267.486 507.873 267.486 508.601C267.486 509.328 267.502 510.056 267.534 510.783C267.599 511.511 267.68 512.184 267.777 512.803C267.389 512.948 266.903 513.057 266.32 513.13C265.769 513.203 265.284 513.221 264.863 513.185C264.668 511.984 264.458 511.22 264.231 510.893C264.037 510.565 263.778 510.401 263.454 510.401C262.871 510.401 262.353 510.711 261.9 511.329C261.479 511.948 261.009 512.766 260.491 513.785C260.102 514.512 259.73 515.149 259.374 515.695C259.017 516.241 258.596 516.713 258.111 517.114C257.625 517.514 256.977 517.914 256.168 518.314L255.682 517.659C257.301 517.732 258.548 517.987 259.422 518.423C260.329 518.86 261.106 519.533 261.754 520.442C262.401 521.352 263.098 522.571 263.843 524.099C264.361 525.154 264.814 526.045 265.203 526.773C265.624 527.464 266.093 527.991 266.611 528.355C267.129 528.719 267.777 528.956 268.554 529.065C268.554 529.574 268.538 530.047 268.506 530.483C268.473 530.92 268.376 531.302 268.214 531.629C267.631 531.629 267.032 531.629 266.417 531.629C265.834 531.666 265.219 531.72 264.571 531.793C263.923 531.866 263.211 531.975 262.434 532.121ZM244.364 531.793C244.364 531.211 244.38 530.72 244.413 530.32C244.477 529.92 244.558 529.538 244.655 529.174C245.627 529.174 246.323 528.846 246.744 528.192C247.198 527.537 247.424 526.282 247.424 524.426V513.839C247.424 511.984 247.198 510.729 246.744 510.074C246.323 509.419 245.627 509.092 244.655 509.092C244.558 508.728 244.477 508.346 244.413 507.946C244.38 507.509 244.364 507.018 244.364 506.472C245.109 506.509 245.967 506.545 246.938 506.582C247.91 506.618 248.93 506.636 249.999 506.636C251.035 506.636 252.039 506.618 253.01 506.582C254.014 506.545 254.872 506.509 255.585 506.472C255.585 507.018 255.569 507.509 255.536 507.946C255.504 508.346 255.423 508.728 255.293 509.092C254.354 509.092 253.658 509.419 253.205 510.074C252.751 510.729 252.525 511.984 252.525 513.839V524.426C252.525 526.282 252.751 527.537 253.205 528.192C253.658 528.846 254.354 529.174 255.293 529.174C255.423 529.538 255.504 529.92 255.536 530.32C255.569 530.72 255.585 531.211 255.585 531.793C254.872 531.72 254.014 531.666 253.01 531.629C252.039 531.629 251.035 531.629 249.999 531.629C248.93 531.629 247.91 531.629 246.938 531.629C245.967 531.666 245.109 531.72 244.364 531.793Z" fill="#CCB19C"/>
<path d="M241.103 527.7C240.229 529.156 239.128 530.265 237.8 531.029C236.473 531.757 234.886 532.121 233.04 532.121C231.227 532.121 229.526 531.648 227.94 530.702C226.353 529.719 225.041 528.282 224.005 526.391C223.001 524.462 222.499 522.079 222.499 519.242C222.499 517.059 222.904 514.967 223.714 512.966C224.523 510.965 225.705 509.328 227.26 508.055C228.814 506.781 230.708 506.145 232.943 506.145C234.53 506.145 235.955 506.345 237.217 506.745C238.48 507.145 239.581 507.746 240.521 508.546C240.391 509.601 240.294 510.656 240.229 511.711C240.164 512.73 240.132 513.803 240.132 514.931C239.808 515.113 239.387 515.24 238.869 515.313C238.351 515.385 237.881 515.422 237.46 515.422C237.298 513.312 236.796 511.711 235.954 510.62C235.113 509.492 234.011 508.928 232.651 508.928C231.162 508.928 229.964 509.765 229.057 511.438C228.183 513.075 227.745 515.404 227.745 518.423C227.745 520.17 228.004 521.843 228.523 523.444C229.041 525.008 229.802 526.281 230.806 527.264C231.842 528.246 233.105 528.737 234.594 528.737C235.631 528.737 236.602 528.482 237.509 527.973C238.416 527.464 239.209 526.754 239.889 525.845C240.181 526.027 240.423 526.281 240.618 526.609C240.844 526.936 241.006 527.3 241.103 527.7Z" fill="#CCB19C"/>
<path d="M209.658 532.121C207.23 532.121 205.222 531.538 203.635 530.374C202.081 529.21 200.899 527.646 200.089 525.681C199.312 523.717 198.923 521.552 198.923 519.187C198.923 516.786 199.344 514.603 200.186 512.639C201.028 510.674 202.226 509.11 203.781 507.946C205.368 506.745 207.23 506.145 209.367 506.145C211.537 506.145 213.285 506.654 214.613 507.673C215.941 508.691 216.928 510.056 217.576 511.766C218.256 513.476 218.645 515.404 218.742 517.55C218.612 518.387 218.337 519.078 217.916 519.624C217.268 519.624 216.378 519.624 215.245 519.624C214.143 519.624 212.897 519.642 211.504 519.678C210.144 519.678 208.735 519.715 207.278 519.788C205.853 519.824 204.509 519.878 203.247 519.951V516.95H213.253C213.253 514.549 212.881 512.621 212.136 511.165C211.423 509.71 210.387 508.983 209.027 508.983C208.25 508.983 207.505 509.255 206.792 509.801C206.08 510.347 205.497 511.274 205.044 512.584C204.59 513.858 204.364 515.64 204.364 517.932C204.364 519.751 204.574 521.497 204.995 523.171C205.416 524.808 206.129 526.154 207.133 527.209C208.136 528.228 209.561 528.737 211.407 528.737C212.476 528.737 213.528 528.482 214.564 527.973C215.633 527.464 216.572 526.736 217.382 525.79C217.641 525.936 217.884 526.209 218.11 526.609C218.369 527.009 218.515 527.391 218.548 527.755C217.414 529.319 216.103 530.447 214.613 531.138C213.156 531.793 211.504 532.121 209.658 532.121Z" fill="#CCB19C"/>
<path d="M195.399 531.793C194.59 531.72 193.699 531.666 192.728 531.629C191.756 531.629 190.769 531.629 189.765 531.629C188.955 531.629 188.146 531.629 187.336 531.629C186.526 531.666 185.782 531.684 185.102 531.684C184.421 531.72 183.871 531.757 183.45 531.793C183.45 531.356 183.466 530.92 183.499 530.483C183.531 530.01 183.612 529.574 183.741 529.174C185.069 529.137 185.992 528.864 186.51 528.355C187.061 527.809 187.336 526.791 187.336 525.299V513.839C187.336 511.984 187.142 510.729 186.753 510.074C186.364 509.419 185.749 509.092 184.907 509.092C184.81 508.728 184.745 508.346 184.713 507.946C184.681 507.509 184.664 507.018 184.664 506.472C185.28 506.509 186.057 506.545 186.996 506.581C187.935 506.618 188.907 506.636 189.91 506.636C190.947 506.636 191.934 506.618 192.874 506.581C193.845 506.545 194.687 506.509 195.399 506.472C195.399 507.018 195.367 507.509 195.302 507.946C195.27 508.346 195.205 508.728 195.108 509.092C194.201 509.092 193.537 509.419 193.116 510.074C192.728 510.729 192.533 511.984 192.533 513.839V524.426C192.533 526.281 192.728 527.537 193.116 528.191C193.537 528.846 194.201 529.174 195.108 529.174C195.205 529.537 195.27 529.919 195.302 530.32C195.367 530.72 195.399 531.211 195.399 531.793ZM181.458 522.68C179.159 522.68 177.427 522.261 176.261 521.425C175.127 520.588 174.366 519.442 173.978 517.987C173.589 516.531 173.395 514.876 173.395 513.021C173.395 511.602 173.201 510.601 172.812 510.019C172.423 509.401 171.76 509.092 170.821 509.092C170.723 508.728 170.642 508.346 170.578 507.946C170.545 507.509 170.529 507.018 170.529 506.472C171.209 506.509 172.035 506.545 173.006 506.581C173.978 506.618 174.982 506.636 176.018 506.636C177.022 506.636 177.977 506.618 178.884 506.581C179.823 506.545 180.616 506.509 181.264 506.472C181.264 507.018 181.248 507.509 181.216 507.946C181.183 508.346 181.102 508.728 180.973 509.092C180.163 509.092 179.548 509.383 179.127 509.965C178.738 510.547 178.544 511.584 178.544 513.075C178.544 515.295 178.9 516.986 179.613 518.15C180.357 519.315 181.653 519.897 183.499 519.897C184.017 519.897 184.648 519.842 185.393 519.733C186.17 519.587 186.866 519.369 187.482 519.078V521.534C186.704 521.861 185.798 522.134 184.761 522.352C183.758 522.571 182.657 522.68 181.458 522.68Z" fill="#CCB19C"/>
<path d="M157.493 531.793C157.493 531.211 157.509 530.72 157.541 530.32C157.606 529.919 157.687 529.537 157.784 529.174C158.723 529.174 159.403 528.846 159.824 528.191C160.278 527.537 160.504 526.281 160.504 524.426V513.839C160.504 511.984 160.278 510.729 159.824 510.074C159.403 509.419 158.723 509.092 157.784 509.092C157.687 508.728 157.606 508.346 157.541 507.946C157.509 507.509 157.493 507.018 157.493 506.472C158.205 506.509 159.031 506.545 159.97 506.581C160.942 506.618 161.962 506.636 163.03 506.636C164.099 506.636 165.119 506.618 166.091 506.581C167.062 506.545 167.904 506.509 168.616 506.472C168.616 507.018 168.6 507.509 168.568 507.946C168.535 508.346 168.455 508.728 168.325 509.092C167.386 509.092 166.69 509.419 166.236 510.074C165.815 510.729 165.605 511.984 165.605 513.839V524.426C165.605 526.281 165.815 527.537 166.236 528.191C166.69 528.846 167.386 529.174 168.325 529.174C168.455 529.537 168.535 529.919 168.568 530.32C168.6 530.72 168.616 531.211 168.616 531.793C167.904 531.72 167.062 531.666 166.091 531.629C165.119 531.629 164.099 531.629 163.03 531.629C161.962 531.629 160.942 531.629 159.97 531.629C159.031 531.666 158.205 531.72 157.493 531.793ZM141.949 531.793C141.949 531.211 141.965 530.72 141.997 530.32C142.062 529.919 142.143 529.537 142.24 529.174C143.212 529.174 143.908 528.846 144.329 528.191C144.782 527.537 145.009 526.281 145.009 524.426V513.839C145.009 511.984 144.782 510.729 144.329 510.074C143.908 509.419 143.212 509.092 142.24 509.092C142.143 508.728 142.062 508.346 141.997 507.946C141.965 507.509 141.949 507.018 141.949 506.472C142.694 506.509 143.552 506.545 144.523 506.581C145.495 506.618 146.515 506.636 147.583 506.636C148.62 506.636 149.607 506.618 150.547 506.581C151.518 506.545 152.36 506.509 153.072 506.472C153.072 507.018 153.056 507.509 153.024 507.946C152.991 508.346 152.911 508.728 152.781 509.092C151.842 509.092 151.146 509.419 150.692 510.074C150.271 510.729 150.061 511.984 150.061 513.839V524.426C150.061 526.281 150.271 527.537 150.692 528.191C151.146 528.846 151.842 529.174 152.781 529.174C152.911 529.537 152.991 529.919 153.024 530.32C153.056 530.72 153.072 531.211 153.072 531.793C152.36 531.72 151.518 531.666 150.547 531.629C149.607 531.629 148.62 531.629 147.583 531.629C146.515 531.629 145.495 531.629 144.523 531.629C143.552 531.666 142.694 531.72 141.949 531.793ZM149.041 527.209V523.662L161.622 510.892V514.44L149.041 527.209Z" fill="#CCB19C"/>
<path d="M138.688 527.7C137.814 529.156 136.713 530.265 135.385 531.029C134.057 531.757 132.471 532.121 130.625 532.121C128.811 532.121 127.111 531.648 125.524 530.702C123.938 529.719 122.626 528.282 121.59 526.391C120.586 524.462 120.084 522.079 120.084 519.242C120.084 517.059 120.489 514.967 121.298 512.966C122.108 510.965 123.29 509.328 124.844 508.055C126.399 506.781 128.293 506.145 130.528 506.145C132.114 506.145 133.539 506.345 134.802 506.745C136.065 507.145 137.166 507.746 138.105 508.546C137.976 509.601 137.879 510.656 137.814 511.711C137.749 512.73 137.717 513.803 137.717 514.931C137.393 515.113 136.972 515.24 136.454 515.313C135.936 515.385 135.466 515.422 135.045 515.422C134.883 513.312 134.381 511.711 133.539 510.62C132.697 509.492 131.596 508.928 130.236 508.928C128.747 508.928 127.548 509.765 126.642 511.438C125.767 513.075 125.33 515.404 125.33 518.423C125.33 520.17 125.589 521.843 126.107 523.444C126.625 525.008 127.386 526.281 128.39 527.264C129.427 528.246 130.69 528.737 132.179 528.737C133.215 528.737 134.187 528.482 135.094 527.973C136 527.464 136.794 526.754 137.474 525.845C137.765 526.027 138.008 526.281 138.202 526.609C138.429 526.936 138.591 527.3 138.688 527.7Z" fill="#CCB19C"/>
<path d="M116.678 527.7C115.803 529.156 114.702 530.265 113.375 531.029C112.047 531.757 110.46 532.121 108.614 532.121C106.801 532.121 105.101 531.648 103.514 530.702C101.927 529.719 100.616 528.282 99.5794 526.391C98.5755 524.462 98.0735 522.079 98.0735 519.242C98.0735 517.059 98.4783 514.967 99.2879 512.966C100.097 510.965 101.279 509.328 102.834 508.055C104.388 506.781 106.283 506.145 108.517 506.145C110.104 506.145 111.529 506.345 112.792 506.745C114.055 507.145 115.156 507.746 116.095 508.546C115.965 509.601 115.868 510.656 115.803 511.711C115.739 512.73 115.706 513.803 115.706 514.931C115.382 515.113 114.961 515.24 114.443 515.313C113.925 515.385 113.456 515.422 113.035 515.422C112.873 513.312 112.371 511.711 111.529 510.62C110.687 509.492 109.586 508.928 108.226 508.928C106.736 508.928 105.538 509.765 104.631 511.438C103.757 513.075 103.32 515.404 103.32 518.423C103.32 520.17 103.579 521.843 104.097 523.444C104.615 525.008 105.376 526.281 106.38 527.264C107.416 528.246 108.679 528.737 110.169 528.737C111.205 528.737 112.176 528.482 113.083 527.973C113.99 527.464 114.783 526.754 115.463 525.845C115.755 526.027 115.998 526.281 116.192 526.609C116.419 526.936 116.581 527.3 116.678 527.7Z" fill="#CCB19C"/>
<path d="M88.3237 532.121C87.9351 531.939 87.6274 531.611 87.4007 531.138C87.1741 530.629 87.0607 529.883 87.0607 528.901C87.0607 528.537 87.0769 528.119 87.1093 527.646C87.1741 527.136 87.255 526.663 87.3522 526.227H87.4979C87.3684 526.918 87.1093 527.609 86.7207 528.301C86.3645 528.992 85.9111 529.61 85.3606 530.156C84.7777 530.702 84.0491 531.156 83.1747 531.52C82.3004 531.848 81.2641 532.011 80.0659 532.011C77.9934 532.011 76.3904 531.502 75.257 530.483C74.156 529.428 73.6055 527.973 73.6055 526.118C73.6055 524.699 73.8969 523.498 74.4798 522.516C75.0951 521.497 75.8723 520.661 76.8114 520.006C77.7829 519.315 78.8354 518.769 79.9688 518.369C81.1022 517.968 82.2194 517.659 83.3204 517.441C84.4539 517.186 85.4739 516.986 86.3807 516.841C86.3807 515.458 86.3483 514.367 86.2835 513.566C86.2511 512.766 86.154 512.129 85.9921 511.656C85.8625 511.147 85.652 510.711 85.3606 510.347C84.972 509.837 84.5348 509.455 84.0491 509.201C83.5633 508.946 83.029 508.819 82.4461 508.819C81.4098 508.819 80.6003 509.183 80.0174 509.91C79.4345 510.601 79.0135 511.438 78.7544 512.42C78.4953 513.366 78.3334 514.258 78.2687 515.094C77.8153 515.094 77.2972 515.058 76.7143 514.985C76.1314 514.913 75.6618 514.803 75.3056 514.658C75.3704 513.712 75.3865 512.675 75.3542 511.547C75.3542 510.42 75.257 509.419 75.0627 508.546C76.4228 507.782 77.8801 507.2 79.4345 506.8C80.9889 506.363 82.4299 506.145 83.7576 506.145C85.1501 506.145 86.3159 506.345 87.255 506.745C88.1941 507.145 88.9227 507.673 89.4409 508.328C90.2505 509.201 90.801 510.365 91.0924 511.82C91.3839 513.239 91.5296 515.185 91.5296 517.659V523.28C91.5296 524.335 91.5944 525.172 91.7239 525.79C91.8858 526.409 92.1773 526.864 92.5983 527.155C93.0192 527.409 93.6507 527.555 94.4927 527.591C94.525 528.028 94.5089 528.501 94.4441 529.01C94.4117 529.519 94.3146 529.992 94.1526 530.429C93.2459 530.465 92.2582 530.629 91.1896 530.92C90.1209 531.211 89.1656 531.611 88.3237 532.121ZM81.7175 528.573C82.4299 528.573 83.1423 528.319 83.8548 527.809C84.5672 527.264 85.1663 526.463 85.652 525.408C86.1378 524.317 86.3807 522.898 86.3807 521.152V519.242C85.5387 519.387 84.6805 519.569 83.8062 519.788C82.9318 520.006 82.1223 520.315 81.3775 520.715C80.665 521.115 80.0821 521.643 79.6288 522.298C79.2078 522.953 78.9973 523.826 78.9973 524.917C78.9973 526.19 79.2725 527.118 79.8231 527.7C80.3736 528.282 81.005 528.573 81.7175 528.573Z" fill="#CCB19C"/>
<path d="M48.0251 532.066C47.3451 532.066 46.7136 531.939 46.1307 531.684C45.5802 531.429 45.1592 531.138 44.8677 530.811C44.7058 530.156 44.6572 529.356 44.722 528.41C44.8192 527.464 44.9649 526.718 45.1592 526.172C45.5154 526.281 45.8878 526.354 46.2764 526.391C46.6974 526.427 47.0212 526.445 47.2479 526.445C48.5108 526.445 49.4985 525.899 50.211 524.808C50.9558 523.68 51.5225 522.079 51.9111 520.006C52.3321 517.932 52.6397 515.476 52.834 512.639C52.9312 511.656 52.9474 510.929 52.8826 510.456C52.8178 509.983 52.5588 509.674 52.1054 509.528C51.6844 509.346 50.9558 509.201 49.9195 509.092C49.8224 508.728 49.7576 508.328 49.7252 507.891C49.6928 507.418 49.6766 506.963 49.6766 506.527C50.551 506.563 51.7816 506.6 53.3683 506.636C54.9551 506.636 57.06 506.636 59.6831 506.636C61.5937 506.636 63.1805 506.636 64.4434 506.636C65.7064 506.6 66.7588 506.581 67.6008 506.581C68.4427 506.545 69.139 506.509 69.6895 506.472C69.6895 507.018 69.6571 507.509 69.5923 507.946C69.56 508.346 69.4952 508.728 69.398 509.092C68.4589 509.092 67.7627 509.419 67.3093 510.074C66.856 510.729 66.6293 511.984 66.6293 513.839V524.426C66.6293 526.281 66.856 527.537 67.3093 528.191C67.7627 528.846 68.4589 529.174 69.398 529.174C69.4952 529.537 69.56 529.919 69.5923 530.32C69.6571 530.72 69.6895 531.211 69.6895 531.793C68.9771 531.72 68.1189 531.666 67.115 531.629C66.1435 531.629 65.1397 531.629 64.1034 531.629C63.0347 531.629 61.9985 531.629 60.9946 531.629C60.0231 531.666 59.1811 531.72 58.4687 531.793C58.4687 531.211 58.4849 530.72 58.5173 530.32C58.582 529.919 58.663 529.537 58.7601 529.174C59.6993 529.174 60.3955 528.846 60.8489 528.191C61.3022 527.537 61.5289 526.281 61.5289 524.426V512.912C61.5289 511.893 61.448 511.111 61.286 510.565C61.1241 510.019 60.8165 509.656 60.3631 509.474C59.9098 509.292 59.2459 509.201 58.3716 509.201C57.4972 509.201 56.8495 509.292 56.4286 509.474C56.04 509.656 55.7809 510.019 55.6514 510.565C55.5218 511.111 55.4085 511.893 55.3113 512.912C55.0199 515.676 54.7122 518.223 54.3884 520.551C54.097 522.88 53.6922 524.899 53.174 526.609C52.6559 528.319 51.9759 529.665 51.1339 530.647C50.3243 531.593 49.288 532.066 48.0251 532.066Z" fill="#CCB19C"/>
<path d="M37.2532 532.121C36.5084 531.648 35.8769 530.92 35.3588 529.938C34.8407 528.956 34.3549 527.882 33.9016 526.718C33.4806 525.554 32.9948 524.444 32.4443 523.389C31.9262 522.298 31.2623 521.425 30.4528 520.77C29.6432 520.079 28.6069 519.733 27.344 519.733V517.387C28.445 517.387 29.3031 517.223 29.9184 516.895C30.5661 516.568 31.1166 516.077 31.57 515.422C32.0557 514.767 32.5415 513.985 33.0272 513.075C33.772 511.729 34.4521 510.547 35.0674 509.528C35.715 508.51 36.4275 507.727 37.2047 507.182C37.9819 506.636 38.9048 506.363 39.9734 506.363C40.362 506.363 40.783 506.4 41.2364 506.472C41.6897 506.509 42.0622 506.563 42.3536 506.636C42.3212 507.218 42.305 507.873 42.305 508.601C42.305 509.328 42.3212 510.056 42.3536 510.783C42.4184 511.511 42.4993 512.184 42.5965 512.803C42.2079 512.948 41.7221 513.057 41.1392 513.13C40.5887 513.203 40.103 513.221 39.682 513.185C39.4877 511.984 39.2772 511.22 39.0505 510.893C38.8562 510.565 38.5971 510.401 38.2733 510.401C37.6904 510.401 37.1723 510.711 36.7189 511.329C36.2979 511.948 35.8284 512.766 35.3102 513.785C34.9216 514.512 34.5492 515.149 34.193 515.695C33.8368 516.241 33.4158 516.713 32.9301 517.114C32.4443 517.514 31.7967 517.914 30.9871 518.314L30.5013 517.659C32.1205 517.732 33.3672 517.987 34.2416 518.423C35.1483 518.86 35.9255 519.533 36.5732 520.442C37.2209 521.352 37.9171 522.571 38.6619 524.099C39.18 525.154 39.6334 526.045 40.022 526.773C40.443 527.464 40.9125 527.991 41.4307 528.355C41.9488 528.719 42.5965 528.956 43.3737 529.065C43.3737 529.574 43.3575 530.047 43.3251 530.483C43.2927 530.92 43.1956 531.302 43.0336 531.629C42.4507 531.629 41.8517 531.629 41.2364 531.629C40.6535 531.666 40.0382 531.72 39.3905 531.793C38.7429 531.866 38.0304 531.975 37.2532 532.121ZM19.1834 531.793C19.1834 531.211 19.1996 530.72 19.232 530.32C19.2967 529.92 19.3777 529.538 19.4748 529.174C20.4463 529.174 21.1426 528.846 21.5636 528.192C22.0169 527.537 22.2436 526.282 22.2436 524.426V513.839C22.2436 511.984 22.0169 510.729 21.5636 510.074C21.1426 509.419 20.4463 509.092 19.4748 509.092C19.3777 508.728 19.2967 508.346 19.232 507.946C19.1996 507.509 19.1834 507.018 19.1834 506.472C19.9282 506.509 20.7864 506.545 21.7579 506.582C22.7293 506.618 23.7494 506.636 24.8181 506.636C25.8543 506.636 26.8582 506.618 27.8297 506.582C28.8336 506.545 29.6917 506.509 30.4042 506.472C30.4042 507.018 30.388 507.509 30.3556 507.946C30.3232 508.346 30.2423 508.728 30.1127 509.092C29.1736 509.092 28.4774 509.419 28.024 510.074C27.5706 510.729 27.344 511.984 27.344 513.839V524.426C27.344 526.282 27.5706 527.537 28.024 528.192C28.4774 528.846 29.1736 529.174 30.1127 529.174C30.2423 529.538 30.3232 529.92 30.3556 530.32C30.388 530.72 30.4042 531.211 30.4042 531.793C29.6917 531.72 28.8336 531.666 27.8297 531.629C26.8582 531.629 25.8543 531.629 24.8181 531.629C23.7494 531.629 22.7293 531.629 21.7579 531.629C20.7864 531.666 19.9282 531.72 19.1834 531.793Z" fill="#CCB19C"/>
<path d="M986 435H892.225V524.614V545.817H944.502C944.502 545.817 967.295 526.881 978.455 484.474C984.675 460.839 986 435 986 435Z" fill="#6C523B"/>
<path d="M818.121 435H911.896V524.614V545.817H859.619C859.619 545.817 836.826 526.881 825.666 484.474C819.446 460.839 818.121 435 818.121 435Z" fill="#6C523B"/>
<path d="M824.98 461.224L826.907 452.084C826.907 452.084 805.555 450.472 794.869 452.084C771.743 455.571 758.704 473.141 775.838 492.011C791.679 509.457 850.996 519.43 850.996 519.43L843.77 507.885C843.77 507.885 801.136 500.242 791.014 487.922C782.668 477.762 783.668 469.394 792.941 464.831C809.563 456.654 824.98 461.224 824.98 461.224Z" fill="#6C523B"/>
<defs>
<filter id="filter0_n_0_317" x="550" y="521" width="78" height="32" filterUnits="userSpaceOnUse" color-interpolation-filters="sRGB">
<feFlood flood-opacity="0" result="BackgroundImageFix"/>
<feBlend mode="normal" in="SourceGraphic" in2="BackgroundImageFix" result="shape"/>
<feTurbulence type="fractalNoise" baseFrequency="1 1" stitchTiles="stitch" numOctaves="3" result="noise" seed="3532" />
<feColorMatrix in="noise" type="luminanceToAlpha" result="alphaNoise" />
<feComponentTransfer in="alphaNoise" result="coloredNoise1">
<feFuncA type="discrete" tableValues="1 1 1 1 1 1 1 1 1 1 1 1 1 1 1 1 1 1 1 1 1 1 1 1 1 1 1 1 1 1 1 1 1 1 1 1 1 1 1 1 1 1 1 1 1 1 1 1 1 1 1 0 0 0 0 0 0 0 0 0 0 0 0 0 0 0 0 0 0 0 0 0 0 0 0 0 0 0 0 0 0 0 0 0 0 0 0 0 0 0 0 0 0 0 0 0 0 0 0 0 "/>
</feComponentTransfer>
<feComposite operator="in" in2="shape" in="coloredNoise1" result="noise1Clipped" />
<feFlood flood-color="rgba(91, 52, 27, 0.45)" result="color1Flood" />
<feComposite operator="in" in2="noise1Clipped" in="color1Flood" result="color1" />
<feMerge result="effect1_noise_0_317">
<feMergeNode in="shape" />
<feMergeNode in="color1" />
</feMerge>
</filter>
</defs>
</svg>
