<svg width="472" height="305" viewBox="0 0 472 305" fill="none" xmlns="http://www.w3.org/2000/svg">
<path d="M399.778 231.804L399.205 242.789L409.937 238.529L401.637 231.066L399.778 231.804ZM374.826 169.656L373.897 170.025L400.164 232.727L401.094 232.358L402.023 231.989L375.756 169.287L374.826 169.656Z" fill="#34261D"/>
<path d="M262.431 207.2L260.546 218.012L251.054 211.214L260.787 206.023L262.431 207.2ZM305.177 146.598L304.114 157.999L294.622 151.201L305.177 146.598ZM261.028 207.412L260.206 206.823L299.127 153.211L299.949 153.799L300.771 154.388L261.85 208L261.028 207.412Z" fill="#34261D"/>
<path d="M362.766 265.851L359.955 276.477L371.358 274.444L364.741 265.499L362.766 265.851ZM355.242 221.906L351.444 232.708L362.847 230.675L355.242 221.906ZM363.944 266.653L364.931 266.477L357.942 230.537L356.955 230.713L355.967 230.889L362.956 266.829L363.944 266.653Z" fill="#4E3B2F"/>
<path d="M303.846 265.057L297.871 274.322L309.383 275.797L305.84 265.313L303.846 265.057ZM311.456 211.488L304.484 220.625L315.995 222.099L311.456 211.488ZM304.721 266.172L305.718 266.3L311.358 220.502L310.361 220.375L309.364 220.247L303.724 266.045L304.721 266.172Z" fill="#4E3B2F"/>
<path d="M334.721 238.575C347.816 238.575 358.777 235.592 367.605 229.627C376.433 223.663 383.054 215.248 387.468 204.383C391.735 193.306 393.868 180.311 393.868 165.398C393.868 147.291 391.146 132.485 385.702 120.981C380.259 109.265 372.902 100.637 363.633 95.098C354.363 89.3461 344.064 86.4702 332.735 86.4702C319.198 86.4702 308.016 89.6657 299.188 96.0566C290.36 102.448 283.813 111.182 279.546 122.26C275.132 133.124 272.925 145.693 272.925 159.966C272.925 176.583 275.426 190.749 280.429 202.466C285.284 214.183 292.347 223.13 301.616 229.308C310.885 235.486 321.92 238.575 334.721 238.575ZM330.528 213.97C325.525 213.97 321.7 209.815 319.051 201.507C316.256 192.986 314.858 182.654 314.858 170.511C314.858 156.664 315.888 145.267 317.948 136.32C320.008 127.159 322.656 120.449 325.893 116.188C328.983 111.714 332.367 109.478 336.045 109.478C341.489 109.478 345.535 113.845 348.184 122.579C350.685 131.1 351.935 141.326 351.935 153.256C351.935 164.12 351.2 174.239 349.728 183.613C348.11 192.773 345.682 200.123 342.445 205.661C339.208 211.2 335.236 213.97 330.528 213.97Z" fill="#76B973"/>
<ellipse cx="13.9138" cy="17.7108" rx="13.9138" ry="17.7108" transform="matrix(-1 0 0 1 366.041 121.892)" fill="#D9D9D9"/>
<ellipse cx="8.56236" cy="10.939" rx="8.56236" ry="10.939" transform="matrix(-1 0 0 1 358.548 130.227)" fill="#34261D"/>
<ellipse cx="13.9138" cy="17.7108" rx="13.9138" ry="17.7108" transform="matrix(-1 0 0 1 332.862 121.892)" fill="#D9D9D9"/>
<ellipse cx="8.02721" cy="10.939" rx="8.02721" ry="10.939" transform="matrix(-1 0 0 1 328.58 130.227)" fill="#34261D"/>
<path d="M134.355 301.184C137.288 301.447 139.891 299.283 140.169 296.351C140.446 293.418 138.293 290.828 135.359 290.565C132.426 290.302 129.822 292.466 129.545 295.398C129.267 298.331 131.421 300.921 134.355 301.184ZM134.857 295.875L135.853 295.964L143.345 216.786L142.349 216.697L141.353 216.607L133.861 295.785L134.857 295.875Z" fill="#4E3B2F"/>
<path d="M258.147 216.248C255.222 216.596 252.519 214.513 252.11 211.596C251.7 208.679 253.74 206.033 256.665 205.685C259.59 205.337 262.293 207.42 262.702 210.337C263.111 213.254 261.072 215.901 258.147 216.248ZM257.406 210.967L256.419 211.121L242.921 135.391L243.908 135.237L244.896 135.082L258.393 210.812L257.406 210.967Z" fill="#34261D"/>
<path d="M81.6716 242.294C84.5965 242.642 87.2993 240.559 87.7085 237.642C88.1177 234.725 86.0783 232.078 83.1534 231.731C80.2284 231.383 77.5256 233.466 77.1164 236.383C76.7073 239.3 78.7467 241.946 81.6716 242.294ZM82.4125 237.012L83.3775 237.263L107.459 151.835L106.494 151.584L105.529 151.333L81.4474 236.761L82.4125 237.012Z" fill="#34261D"/>
<path d="M212.389 304.312C215.324 304.066 217.493 301.487 217.233 298.553C216.973 295.619 214.382 293.441 211.447 293.688C208.512 293.934 206.343 296.513 206.604 299.447C206.864 302.381 209.454 304.559 212.389 304.312ZM211.918 299L212.915 298.916L205.6 216.444L204.604 216.528L203.607 216.612L210.922 299.084L211.918 299Z" fill="#4E3B2F"/>
<path d="M176.692 240.659C193.495 240.659 207.561 235.94 218.889 226.502C230.217 217.065 238.713 203.751 244.377 186.561C249.852 169.034 252.589 148.474 252.589 124.88C252.589 96.2297 249.097 72.8043 242.111 54.6032C235.126 36.0651 225.686 22.4143 213.791 13.6508C201.897 4.55026 188.681 0 174.144 0C156.774 0 142.425 5.05585 131.097 15.1676C119.769 25.2793 111.368 39.0986 105.893 56.6255C100.229 73.8154 97.3967 93.7018 97.3967 116.285C97.3967 142.575 100.606 164.989 107.025 183.527C113.256 202.066 122.318 216.222 134.213 225.997C146.107 235.771 160.267 240.659 176.692 240.659ZM171.312 201.728C164.892 201.728 159.984 195.156 156.585 182.011C152.998 168.528 151.204 152.181 151.204 132.969C151.204 111.06 152.526 93.0277 155.169 78.8713C157.812 64.3779 161.211 53.7606 165.364 47.0194C169.329 39.9412 173.672 36.4021 178.391 36.4021C185.377 36.4021 190.569 43.3118 193.967 57.1311C197.177 70.6134 198.782 86.7921 198.782 105.667C198.782 122.857 197.838 138.867 195.95 153.698C193.873 168.191 190.758 179.82 186.604 188.583C182.451 197.347 177.353 201.728 171.312 201.728Z" fill="#76B973"/>
<ellipse cx="17.6599" cy="25.0035" rx="17.6599" ry="25.0035" transform="matrix(-1 0 0 1 211.918 62.5088)" fill="#D9D9D9"/>
<path d="M180.88 92.2003C180.88 101.119 185.432 108.348 191.047 108.348C196.663 108.348 201.215 101.119 201.215 92.2003C201.215 83.282 196.663 76.0522 191.047 76.0522C185.432 76.0522 180.88 83.282 180.88 92.2003Z" fill="#34261D"/>
<ellipse cx="17.6599" cy="25.0035" rx="17.6599" ry="25.0035" transform="matrix(-1 0 0 1 170.177 62.5088)" fill="#D9D9D9"/>
<path d="M144.49 92.2003C144.49 101.119 149.042 108.348 154.657 108.348C160.273 108.348 164.825 101.119 164.825 92.2003C164.825 83.282 160.273 76.0522 154.657 76.0522C149.042 76.0522 144.49 83.282 144.49 92.2003Z" fill="#34261D"/>
<path d="M68.4989 177.108H39.0334V232.388V245.468H55.4595C55.4595 245.468 62.6215 233.787 66.1281 207.627C68.0825 193.047 68.4989 177.108 68.4989 177.108Z" fill="#362D27"/>
<path d="M15.7488 177.108H45.2144V232.388V245.468H28.7882C28.7882 245.468 21.6262 233.787 18.1196 207.627C16.1652 193.047 15.7488 177.108 15.7488 177.108Z" fill="#362D27"/>
<path d="M17.904 193.285L18.5095 187.646C18.5095 187.646 11.8003 186.652 8.4425 187.646C1.17609 189.798 -2.92091 200.636 2.46285 212.276C7.44044 223.038 26.0787 229.191 26.0787 229.191L23.8079 222.069C23.8079 222.069 10.4118 217.354 7.23143 209.754C4.60889 203.487 4.92317 198.325 7.83696 195.51C13.0597 190.466 17.904 193.285 17.904 193.285Z" fill="#362D27"/>
<path d="M449.85 218.717L449.025 216.026C449.025 216.026 458.168 215.552 462.744 216.026C472.646 217.053 474.062 223.154 469.552 227.299C463.254 233.087 438.71 235.85 438.71 235.85L441.804 232.452C441.804 232.452 456.799 229.218 462.018 227.299C472.98 223.267 466.633 219.725 464.21 219.358C456.814 218.239 449.85 218.717 449.85 218.717Z" fill="#362D27"/>
<path d="M414.336 209.404H441.715V240.659H429.795C429.795 240.659 422.402 236.656 417.591 227.085C413.199 218.35 414.336 209.404 414.336 209.404Z" fill="#362D27"/>
<path d="M460.073 209.404H431.774V240.659H444.094C444.094 240.659 451.736 236.656 456.709 227.085C461.248 218.35 460.073 209.404 460.073 209.404Z" fill="#362D27"/>
</svg>
