<svg width="169" height="204" viewBox="0 0 169 204" fill="none" xmlns="http://www.w3.org/2000/svg">
<path d="M31.2808 98.5982L35.4417 72.3274C36.8286 63.5705 37.5719 56.7517 37.6715 51.8711C37.771 46.9906 36.7571 43.2937 34.6298 40.7806C32.5444 38.0022 28.8548 35.7857 23.561 34.1312C24.3595 29.0893 25.3433 23.9407 26.5124 18.6855C27.8457 13.4563 29.5056 8.82289 31.4919 4.7852C43.6457 6.71017 54.6958 7.10023 64.642 5.95537C74.6303 4.54515 81.8475 2.56003 86.2936 8.3628e-07C88.7915 2.29976 90.3611 5.67659 91.0026 10.1305C91.8503 14.345 91.7278 19.902 90.6351 26.8014L31.2808 98.5982ZM158.219 135.84C156.159 148.843 155.469 157.983 156.149 163.259C156.829 168.535 159.221 171.498 163.327 172.148C163.805 176.576 163.808 181.337 163.338 186.431C162.91 191.259 162.171 196.991 161.12 203.625C157.549 202.787 152.417 201.702 145.725 200.37C139.033 199.038 132.813 197.917 127.065 197.007C123.287 196.408 118.689 195.68 113.269 194.822C107.807 194.229 102.612 193.542 97.685 192.761C92.88 192.272 89.2246 191.965 86.719 191.841C87.6016 186.268 88.5243 180.974 89.4871 175.958C90.6562 170.703 92.1938 165.778 94.1 161.183C97.5491 161.73 100.782 159.386 103.8 154.151C106.982 148.943 109.75 138.908 112.104 124.048L116.454 96.5832C118.849 81.4576 119.299 70.648 117.802 64.1545C116.305 57.6609 112.929 53.998 107.673 53.1656C103.731 52.5412 99.7796 54.6356 95.8184 59.4486C91.8573 64.2616 88.2379 71.1688 84.9602 80.1704C81.7246 88.9065 79.1401 99.3779 77.2067 111.585L75.4415 122.73C73.256 136.529 72.7704 145.972 73.9848 151.061C75.4054 155.91 77.9223 158.621 81.5356 159.193C82.051 164.443 82.0125 169.47 81.4203 174.272C80.9922 179.101 80.2949 184.567 79.3282 190.67C76.9066 190.014 73.4996 189.203 69.1071 188.235C64.6726 187.533 60.0128 186.659 55.1276 185.613C50.3646 184.859 45.9301 184.156 41.8241 183.506C37.8823 182.882 33.1194 182.127 27.5352 181.243C21.909 180.624 16.5502 179.911 11.4587 179.105C6.32522 178.563 2.50566 178.231 1.91679e-05 178.106C0.966691 172.002 2.05557 166.19 3.26667 160.67C4.642 155.175 6.01346 150.768 7.38105 147.449C13.7864 148.463 18.3528 146.738 21.0802 142.274C24.0139 137.57 26.5315 128.584 28.6329 115.316L35.4417 72.3274L90.6351 26.8014C90.1307 29.9858 89.2138 33.6488 87.8844 37.7905C86.7192 41.9583 85.3687 46.2327 83.833 50.6138C85.9876 45.5147 88.1611 40.8266 90.3538 36.5496C92.5465 32.2725 94.9836 28.5782 97.6651 25.4667C102.616 19.7223 108.177 15.4348 114.35 12.6042C120.728 9.53423 127.367 8.54553 134.265 9.63808C141.656 10.8087 148.279 14.1698 154.134 19.7215C160.031 25.0078 164.194 32.7396 166.623 42.917C169.216 53.1203 169.293 65.9175 166.856 81.3085L158.219 135.84Z" fill="#34261D"/>
</svg>
