<svg width="210" height="274" viewBox="0 0 210 274" fill="none" xmlns="http://www.w3.org/2000/svg">
<path d="M146.171 273.575C135.017 254.512 123.745 235.854 112.356 217.601C101.112 199.062 89.8776 181.024 78.6537 163.487C67.3746 145.711 56.1057 128.436 44.8468 111.662C37.8471 101.452 32.2829 93.8049 28.1544 88.7196C24.1711 83.3491 20.7016 79.7471 17.7458 77.9134C14.9904 76.0335 12.0273 75.0822 8.85657 75.0594C7.33822 72.1391 5.72704 68.3596 4.02302 63.721C2.51934 59.036 1.17834 53.6845 -3.94787e-09 47.6665C2.65977 47.304 6.22113 46.7334 10.6841 45.9547C15.0919 44.937 19.8278 43.9695 24.8919 43.0519C29.9008 41.8956 34.6091 40.8085 39.0169 39.7909C43.4248 38.7733 46.8308 37.9869 49.2351 37.4319C54.0436 36.3217 61.3566 34.6334 71.174 32.3669C80.9363 29.8615 90.5708 27.2598 100.078 24.5618C101.421 31.2964 102.417 36.9793 103.064 41.6104C103.711 46.2414 104.065 50.0596 104.126 53.0648C99.3373 55.1767 96.2171 57.6583 94.765 60.5096C93.3129 63.3608 93.4389 67.1058 95.1429 71.7445C97.0473 76.3369 100.467 82.4664 105.403 90.1331C112.733 101.776 119.553 113.033 125.862 123.905C132.371 134.731 138.79 146.081 145.119 157.955C151.648 169.782 158.463 183.305 165.564 198.523L155.646 200.813C157.817 183.706 159.645 168.314 161.13 154.636C162.815 140.912 164.172 127.137 165.201 113.313C166.431 99.4428 167.502 83.9735 168.415 66.9052C168.82 59.5154 167.741 53.4742 165.181 48.7817C162.565 43.8503 157.941 41.6469 151.309 42.1716C149.791 39.2513 148.235 35.7107 146.641 31.5498C145.193 27.1037 143.796 21.5134 142.453 14.7787C144.912 14.4625 148.173 13.9613 152.235 13.275C156.443 12.3037 160.778 11.4286 165.241 10.6498C169.849 9.58595 173.756 8.68397 176.962 7.94387C181.971 6.78748 187.353 5.41915 193.108 3.83887C199.063 2.21232 203.516 0.9327 206.466 -3.45707e-06C207.735 5.49405 208.62 10.6992 209.122 15.6154C209.568 20.2927 209.832 24.6348 209.913 28.6418C204.98 31.0388 201.389 35.1387 199.141 40.9413C196.838 46.5051 194.999 56.3648 193.624 70.5203C190.645 102.407 187.539 134.197 184.304 165.891C181.014 197.346 177.271 230.038 173.076 263.967C170.056 266.426 165.968 268.376 160.814 269.817C155.66 271.259 150.779 272.511 146.171 273.575Z" fill="#34261D"/>
</svg>
